{
.appVersion = "1075";
DisplayStrings = (
"/boBaimai-thai/zero-thai/one-thai/two-thai/three-thai/four-thai/five-thai/six-thai/seven-thai/eight-thai/angkhankhu-thai/nine-thai/fongman-thai/khomut-thai/maiyamok-thai/paiyannoi-thai"
);
copyright = "Copyright © 2018 by Cadson Demak Co.,Ltd.. All rights reserved.";
customParameters = (
{
name = vendorID;
value = CDK;
},
{
name = description;
value = "Copyright (c) 2018, Cadson Demak (info@cadsondemak.com)";
},
{
name = license;

glyphs = (
{
color = 8;
glyphname = A;
lastChange = "2018-03-28 15:22:05 +0000";
layers = (
{
anchors = (
{
name = bottom;
position = "{325, 0}";
},
{
name = ogonek;
position = "{587, 0}";
},
{
name = top;
position = "{325, 700}";
}
);
layerId = "0B1DFD06-3317-40CA-B510-4969A0718C16";
paths = (
{
closed = 1;
nodes = (
"274 710 OFFCURVE",
"250 676 OFFCURVE",
"227 601 CURVE SMOOTH",
"40 0 LINE",
"73 0 LINE",
"263 601 LINE SMOOTH",
"282 661 OFFCURVE",
"297 680 OFFCURVE",
"325 680 CURVE SMOOTH",
"353 680 OFFCURVE",
"368 661 OFFCURVE",
"387 601 CURVE SMOOTH",
"577 0 LINE",
"610 0 LINE",
"423 601 LINE SMOOTH",
"400 676 OFFCURVE",
"376 710 OFFCURVE",
"325 710 CURVE SMOOTH"
);
},
{
closed = 1;
nodes = (
"514 261 LINE",
"514 289 LINE",
"140 289 LINE",
"140 261 LINE"
);
}
);
width = 650;
},
{
anchors = (
{
name = bottom;
position = "{386, 0}";
},
{
name = ogonek;
position = "{694, 10}";
},
{
name = top;
position = "{386, 700}";
}
);
layerId = "204D14C0-8C16-4EB3-B338-290668FF7982";
paths = (
{
closed = 1;
nodes = (
"293 712 OFFCURVE",
"250 672 OFFCURVE",
"214 558 CURVE SMOOTH",
"40 0 LINE",
"203 0 LINE",
"365 554 LINE SMOOTH",
"369 569 OFFCURVE",
"375 580 OFFCURVE",
"387 580 CURVE SMOOTH",
"397 580 OFFCURVE",
"405 570 OFFCURVE",
"409 555 CURVE SMOOTH",
"568 0 LINE",
"731 0 LINE",
"560 558 LINE SMOOTH",
"525 672 OFFCURVE",
"481 712 OFFCURVE",
"387 712 CURVE SMOOTH"
);
},
{
closed = 1;
nodes = (
"564 172 LINE",
"564 300 LINE",
"190 300 LINE",
"190 172 LINE"
);
}
);
width = 771;
}
);
note = A;
rightMetricsKey = "=|";
unicode = 0041;
},
{
color = 8;
glyphname = B;
lastChange = "2018-03-28 15:22:05 +0000";
layers = (
{
anchors = (
{
name = bottom;
position = "{343, 0}";
},
{
name = top;
position = "{343, 700}";
}
);
background = {
paths = (
{
closed = 1;
nodes = (
"417 365 LINE",
"523 372 OFFCURVE",
"574 452 OFFCURVE",
"574 529 CURVE SMOOTH",
"574 623 OFFCURVE",
"506 700 OFFCURVE",
"401 700 CURVE SMOOTH",
"100 700 LINE",
"100 0 LINE",
"385 0 LINE SMOOTH",
"516 0 OFFCURVE",
"595 74 OFFCURVE",
"595 192 CURVE SMOOTH",
"595 315 OFFCURVE",
"506 370 OFFCURVE",
"417 379 CURVE"
);
},
{
closed = 1;
nodes = (
"132 672 LINE",
"393 672 LINE SMOOTH",
"484 672 OFFCURVE",
"542 617 OFFCURVE",
"542 529 CURVE SMOOTH",
"542 442 OFFCURVE",
"477 386 OFFCURVE",
"393 386 CURVE SMOOTH",
"125 386 LINE",
"125 356 LINE",
"375 356 LINE SMOOTH",
"483 356 OFFCURVE",
"563 304 OFFCURVE",
"563 192 CURVE SMOOTH",
"563 87 OFFCURVE",
"496 28 OFFCURVE",
"375 28 CURVE SMOOTH",
"132 28 LINE"
);
}
);
};
guideLines = (
{
angle = 90;
position = "{604, 436}";
}
);
layerId = "0B1DFD06-3317-40CA-B510-4969A0718C16";
paths = (
{
closed = 1;
nodes = (
"385 0 LINE SMOOTH",
"516 0 OFFCURVE",
"595 74 OFFCURVE",
"595 192 CURVE SMOOTH",
"595 296.393 OFFCURVE",
"530.891 351.803 OFFCURVE",
"457.083 371.681 CURVE",
"535.889 393.633 OFFCURVE",
"574 462.437 OFFCURVE",
"574 529 CURVE SMOOTH",
"574 623 OFFCURVE",
"506 700 OFFCURVE",
"401 700 CURVE SMOOTH",
"100 700 LINE",
"100 0 LINE"
);
},
{
closed = 1;
nodes = (
"132 356 LINE",
"375 356 LINE SMOOTH",
"483 356 OFFCURVE",
"563 304 OFFCURVE",
"563 192 CURVE SMOOTH",
"563 87 OFFCURVE",
"496 28 OFFCURVE",
"375 28 CURVE SMOOTH",
"132 28 LINE"
);
},
{
closed = 1;
nodes = (
"132 672 LINE",
"393 672 LINE SMOOTH",
"484 672 OFFCURVE",
"542 617 OFFCURVE",
"542 529 CURVE SMOOTH",
"542 442 OFFCURVE",
"477 386 OFFCURVE",
"393 386 CURVE SMOOTH",
"132 386 LINE"
);
}
);
width = 685;
},
{
anchors = (
{
name = bottom;
position = "{343, 0}";
},
{
name = top;
position = "{343, 700}";
}
);
background = {
paths = (
{
closed = 1;
nodes = (
"422 0 LINE SMOOTH",
"565 0 OFFCURVE",
"655 73 OFFCURVE",
"655 192 CURVE SMOOTH",
"655 309 OFFCURVE",
"565 361 OFFCURVE",
"474 369 CURVE",
"474 355 LINE",
"583 361 OFFCURVE",
"634 437 OFFCURVE",
"634 510 CURVE SMOOTH",
"634 633 OFFCURVE",
"554 700 OFFCURVE",
"407 700 CURVE SMOOTH",
"80 700 LINE",
"80 0 LINE"
);
},
{
closed = 1;
nodes = (
"242 680 LINE",
"197 572 LINE",
"393 572 LINE SMOOTH",
"444 572 OFFCURVE",
"472 544 OFFCURVE",
"472 494 CURVE SMOOTH",
"472 444 OFFCURVE",
"444 416 OFFCURVE",
"393 416 CURVE SMOOTH",
"235 416 LINE",
"235 288 LINE",
"385 288 LINE SMOOTH",
"458 288 OFFCURVE",
"493 262 OFFCURVE",
"493 208 CURVE SMOOTH",
"493 154 OFFCURVE",
"458 128 OFFCURVE",
"385 128 CURVE SMOOTH",
"197 128 LINE",
"242 66 LINE"
);
}
);
};
layerId = "204D14C0-8C16-4EB3-B338-290668FF7982";
paths = (
{
closed = 1;
nodes = (
"424 0 LINE SMOOTH",
"567 0 OFFCURVE",
"657 73 OFFCURVE",
"657 192 CURVE SMOOTH",
"657 290 OFFCURVE",
"594 343 OFFCURVE",
"519 362 CURVE",
"599 383 OFFCURVE",
"636 447 OFFCURVE",
"636 510 CURVE SMOOTH",
"636 633 OFFCURVE",
"556 700 OFFCURVE",
"409 700 CURVE SMOOTH",
"80 700 LINE",
"80 0 LINE"
);
},
{
closed = 1;
nodes = (
"242 288 LINE",
"394 288 LINE SMOOTH",
"462 288 OFFCURVE",
"495 262 OFFCURVE",
"495 208 CURVE SMOOTH",
"495 154 OFFCURVE",
"462 128 OFFCURVE",
"394 128 CURVE SMOOTH",
"242 128 LINE"
);
},
{
closed = 1;
nodes = (
"242 572 LINE",
"398 572 LINE SMOOTH",
"443 572 OFFCURVE",
"474 542 OFFCURVE",
"474 494 CURVE SMOOTH",
"474 446 OFFCURVE",
"443 416 OFFCURVE",
"398 416 CURVE SMOOTH",
"242 416 LINE"
);
}
);
width = 735;
}
);
leftMetricsKey = H;
note = B;
unicode = 0042;
},
{
color = 8;
glyphname = C;
lastChange = "2018-04-02 03:40:21 +0000";
layers = (
{
anchors = (
{
name = bottom;
position = "{343, 0}";
},
{
name = top;
position = "{343, 700}";
}
);
guideLines = (
{
angle = 90;
position = "{583, 403}";
}
);
layerId = "0B1DFD06-3317-40CA-B510-4969A0718C16";
paths = (
{
closed = 1;
nodes = (
"457 -10 OFFCURVE",
"532 21 OFFCURVE",
"589 93 CURVE",
"567 114 LINE",
"521 53 OFFCURVE",
"452 18 OFFCURVE",
"343 18 CURVE SMOOTH",
"189 18 OFFCURVE",
"102 99 OFFCURVE",
"102 244 CURVE SMOOTH",
"102 456 LINE SMOOTH",
"102 601 OFFCURVE",
"189 682 OFFCURVE",
"343 682 CURVE SMOOTH",
"446 682 OFFCURVE",
"513 647 OFFCURVE",
"560 579 CURVE",
"583 599 LINE",
"530 671 OFFCURVE",
"458 710 OFFCURVE",
"343 710 CURVE SMOOTH",
"168 710 OFFCURVE",
"70 619 OFFCURVE",
"70 456 CURVE SMOOTH",
"70 244 LINE SMOOTH",
"70 81 OFFCURVE",
"168 -10 OFFCURVE",
"343 -10 CURVE SMOOTH"
);
}
);
width = 640;
},
{
anchors = (
{
name = bottom;
position = "{347, 0}";
},
{
name = top;
position = "{347, 700}";
}
);
background = {
paths = (
{
closed = 1;
nodes = (
"486 -15 OFFCURVE",
"573 27 OFFCURVE",
"634 108 CURVE",
"552 189 LINE",
"505 139 OFFCURVE",
"448 113 OFFCURVE",
"385 113 CURVE SMOOTH",
"275 113 OFFCURVE",
"217 163 OFFCURVE",
"217 259 CURVE SMOOTH",
"217 436 LINE SMOOTH",
"217 532 OFFCURVE",
"275 582 OFFCURVE",
"385 582 CURVE SMOOTH",
"448 582 OFFCURVE",
"505 556 OFFCURVE",
"552 506 CURVE",
"634 587 LINE",
"571 668 OFFCURVE",
"475 710 OFFCURVE",
"377 710 CURVE SMOOTH",
"175 710 OFFCURVE",
"55 608 OFFCURVE",
"55 436 CURVE SMOOTH",
"55 259 LINE SMOOTH",
"55 79 OFFCURVE",
"167 -15 OFFCURVE",
"383 -15 CURVE SMOOTH"
);
}
);
};
guideLines = (
{
angle = 90;
position = "{636, 372}";
}
);
layerId = "204D14C0-8C16-4EB3-B338-290668FF7982";
paths = (
{
closed = 1;
nodes = (
"496 -12 OFFCURVE",
"591 27 OFFCURVE",
"643 99 CURVE",
"544 196 LINE",
"497 144 OFFCURVE",
"453 116 OFFCURVE",
"372 116 CURVE SMOOTH",
"269 116 OFFCURVE",
"217 170 OFFCURVE",
"217 272 CURVE SMOOTH",
"217 428 LINE SMOOTH",
"217 530 OFFCURVE",
"269 584 OFFCURVE",
"372 584 CURVE SMOOTH",
"446 584 OFFCURVE",
"485 557 OFFCURVE",
"532 508 CURVE",
"638 595 LINE",
"593 665 OFFCURVE",
"493 712 OFFCURVE",
"372 712 CURVE SMOOTH",
"164 712 OFFCURVE",
"55 615 OFFCURVE",
"55 428 CURVE SMOOTH",
"55 272 LINE SMOOTH",
"55 85 OFFCURVE",
"164 -12 OFFCURVE",
"372 -12 CURVE SMOOTH"
);
}
);
width = 694;
}
);
leftMetricsKey = O;
note = C;
unicode = 0043;
},
{
color = 8;
glyphname = D;
lastChange = "2018-03-29 11:09:32 +0000";
layers = (
{
anchors = (
{
name = bottom;
position = "{349, 0}";
},
{
name = center;
position = "{349, 350}";
},
{
name = top;
position = "{349, 700}";
}
);
layerId = "0B1DFD06-3317-40CA-B510-4969A0718C16";
paths = (
{
closed = 1;
nodes = (
"342 0 LINE SMOOTH",
"551 0 OFFCURVE",
"628 91 OFFCURVE",
"628 350 CURVE SMOOTH",
"628 608 OFFCURVE",
"551 700 OFFCURVE",
"342 700 CURVE SMOOTH",
"100 700 LINE",
"100 0 LINE"
);
},
{
closed = 1;
nodes = (
"132 672 LINE",
"342 672 LINE SMOOTH",
"529 672 OFFCURVE",
"596 585 OFFCURVE",
"596 350 CURVE SMOOTH",
"596 113 OFFCURVE",
"530 28 OFFCURVE",
"342 28 CURVE SMOOTH",
"132 28 LINE"
);
}
);
width = 698;
},
{
anchors = (
{
name = bottom;
position = "{374, 0}";
},
{
name = center;
position = "{374, 350}";
},
{
name = top;
position = "{374, 700}";
}
);
layerId = "204D14C0-8C16-4EB3-B338-290668FF7982";
paths = (
{
closed = 1;
nodes = (
"331 0 LINE SMOOTH",
"589 0 OFFCURVE",
"677 90 OFFCURVE",
"677 350 CURVE SMOOTH",
"677 610 OFFCURVE",
"589 700 OFFCURVE",
"331 700 CURVE SMOOTH",
"80 700 LINE",
"80 0 LINE"
);
},
{
closed = 1;
nodes = (
"242 572 LINE",
"331 572 LINE SMOOTH",
"468 572 OFFCURVE",
"515 515 OFFCURVE",
"515 350 CURVE SMOOTH",
"515 185 OFFCURVE",
"468 128 OFFCURVE",
"331 128 CURVE SMOOTH",
"242 128 LINE"
);
}
);
width = 732;
}
);
leftMetricsKey = H;
note = D;
rightMetricsKey = O;
unicode = 0044;
},
{
color = 8;
glyphname = E;
lastChange = "2018-03-28 15:22:05 +0000";
layers = (
{
anchors = (
{
name = bottom;
position = "{293, 0}";
},
{
name = ogonek;
position = "{526, 10}";
},
{
name = top;
position = "{293, 700}";
},
{
name = topleft;
position = "{20, 700}";
}
);
layerId = "0B1DFD06-3317-40CA-B510-4969A0718C16";
paths = (
{
closed = 1;
nodes = (
"540 0 LINE",
"540 28 LINE",
"286 28 LINE SMOOTH",
"158 28 OFFCURVE",
"100 83 OFFCURVE",
"100 204 CURVE SMOOTH",
"100 337 LINE",
"477 337 LINE",
"477 365 LINE",
"100 365 LINE",
"100 496 LINE SMOOTH",
"100 617 OFFCURVE",
"158 672 OFFCURVE",
"286 672 CURVE SMOOTH",
"531 672 LINE",
"531 700 LINE",
"286 700 LINE SMOOTH",
"124 700 OFFCURVE",
"68 621 OFFCURVE",
"68 496 CURVE SMOOTH",
"68 204 LINE SMOOTH",
"68 79 OFFCURVE",
"124 0 OFFCURVE",
"286 0 CURVE SMOOTH"
);
}
);
width = 585;
},
{
anchors = (
{
name = bottom;
position = "{319, 0}";
},
{
name = ogonek;
position = "{574, 10}";
},
{
name = top;
position = "{319, 700}";
},
{
name = topleft;
position = "{20, 700}";
}
);
background = {
paths = (
{
closed = 1;
nodes = (
"605 0 LINE",
"605 128 LINE",
"341 128 LINE SMOOTH",
"254 128 OFFCURVE",
"215 157 OFFCURVE",
"215 221 CURVE SMOOTH",
"215 294 LINE",
"201 287 LINE",
"542 287 LINE",
"542 415 LINE",
"203 415 LINE",
"215 403 LINE",
"215 479 LINE SMOOTH",
"215 543 OFFCURVE",
"254 572 OFFCURVE",
"341 572 CURVE SMOOTH",
"596 572 LINE",
"596 700 LINE",
"341 700 LINE SMOOTH",
"127 700 OFFCURVE",
"53 614 OFFCURVE",
"53 479 CURVE SMOOTH",
"53 221 LINE SMOOTH",
"53 86 OFFCURVE",
"127 0 OFFCURVE",
"341 0 CURVE SMOOTH"
);
}
);
};
layerId = "204D14C0-8C16-4EB3-B338-290668FF7982";
paths = (
{
closed = 1;
nodes = (
"588 0 LINE",
"588 128 LINE",
"302 128 LINE SMOOTH",
"242 128 OFFCURVE",
"215 157 OFFCURVE",
"215 221 CURVE SMOOTH",
"215 287 LINE",
"542 287 LINE",
"542 415 LINE",
"215 415 LINE",
"215 479 LINE SMOOTH",
"215 543 OFFCURVE",
"242 572 OFFCURVE",
"302 572 CURVE SMOOTH",
"586 572 LINE",
"586 700 LINE",
"302 700 LINE SMOOTH",
"117 700 OFFCURVE",
"53 614 OFFCURVE",
"53 479 CURVE SMOOTH",
"53 221 LINE SMOOTH",
"53 86 OFFCURVE",
"117 0 OFFCURVE",
"302 0 CURVE SMOOTH"
);
}
);
width = 638;
}
);
note = E;
unicode = 0045;
},
{
color = 8;
glyphname = F;
lastChange = "2018-03-28 15:22:05 +0000";
layers = (
{
anchors = (
{
name = bottom;
position = "{287, 0}";
},
{
name = top;
position = "{287, 700}";
}
);
layerId = "0B1DFD06-3317-40CA-B510-4969A0718C16";
paths = (
{
closed = 1;
nodes = (
"107 0 LINE",
"107 315 LINE",
"484 315 LINE",
"484 343 LINE",
"107 343 LINE",
"107 496 LINE SMOOTH",
"107 617 OFFCURVE",
"165 672 OFFCURVE",
"293 672 CURVE SMOOTH",
"518 672 LINE",
"518 700 LINE",
"293 700 LINE SMOOTH",
"131 700 OFFCURVE",
"75 621 OFFCURVE",
"75 496 CURVE SMOOTH",
"75 0 LINE"
);
}
);
width = 573;
},
{
anchors = (
{
name = bottom;
position = "{317, 0}";
},
{
name = top;
position = "{317, 700}";
}
);
background = {
paths = (
{
closed = 1;
nodes = (
"237 0 LINE",
"237 265 LINE",
"524 265 LINE",
"524 393 LINE",
"237 393 LINE",
"237 505 LINE SMOOTH",
"237 552 OFFCURVE",
"251 572 OFFCURVE",
"293 572 CURVE SMOOTH",
"578 572 LINE",
"578 700 LINE",
"293 700 LINE SMOOTH",
"131 700 OFFCURVE",
"75 621 OFFCURVE",
"75 496 CURVE SMOOTH",
"75 0 LINE"
);
}
);
};
layerId = "204D14C0-8C16-4EB3-B338-290668FF7982";
paths = (
{
closed = 1;
nodes = (
"237 0 LINE",
"237 265 LINE",
"524 265 LINE",
"524 393 LINE",
"237 393 LINE",
"237 505 LINE SMOOTH",
"237 552 OFFCURVE",
"254 572 OFFCURVE",
"303 572 CURVE SMOOTH",
"578 572 LINE",
"578 700 LINE",
"303 700 LINE SMOOTH",
"134 700 OFFCURVE",
"75 621 OFFCURVE",
"75 496 CURVE SMOOTH",
"75 0 LINE"
);
}
);
width = 633;
}
);
note = F;
unicode = 0046;
},
{
color = 8;
glyphname = G;
lastChange = "2018-03-30 00:36:14 +0000";
layers = (
{
anchors = (
{
name = bottom;
position = "{334, 0}";
},
{
name = top;
position = "{334, 700}";
}
);
background = {
paths = (
{
closed = 1;
nodes = (
"486 -10 OFFCURVE",
"600 68 OFFCURVE",
"600 213 CURVE SMOOTH",
"600 251 LINE SMOOTH",
"600 341 OFFCURVE",
"549 388 OFFCURVE",
"456 388 CURVE SMOOTH",
"333 388 LINE",
"333 361 LINE",
"456 361 LINE SMOOTH",
"515 361 OFFCURVE",
"569 337 OFFCURVE",
"569 251 CURVE SMOOTH",
"569 213 LINE SMOOTH",
"569 86 OFFCURVE",
"478 18 OFFCURVE",
"335 18 CURVE SMOOTH",
"186 18 OFFCURVE",
"102 99 OFFCURVE",
"102 244 CURVE SMOOTH",
"102 456 LINE SMOOTH",
"102 601 OFFCURVE",
"186 682 OFFCURVE",
"335 682 CURVE SMOOTH",
"438 682 OFFCURVE",
"505 647 OFFCURVE",
"552 579 CURVE",
"575 599 LINE",
"522 671 OFFCURVE",
"450 710 OFFCURVE",
"335 710 CURVE SMOOTH",
"165 710 OFFCURVE",
"70 619 OFFCURVE",
"70 456 CURVE SMOOTH",
"70 244 LINE SMOOTH",
"70 81 OFFCURVE",
"165 -10 OFFCURVE",
"335 -10 CURVE SMOOTH"
);
}
);
};
layerId = "0B1DFD06-3317-40CA-B510-4969A0718C16";
paths = (
{
closed = 1;
nodes = (
"497 -10 OFFCURVE",
"600 59 OFFCURVE",
"600 168 CURVE SMOOTH",
"600 251 LINE SMOOTH",
"600 341 OFFCURVE",
"549 388 OFFCURVE",
"456 388 CURVE SMOOTH",
"333 388 LINE",
"333 361 LINE",
"456 361 LINE SMOOTH",
"515 361 OFFCURVE",
"569 337 OFFCURVE",
"569 251 CURVE SMOOTH",
"569 168 LINE SMOOTH",
"569 76 OFFCURVE",
"478 18 OFFCURVE",
"335 18 CURVE SMOOTH",
"186 18 OFFCURVE",
"102 99 OFFCURVE",
"102 244 CURVE SMOOTH",
"102 456 LINE SMOOTH",
"102 601 OFFCURVE",
"186 682 OFFCURVE",
"335 682 CURVE SMOOTH",
"438 682 OFFCURVE",
"505 647 OFFCURVE",
"552 579 CURVE",
"575 599 LINE",
"522 671 OFFCURVE",
"450 710 OFFCURVE",
"335 710 CURVE SMOOTH",
"165 710 OFFCURVE",
"70 619 OFFCURVE",
"70 456 CURVE SMOOTH",
"70 244 LINE SMOOTH",
"70 81 OFFCURVE",
"165 -10 OFFCURVE",
"335 -10 CURVE SMOOTH"
);
}
);
width = 668;
},
{
anchors = (
{
name = bottom;
position = "{353, 0}";
},
{
name = top;
position = "{353, 700}";
}
);
background = {
paths = (
{
closed = 1;
nodes = (
"642 610 LINE",
"571 681 OFFCURVE",
"475 710 OFFCURVE",
"373 710 CURVE SMOOTH",
"164 710 OFFCURVE",
"55 613 OFFCURVE",
"55 426 CURVE SMOOTH",
"55 284 LINE SMOOTH",
"55 91 OFFCURVE",
"160 -10 OFFCURVE",
"362 -10 CURVE SMOOTH",
"546 -10 OFFCURVE",
"655 68 OFFCURVE",
"655 201 CURVE SMOOTH",
"655 251 LINE SMOOTH",
"655 348 OFFCURVE",
"603 393 OFFCURVE",
"491 393 CURVE SMOOTH",
"337 393 LINE",
"337 263 LINE",
"431 263 LINE SMOOTH",
"474 263 OFFCURVE",
"496 249 OFFCURVE",
"496 221 CURVE SMOOTH",
"496 192 LINE SMOOTH",
"496 147 OFFCURVE",
"453 120 OFFCURVE",
"380 120 CURVE SMOOTH",
"273 120 OFFCURVE",
"217 176 OFFCURVE",
"217 284 CURVE SMOOTH",
"217 426 LINE SMOOTH",
"217 527 OFFCURVE",
"269 580 OFFCURVE",
"370 580 CURVE SMOOTH",
"441 580 OFFCURVE",
"507 557 OFFCURVE",
"563 514 CURVE"
);
}
);
};
layerId = "204D14C0-8C16-4EB3-B338-290668FF7982";
paths = (
{
closed = 1;
nodes = (
"546 -12 OFFCURVE",
"655 60 OFFCURVE",
"655 180 CURVE SMOOTH",
"655 241 LINE SMOOTH",
"655 345 OFFCURVE",
"603 393 OFFCURVE",
"491 393 CURVE SMOOTH",
"337 393 LINE",
"337 263 LINE",
"451 263 LINE SMOOTH",
"481 263 OFFCURVE",
"496 249 OFFCURVE",
"496 221 CURVE SMOOTH",
"496 190 LINE SMOOTH",
"496 142 OFFCURVE",
"453 116 OFFCURVE",
"372 116 CURVE SMOOTH",
"273 116 OFFCURVE",
"217 170 OFFCURVE",
"217 272 CURVE SMOOTH",
"217 428 LINE SMOOTH",
"217 530 OFFCURVE",
"266 584 OFFCURVE",
"372 584 CURVE SMOOTH",
"439 584 OFFCURVE",
"477 557 OFFCURVE",
"524 508 CURVE",
"630 595 LINE",
"585 665 OFFCURVE",
"486 712 OFFCURVE",
"372 712 CURVE SMOOTH",
"161 712 OFFCURVE",
"55 615 OFFCURVE",
"55 428 CURVE SMOOTH",
"55 272 LINE SMOOTH",
"55 86 OFFCURVE",
"160 -12 OFFCURVE",
"372 -12 CURVE SMOOTH"
);
}
);
width = 705;
}
);
leftMetricsKey = O;
note = G;
unicode = 0047;
},
{
color = 8;
glyphname = H;
lastChange = "2018-03-30 09:21:53 +0000";
layers = (
{
anchors = (
{
name = bottom;
position = "{358, 0}";
},
{
name = center;
position = "{358, 350}";
},
{
name = top;
position = "{358, 700}";
},
{
name = topleft;
position = "{20, 700}";
}
);
layerId = "0B1DFD06-3317-40CA-B510-4969A0718C16";
paths = (
{
closed = 1;
nodes = (
"132 0 LINE",
"132 337 LINE",
"584 337 LINE",
"584 0 LINE",
"616 0 LINE",
"616 700 LINE",
"584 700 LINE",
"584 365 LINE",
"132 365 LINE",
"132 700 LINE",
"100 700 LINE",
"100 0 LINE"
);
}
);
width = 716;
},
{
anchors = (
{
name = bottom;
position = "{378, 0}";
},
{
name = center;
position = "{378, 350}";
},
{
name = top;
position = "{378, 700}";
},
{
name = topleft;
position = "{20, 700}";
}
);
background = {
paths = (
{
closed = 1;
nodes = (
"13 394 OFFCURVE",
"52 351 OFFCURVE",
"114 341 CURVE",
"112 328 OFFCURVE",
"108 301 OFFCURVE",
"108 268 CURVE SMOOTH",
"108 0 LINE",
"600 0 LINE",
"600 557 LINE",
"438 557 LINE",
"438 115 LINE",
"270 115 LINE",
"270 448 LINE SMOOTH",
"270 520 OFFCURVE",
"222 565 OFFCURVE",
"142 565 CURVE SMOOTH",
"66 565 OFFCURVE",
"13 522 OFFCURVE",
"13 452 CURVE SMOOTH"
);
},
{
closed = 1;
nodes = (
"108 473 OFFCURVE",
"123 487 OFFCURVE",
"142 487 CURVE SMOOTH",
"162 487 OFFCURVE",
"176 473 OFFCURVE",
"176 452 CURVE SMOOTH",
"176 433 OFFCURVE",
"162 417 OFFCURVE",
"142 417 CURVE SMOOTH",
"123 417 OFFCURVE",
"108 433 OFFCURVE",
"108 452 CURVE SMOOTH"
);
},
{
closed = 1;
nodes = (
"241 0 LINE",
"241 700 LINE",
"65 700 LINE",
"65 0 LINE"
);
}
);
};
layerId = "204D14C0-8C16-4EB3-B338-290668FF7982";
paths = (
{
closed = 1;
nodes = (
"242 0 LINE",
"242 287 LINE",
"514 287 LINE",
"514 0 LINE",
"676 0 LINE",
"676 700 LINE",
"514 700 LINE",
"514 415 LINE",
"242 415 LINE",
"242 700 LINE",
"80 700 LINE",
"80 0 LINE"
);
}
);
width = 756;
}
);
note = H;
rightMetricsKey = "=|";
unicode = 0048;
},
{
color = 8;
glyphname = I;
lastChange = "2018-03-29 11:12:51 +0000";
layers = (
{
anchors = (
{
name = bottom;
position = "{116, 0}";
},
{
name = ogonek;
position = "{209, 10}";
},
{
name = top;
position = "{116, 700}";
},
{
name = topleft;
position = "{20, 700}";
}
);
background = {
paths = (
{
closed = 1;
nodes = (
"74 703 LINE",
"74 0 LINE",
"118 0 LINE",
"120 703 LINE"
);
}
);
};
layerId = "0B1DFD06-3317-40CA-B510-4969A0718C16";
paths = (
{
closed = 1;
nodes = (
"132 0 LINE",
"132 700 LINE",
"100 700 LINE",
"100 0 LINE"
);
}
);
width = 232;
},
{
anchors = (
{
name = bottom;
position = "{116, 0}";
},
{
name = ogonek;
position = "{209, 10}";
},
{
name = top;
position = "{116, 700}";
},
{
name = topleft;
position = "{20, 700}";
}
);
layerId = "204D14C0-8C16-4EB3-B338-290668FF7982";
paths = (
{
closed = 1;
nodes = (
"197 0 LINE",
"197 700 LINE",
"35 700 LINE",
"35 0 LINE"
);
}
);
width = 232;
}
);
note = I;
rightMetricsKey = "=|";
unicode = 0049;
},
{
color = 8;
glyphname = J;
lastChange = "2018-03-30 00:36:21 +0000";
layers = (
{
anchors = (
{
name = bottom;
position = "{255, 0}";
},
{
name = top;
position = "{416, 700}";
}
);
background = {
paths = (
{
closed = 1;
nodes = (
"382 -10 OFFCURVE",
"434 61 OFFCURVE",
"434 177 CURVE SMOOTH",
"434 700 LINE",
"400 700 LINE",
"400 177 LINE SMOOTH",
"400 76 OFFCURVE",
"355 20 OFFCURVE",
"275 20 CURVE SMOOTH",
"201 20 OFFCURVE",
"153 63 OFFCURVE",
"152 141 CURVE",
"118 141 LINE",
"118 44 OFFCURVE",
"172 -10 OFFCURVE",
"275 -10 CURVE SMOOTH"
);
}
);
};
layerId = "0B1DFD06-3317-40CA-B510-4969A0718C16";
paths = (
{
closed = 1;
nodes = (
"334 -10 OFFCURVE",
"432 39 OFFCURVE",
"432 179 CURVE SMOOTH",
"432 700 LINE",
"400 700 LINE",
"400 181 LINE SMOOTH",
"400 79 OFFCURVE",
"342 18 OFFCURVE",
"232 18 CURVE SMOOTH",
"155 18 OFFCURVE",
"104 44 OFFCURVE",
"67 90 CURVE",
"45 68 LINE",
"97 11 OFFCURVE",
"152 -10 OFFCURVE",
"232 -10 CURVE SMOOTH"
);
}
);
width = 510;
},
{
anchors = (
{
name = bottom;
position = "{299, 0}";
},
{
name = top;
position = "{481, 700}";
}
);
layerId = "204D14C0-8C16-4EB3-B338-290668FF7982";
paths = (
{
closed = 1;
nodes = (
"460 -12 OFFCURVE",
"562 82 OFFCURVE",
"562 262 CURVE SMOOTH",
"562 700 LINE",
"400 700 LINE",
"400 264 LINE SMOOTH",
"400 167 OFFCURVE",
"357 116 OFFCURVE",
"275 116 CURVE SMOOTH",
"221 116 OFFCURVE",
"170 136 OFFCURVE",
"113 179 CURVE",
"45 68 LINE",
"124 7 OFFCURVE",
"203 -12 OFFCURVE",
"279 -12 CURVE SMOOTH"
);
}
);
width = 597;
}
);
note = J;
unicode = 004A;
},
{
color = 8;
glyphname = K;
lastChange = "2018-03-29 11:14:43 +0000";
layers = (
{
anchors = (
{
name = bottom;
position = "{324, 0}";
},
{
name = top;
position = "{324, 700}";
}
);
background = {
paths = (
{
closed = 1;
nodes = (
"557 700 LINE",
"508 700 LINE",
"112 317 LINE",
"112 270 LINE"
);
},
{
closed = 1;
nodes = (
"132 0 LINE",
"132 700 LINE",
"100 700 LINE",
"100 0 LINE"
);
},
{
closed = 1;
nodes = (
"567 0 LINE",
"567 220 LINE SMOOTH",
"567 382 OFFCURVE",
"481 461 OFFCURVE",
"304 464 CURVE",
"276 434 LINE",
"450 434 OFFCURVE",
"533 374 OFFCURVE",
"533 220 CURVE SMOOTH",
"533 0 LINE"
);
},
{
closed = 1;
nodes = (
"616 700 LINE",
"572 700 LINE",
"116 272 LINE",
"111 225 LINE"
);
},
{
closed = 1;
nodes = (
"132 0 LINE",
"132 700 LINE",
"100 700 LINE",
"100 0 LINE"
);
},
{
closed = 1;
nodes = (
"616 0 LINE",
"522 263 LINE SMOOTH",
"488 357 OFFCURVE",
"455 423 OFFCURVE",
"295 426 CURVE",
"268 398 LINE",
"425 398 OFFCURVE",
"456 357 OFFCURVE",
"490 263 CURVE SMOOTH",
"584 0 LINE"
);
},
{
closed = 1;
nodes = (
"556 697 LINE",
"494 697 LINE",
"137 352 LINE",
"137 700 LINE",
"91 700 LINE",
"91 0 LINE",
"137 0 LINE",
"137 284 LINE",
"292 438 LINE",
"345 434 OFFCURVE",
"404 422 OFFCURVE",
"450 389 CURVE SMOOTH",
"495 357 OFFCURVE",
"524 304 OFFCURVE",
"523 220 CURVE SMOOTH",
"521 -1 LINE",
"567 -1 LINE",
"567 223 LINE SMOOTH",
"567 316 OFFCURVE",
"538 376 OFFCURVE",
"494 415 CURVE SMOOTH",
"450 454 OFFCURVE",
"392 469 OFFCURVE",
"330 475 CURVE"
);
}
);
};
layerId = "0B1DFD06-3317-40CA-B510-4969A0718C16";
paths = (
{
closed = 1;
nodes = (
"606 700 LINE",
"562 700 LINE",
"116 259 LINE",
"111 212 LINE"
);
},
{
closed = 1;
nodes = (
"132 0 LINE",
"132 700 LINE",
"100 700 LINE",
"100 0 LINE"
);
},
{
closed = 1;
nodes = (
"597 0 LINE",
"532 263 LINE SMOOTH",
"507 364 OFFCURVE",
"468 432 OFFCURVE",
"314 435 CURVE",
"287 407 LINE",
"438 407 OFFCURVE",
"475 365 OFFCURVE",
"500 263 CURVE SMOOTH",
"565 0 LINE"
);
}
);
width = 647;
},
{
anchors = (
{
name = bottom;
position = "{324, 0}";
},
{
name = top;
position = "{324, 700}";
}
);
background = {
paths = (
{
closed = 1;
nodes = (
"698 0 LINE",
"359 466 LINE",
"245 358 LINE",
"516 0 LINE"
);
}
);
};
layerId = "204D14C0-8C16-4EB3-B338-290668FF7982";
paths = (
{
closed = 1;
nodes = (
"156 107 LINE",
"691 700 LINE",
"497 700 LINE",
"156 312 LINE"
);
},
{
closed = 1;
nodes = (
"242 0 LINE",
"242 700 LINE",
"80 700 LINE",
"80 0 LINE"
);
},
{
closed = 1;
nodes = (
"697 0 LINE",
"647 224 LINE SMOOTH",
"611 386 OFFCURVE",
"546 431 OFFCURVE",
"384 444 CURVE",
"318 329 LINE",
"448 324 OFFCURVE",
"475 292 OFFCURVE",
"493 210 CURVE SMOOTH",
"539 0 LINE"
);
}
);
width = 746;
}
);
leftMetricsKey = H;
note = K;
unicode = 004B;
},
{
color = 8;
glyphname = L;
lastChange = "2018-03-29 11:16:20 +0000";
layers = (
{
anchors = (
{
name = bottom;
position = "{279, 0}";
},
{
name = center;
position = "{279, 350}";
},
{
name = top;
position = "{91, 700}";
},
{
name = topright;
position = "{538, 700}";
}
);
layerId = "0B1DFD06-3317-40CA-B510-4969A0718C16";
paths = (
{
closed = 1;
nodes = (
"75 204 LINE SMOOTH",
"75 79 OFFCURVE",
"131 0 OFFCURVE",
"293 0 CURVE SMOOTH",
"508 0 LINE",
"508 28 LINE",
"293 28 LINE SMOOTH",
"165 28 OFFCURVE",
"107 83 OFFCURVE",
"107 204 CURVE SMOOTH",
"107 700 LINE",
"75 700 LINE"
);
}
);
width = 558;
},
{
anchors = (
{
name = bottom;
position = "{291, 0}";
},
{
name = center;
position = "{291, 350}";
},
{
name = top;
position = "{291, 700}";
},
{
name = topright;
position = "{562, 700}";
}
);
layerId = "204D14C0-8C16-4EB3-B338-290668FF7982";
paths = (
{
closed = 1;
nodes = (
"65 204 LINE SMOOTH",
"65 64 OFFCURVE",
"134 0 OFFCURVE",
"283 0 CURVE SMOOTH",
"556 0 LINE",
"556 128 LINE",
"313 128 LINE SMOOTH",
"254 128 OFFCURVE",
"227 152 OFFCURVE",
"227 204 CURVE SMOOTH",
"227 700 LINE",
"65 700 LINE"
);
}
);
width = 582;
}
);
note = L;
unicode = 004C;
},
{
color = 8;
glyphname = M;
lastChange = "2018-03-28 15:22:05 +0000";
layers = (
{
anchors = (
{
name = bottom;
position = "{386, 0}";
},
{
name = top;
position = "{386, 700}";
}
);
background = {
paths = (
{
closed = 1;
nodes = (
"132 0 LINE",
"132 659 LINE",
"208 591 OFFCURVE",
"315 411 OFFCURVE",
"386 230 CURVE",
"457 411 OFFCURVE",
"564 591 OFFCURVE",
"640 659 CURVE",
"640 0 LINE",
"672 0 LINE",
"672 700 LINE",
"640 700 LINE",
"551 623 OFFCURVE",
"445 459 OFFCURVE",
"386 304 CURVE",
"327 459 OFFCURVE",
"221 623 OFFCURVE",
"132 700 CURVE",
"100 700 LINE",
"100 0 LINE"
);
}
);
};
layerId = "0B1DFD06-3317-40CA-B510-4969A0718C16";
paths = (
{
closed = 1;
nodes = (
"132 0 LINE",
"132 672 LINE",
"158 670 OFFCURVE",
"169 658 OFFCURVE",
"180 637 CURVE SMOOTH",
"406 209 LINE",
"632 637 LINE SMOOTH",
"643 658 OFFCURVE",
"654 670 OFFCURVE",
"680 672 CURVE",
"680 0 LINE",
"712 0 LINE",
"712 700 LINE",
"687 700 LINE SMOOTH",
"664 700 OFFCURVE",
"631 697 OFFCURVE",
"607 652 CURVE SMOOTH",
"406 273 LINE",
"205 652 LINE SMOOTH",
"182 696 OFFCURVE",
"148 700 OFFCURVE",
"125 700 CURVE SMOOTH",
"100 700 LINE",
"100 0 LINE"
);
}
);
width = 812;
},
{
anchors = (
{
name = bottom;
position = "{428, 0}";
},
{
name = top;
position = "{428, 700}";
}
);
layerId = "204D14C0-8C16-4EB3-B338-290668FF7982";
paths = (
{
closed = 1;
nodes = (
"227 0 LINE",
"227 554 LINE",
"244 553 OFFCURVE",
"254 534 OFFCURVE",
"271 503 CURVE SMOOTH",
"431 206 LINE",
"591 503 LINE SMOOTH",
"608 534 OFFCURVE",
"618 553 OFFCURVE",
"635 553 CURVE",
"635 0 LINE",
"782 0 LINE",
"782 700 LINE",
"680 700 LINE SMOOTH",
"569 700 OFFCURVE",
"537 657 OFFCURVE",
"479 540 CURVE SMOOTH",
"431 442.629 LINE",
"383 540 LINE SMOOTH",
"325 657 OFFCURVE",
"293 700 OFFCURVE",
"182 700 CURVE SMOOTH",
"80 700 LINE",
"80 0 LINE"
);
}
);
width = 862;
}
);
leftMetricsKey = H;
note = M;
rightMetricsKey = H;
unicode = 004D;
},
{
color = 8;
glyphname = N;
lastChange = "2018-04-02 04:58:42 +0000";
layers = (
{
anchors = (
{
name = bottom;
position = "{351, 0}";
},
{
name = top;
position = "{351, 700}";
}
);
background = {
paths = (
{
closed = 1;
nodes = (
"569 2 LINE SMOOTH",
"589 14 OFFCURVE",
"612 33 OFFCURVE",
"612 85 CURVE SMOOTH",
"612 700 LINE",
"580 700 LINE",
"580 85 LINE SMOOTH",
"580 61.546 OFFCURVE",
"579.045 44.777 OFFCURVE",
"558.468 30.96 CURVE",
"143 700 LINE",
"100 700 LINE",
"100 0 LINE",
"132 0 LINE",
"132 660.276 LINE",
"548 -10 LINE"
);
}
);
};
layerId = "0B1DFD06-3317-40CA-B510-4969A0718C16";
paths = (
{
closed = 1;
nodes = (
"132 0 LINE",
"132 660 LINE",
"532 0 LINE",
"556 0 LINE SMOOTH",
"587 0 OFFCURVE",
"616 11 OFFCURVE",
"616 69 CURVE SMOOTH",
"616 700 LINE",
"584 700 LINE",
"584 69 LINE SMOOTH",
"584 40 OFFCURVE",
"577 30 OFFCURVE",
"558 30 CURVE SMOOTH",
"550 30 LINE",
"550 30 LINE",
"143 700 LINE",
"100 700 LINE",
"100 0 LINE"
);
}
);
width = 702;
},
{
anchors = (
{
name = bottom;
position = "{371, 0}";
},
{
name = top;
position = "{378, 700}";
}
);
background = {
paths = (
{
closed = 1;
nodes = (
"529 10 LINE SMOOTH",
"639 59 OFFCURVE",
"672 114 OFFCURVE",
"672 249 CURVE SMOOTH",
"672 700 LINE",
"522 700 LINE",
"522 249 LINE SMOOTH",
"522 200 OFFCURVE",
"516 175 OFFCURVE",
"483 162 CURVE",
"546 136 LINE",
"243 700 LINE",
"80 700 LINE",
"80 0 LINE",
"230 0 LINE",
"230 417 LINE",
"473 -15 LINE"
);
}
);
};
layerId = "204D14C0-8C16-4EB3-B338-290668FF7982";
paths = (
{
closed = 1;
nodes = (
"232 0 LINE",
"232 447 LINE",
"465 0 LINE",
"557 0 LINE SMOOTH",
"643 0 OFFCURVE",
"676 49 OFFCURVE",
"676 135 CURVE SMOOTH",
"676 700 LINE",
"524 700 LINE",
"524 215 LINE SMOOTH",
"524 166 OFFCURVE",
"518 128 OFFCURVE",
"485 128 CURVE SMOOTH",
"464 128 LINE",
"553 108 LINE",
"243 700 LINE",
"80 700 LINE",
"80 0 LINE"
);
}
);
width = 754;
}
);
leftMetricsKey = H;
note = N;
unicode = 004E;
},
{
color = 8;
glyphname = O;
lastChange = "2018-03-30 10:33:06 +0000";
layers = (
{
anchors = (
{
name = bottom;
position = "{338, 0}";
},
{
name = center;
position = "{338, 350}";
},
{
name = ogonek;
position = "{608, 10}";
},
{
name = top;
position = "{338, 700}";
},
{
name = topleft;
position = "{20, 700}";
},
{
name = topright;
position = "{564, 700}";
}
);
layerId = "0B1DFD06-3317-40CA-B510-4969A0718C16";
paths = (
{
closed = 1;
nodes = (
"510 -10 OFFCURVE",
"606 81 OFFCURVE",
"606 244 CURVE SMOOTH",
"606 456 LINE SMOOTH",
"606 619 OFFCURVE",
"510 710 OFFCURVE",
"338 710 CURVE SMOOTH",
"166 710 OFFCURVE",
"70 619 OFFCURVE",
"70 456 CURVE SMOOTH",
"70 244 LINE SMOOTH",
"70 81 OFFCURVE",
"166 -10 OFFCURVE",
"338 -10 CURVE SMOOTH"
);
},
{
closed = 1;
nodes = (
"187 18 OFFCURVE",
"102 99 OFFCURVE",
"102 244 CURVE SMOOTH",
"102 456 LINE SMOOTH",
"102 601 OFFCURVE",
"187 682 OFFCURVE",
"338 682 CURVE SMOOTH",
"489 682 OFFCURVE",
"574 601 OFFCURVE",
"574 456 CURVE SMOOTH",
"574 244 LINE SMOOTH",
"574 99 OFFCURVE",
"489 18 OFFCURVE",
"338 18 CURVE SMOOTH"
);
}
);
width = 676;
},
{
anchors = (
{
name = bottom;
position = "{363, 0}";
},
{
name = center;
position = "{363, 350}";
},
{
name = ogonek;
position = "{653, 10}";
},
{
name = top;
position = "{363, 700}";
},
{
name = topleft;
position = "{60, 700}";
},
{
name = topright;
position = "{591, 700}";
}
);
background = {
paths = (
{
closed = 1;
nodes = (
"570 -12 OFFCURVE",
"671 80 OFFCURVE",
"671 267 CURVE SMOOTH",
"671 433 LINE SMOOTH",
"671 620 OFFCURVE",
"570 712 OFFCURVE",
"363 712 CURVE SMOOTH",
"156 712 OFFCURVE",
"55 620 OFFCURVE",
"55 433 CURVE SMOOTH",
"55 267 LINE SMOOTH",
"55 80 OFFCURVE",
"156 -12 OFFCURVE",
"363 -12 CURVE SMOOTH"
);
},
{
closed = 1;
nodes = (
"269 118 OFFCURVE",
"217 164 OFFCURVE",
"217 267 CURVE SMOOTH",
"217 436 LINE SMOOTH",
"217 537 OFFCURVE",
"269 582 OFFCURVE",
"363 582 CURVE SMOOTH",
"457 582 OFFCURVE",
"509 537 OFFCURVE",
"509 436 CURVE SMOOTH",
"509 267 LINE SMOOTH",
"509 164 OFFCURVE",
"457 118 OFFCURVE",
"363 118 CURVE SMOOTH"
);
}
);
};
layerId = "204D14C0-8C16-4EB3-B338-290668FF7982";
paths = (
{
closed = 1;
nodes = (
"570 -12 OFFCURVE",
"671 80 OFFCURVE",
"671 267 CURVE SMOOTH",
"671 435 LINE SMOOTH",
"671 620 OFFCURVE",
"570 712 OFFCURVE",
"363 712 CURVE SMOOTH",
"156 712 OFFCURVE",
"55 620 OFFCURVE",
"55 433 CURVE SMOOTH",
"55 267 LINE SMOOTH",
"55 80 OFFCURVE",
"156 -12 OFFCURVE",
"363 -12 CURVE SMOOTH"
);
},
{
closed = 1;
nodes = (
"269 116 OFFCURVE",
"217 163 OFFCURVE",
"217 267 CURVE SMOOTH",
"217 435 LINE SMOOTH",
"217 537 OFFCURVE",
"269 584 OFFCURVE",
"363 584 CURVE SMOOTH",
"457 584 OFFCURVE",
"509 537 OFFCURVE",
"509 433 CURVE SMOOTH",
"509 267 LINE SMOOTH",
"509 163 OFFCURVE",
"457 116 OFFCURVE",
"363 116 CURVE SMOOTH"
);
}
);
width = 726;
}
);
note = O;
rightMetricsKey = "=|";
unicode = 004F;
},
{
color = 8;
glyphname = P;
lastChange = "2018-04-02 05:20:56 +0000";
layers = (
{
anchors = (
{
name = bottom;
position = "{309, 0}";
},
{
name = top;
position = "{309, 700}";
}
);
layerId = "0B1DFD06-3317-40CA-B510-4969A0718C16";
paths = (
{
closed = 1;
nodes = (
"132 0 LINE",
"132 316 LINE",
"405 316 LINE SMOOTH",
"469 316 OFFCURVE",
"583 360 OFFCURVE",
"583 508 CURVE SMOOTH",
"583 656 OFFCURVE",
"469 700 OFFCURVE",
"405 700 CURVE SMOOTH",
"100 700 LINE",
"100 0 LINE"
);
},
{
closed = 1;
nodes = (
"132 670 LINE",
"393 670 LINE SMOOTH",
"494 670 OFFCURVE",
"551 607 OFFCURVE",
"551 508 CURVE SMOOTH",
"551 409 OFFCURVE",
"494 346 OFFCURVE",
"393 346 CURVE SMOOTH",
"132 346 LINE"
);
}
);
width = 618;
},
{
anchors = (
{
name = bottom;
position = "{333, 0}";
},
{
name = top;
position = "{333, 700}";
}
);
layerId = "204D14C0-8C16-4EB3-B338-290668FF7982";
paths = (
{
closed = 1;
nodes = (
"242 0 LINE",
"242 226 LINE",
"325 226 LINE SMOOTH",
"560 226 OFFCURVE",
"641 289 OFFCURVE",
"641 463 CURVE SMOOTH",
"641 641 OFFCURVE",
"563 700 OFFCURVE",
"338 700 CURVE SMOOTH",
"80 700 LINE",
"80 0 LINE"
);
},
{
closed = 1;
nodes = (
"242 572 LINE",
"332 572 LINE SMOOTH",
"441 572 OFFCURVE",
"479 543 OFFCURVE",
"479 463 CURVE SMOOTH",
"479 381 OFFCURVE",
"441 354 OFFCURVE",
"331 354 CURVE SMOOTH",
"242 354 LINE"
);
}
);
width = 666;
}
);
leftMetricsKey = H;
note = P;
unicode = 0050;
},
{
color = 8;
glyphname = Q;
lastChange = "2018-03-28 15:22:05 +0000";
layers = (
{
components = (
{
name = O;
}
);
layerId = "0B1DFD06-3317-40CA-B510-4969A0718C16";
paths = (
{
closed = 1;
nodes = (
"538 -81 LINE",
"458 -77 OFFCURVE",
"397 -47 OFFCURVE",
"367 2 CURVE",
"329 2 LINE",
"362 -69 OFFCURVE",
"430 -106 OFFCURVE",
"538 -111 CURVE"
);
}
);
width = 676;
},
{
components = (
{
name = O;
}
);
layerId = "204D14C0-8C16-4EB3-B338-290668FF7982";
paths = (
{
closed = 1;
nodes = (
"594 -45 LINE",
"521 -39 OFFCURVE",
"441 -21 OFFCURVE",
"424 22 CURVE",
"269 22 LINE",
"300 -91 OFFCURVE",
"403 -145 OFFCURVE",
"594 -149 CURVE"
);
}
);
width = 726;
}
);
leftMetricsKey = O;
note = Q;
rightMetricsKey = O;
unicode = 0051;
},
{
color = 8;
glyphname = R;
lastChange = "2018-03-28 15:22:05 +0000";
layers = (
{
anchors = (
{
name = bottom;
position = "{327, 0}";
},
{
name = top;
position = "{327, 700}";
}
);
background = {
paths = (
{
closed = 1;
nodes = (
"132 0 LINE",
"132 336 LINE",
"329 336 LINE SMOOTH",
"457 336 OFFCURVE",
"482 293 OFFCURVE",
"517 195 CURVE SMOOTH",
"587 0 LINE",
"621 0 LINE",
"551 195 LINE SMOOTH",
"517 289 OFFCURVE",
"498 345 OFFCURVE",
"372 358 CURVE",
"410 342 LINE",
"497 342 OFFCURVE",
"582 401 OFFCURVE",
"582 518 CURVE SMOOTH",
"582 659 OFFCURVE",
"472 700 OFFCURVE",
"410 700 CURVE SMOOTH",
"100 700 LINE",
"100 0 LINE"
);
},
{
closed = 1;
nodes = (
"132 672 LINE",
"394 672 LINE SMOOTH",
"485 672 OFFCURVE",
"550 624 OFFCURVE",
"550 518 CURVE SMOOTH",
"550 413 OFFCURVE",
"485 364 OFFCURVE",
"394 364 CURVE SMOOTH",
"132 364 LINE"
);
}
);
};
layerId = "0B1DFD06-3317-40CA-B510-4969A0718C16";
paths = (
{
closed = 1;
nodes = (
"132 0 LINE",
"132 336 LINE",
"329 336 LINE SMOOTH",
"457 336 OFFCURVE",
"491 295 OFFCURVE",
"517 195 CURVE SMOOTH",
"567 0 LINE",
"601 0 LINE",
"551 195 LINE SMOOTH",
"526 292 OFFCURVE",
"498 350 OFFCURVE",
"372 358 CURVE",
"410 342 LINE",
"497 342 OFFCURVE",
"582 401 OFFCURVE",
"582 518 CURVE SMOOTH",
"582 659 OFFCURVE",
"472 700 OFFCURVE",
"410 700 CURVE SMOOTH",
"100 700 LINE",
"100 0 LINE"
);
},
{
closed = 1;
nodes = (
"132 672 LINE",
"394 672 LINE SMOOTH",
"485 672 OFFCURVE",
"550 624 OFFCURVE",
"550 518 CURVE SMOOTH",
"550 413 OFFCURVE",
"485 364 OFFCURVE",
"394 364 CURVE SMOOTH",
"132 364 LINE"
);
}
);
width = 653;
},
{
anchors = (
{
name = bottom;
position = "{342, 0}";
},
{
name = top;
position = "{342, 700}";
}
);
layerId = "204D14C0-8C16-4EB3-B338-290668FF7982";
paths = (
{
closed = 1;
nodes = (
"242 0 LINE",
"242 250 LINE",
"363 250 LINE SMOOTH",
"427 250 OFFCURVE",
"442 218 OFFCURVE",
"457 155 CURVE SMOOTH",
"495 0 LINE",
"663 0 LINE",
"631 131 LINE SMOOTH",
"601 255 OFFCURVE",
"580 312 OFFCURVE",
"460 313 CURVE",
"460 300 LINE",
"581 300 OFFCURVE",
"644 363 OFFCURVE",
"644 485 CURVE SMOOTH",
"644 632 OFFCURVE",
"562 700 OFFCURVE",
"384 700 CURVE SMOOTH",
"80 700 LINE",
"80 0 LINE"
);
},
{
closed = 1;
nodes = (
"242 572 LINE",
"368 572 LINE SMOOTH",
"449 572 OFFCURVE",
"482 544 OFFCURVE",
"482 473 CURVE SMOOTH",
"482 402 OFFCURVE",
"449 374 OFFCURVE",
"368 374 CURVE SMOOTH",
"242 374 LINE"
);
}
);
width = 683;
}
);
leftMetricsKey = H;
note = R;
unicode = 0052;
},
{
color = 8;
glyphname = S;
lastChange = "2018-03-30 00:36:43 +0000";
layers = (
{
anchors = (
{
name = bottom;
position = "{309, 0}";
},
{
name = top;
position = "{309, 700}";
}
);
layerId = "0B1DFD06-3317-40CA-B510-4969A0718C16";
paths = (
{
closed = 1;
nodes = (
"455 -10 OFFCURVE",
"555 53 OFFCURVE",
"555 181 CURVE SMOOTH",
"555 332 OFFCURVE",
"420 349 OFFCURVE",
"303 370 CURVE SMOOTH",
"199 389 OFFCURVE",
"101 421 OFFCURVE",
"101 525 CURVE SMOOTH",
"101 623 OFFCURVE",
"190 682 OFFCURVE",
"298 682 CURVE SMOOTH",
"381 682 OFFCURVE",
"466 659 OFFCURVE",
"508 582 CURVE",
"532 601 LINE",
"486 677 OFFCURVE",
"403 710 OFFCURVE",
"298 710 CURVE SMOOTH",
"180 710 OFFCURVE",
"69 650 OFFCURVE",
"69 528 CURVE SMOOTH",
"69 399 OFFCURVE",
"167 364 OFFCURVE",
"278 343 CURVE SMOOTH",
"395 321 OFFCURVE",
"523 305 OFFCURVE",
"523 184 CURVE SMOOTH",
"523 68 OFFCURVE",
"424 18 OFFCURVE",
"298 18 CURVE SMOOTH",
"171 18 OFFCURVE",
"119 61 OFFCURVE",
"72 124 CURVE",
"49 103 LINE",
"97 42 OFFCURVE",
"161 -10 OFFCURVE",
"298 -10 CURVE SMOOTH"
);
}
);
width = 617;
},
{
anchors = (
{
name = bottom;
position = "{309, 0}";
},
{
name = top;
position = "{309, 700}";
}
);
layerId = "204D14C0-8C16-4EB3-B338-290668FF7982";
paths = (
{
closed = 1;
nodes = (
"486 -12 OFFCURVE",
"580 55 OFFCURVE",
"580 194 CURVE SMOOTH",
"580 354 OFFCURVE",
"458 383 OFFCURVE",
"324 412 CURVE SMOOTH",
"274 423 OFFCURVE",
"203 442 OFFCURVE",
"203 505 CURVE SMOOTH",
"203 556 OFFCURVE",
"238 584 OFFCURVE",
"307 584 CURVE SMOOTH",
"378 584 OFFCURVE",
"409 557 OFFCURVE",
"460 508 CURVE",
"566 595 LINE",
"519 665 OFFCURVE",
"451 712 OFFCURVE",
"307 712 CURVE SMOOTH",
"145 712 OFFCURVE",
"41 633 OFFCURVE",
"41 508 CURVE SMOOTH",
"41 390 OFFCURVE",
"106 320 OFFCURVE",
"239 294 CURVE SMOOTH",
"381 266 OFFCURVE",
"418 244 OFFCURVE",
"418 195 CURVE SMOOTH",
"418 140 OFFCURVE",
"381 116 OFFCURVE",
"293 116 CURVE SMOOTH",
"209 116 OFFCURVE",
"172 142 OFFCURVE",
"119 207 CURVE",
"14 116 LINE",
"72 38 OFFCURVE",
"122 -12 OFFCURVE",
"293 -12 CURVE SMOOTH"
);
}
);
width = 617;
}
);
note = S;
unicode = 0053;
},
{
color = 8;
glyphname = T;
lastChange = "2018-04-03 12:50:32 +0000";
layers = (
{
anchors = (
{
name = bottom;
position = "{287, 0}";
},
{
name = center;
position = "{287, 350}";
},
{
name = top;
position = "{287, 700}";
}
);
layerId = "0B1DFD06-3317-40CA-B510-4969A0718C16";
paths = (
{
closed = 1;
nodes = (
"303 0 LINE",
"303 672 LINE",
"539 672 LINE",
"539 700 LINE",
"35 700 LINE",
"35 672 LINE",
"271 672 LINE",
"271 0 LINE"
);
}
);
width = 574;
},
{
anchors = (
{
name = bottom;
position = "{332, 0}";
},
{
name = center;
position = "{332, 350}";
},
{
name = top;
position = "{332, 700}";
}
);
layerId = "204D14C0-8C16-4EB3-B338-290668FF7982";
paths = (
{
closed = 1;
nodes = (
"413 0 LINE",
"413 572 LINE",
"624 572 LINE",
"624 700 LINE",
"40 700 LINE",
"40 572 LINE",
"251 572 LINE",
"251 0 LINE"
);
}
);
width = 664;
}
);
note = T;
rightMetricsKey = "=|";
unicode = 0054;
},
{
color = 8;
glyphname = U;
lastChange = "2018-03-28 15:22:05 +0000";
layers = (
{
anchors = (
{
name = bottom;
position = "{334, 0}";
},
{
name = ogonek;
position = "{600, 10}";
},
{
name = top;
position = "{334, 700}";
},
{
name = topright;
position = "{591, 700}";
}
);
layerId = "0B1DFD06-3317-40CA-B510-4969A0718C16";
paths = (
{
closed = 1;
nodes = (
"490 -10 OFFCURVE",
"591 63 OFFCURVE",
"591 179 CURVE SMOOTH",
"591 700 LINE",
"559 700 LINE",
"559 179 LINE SMOOTH",
"559 81 OFFCURVE",
"471 18 OFFCURVE",
"333 18 CURVE SMOOTH",
"195 18 OFFCURVE",
"107 81 OFFCURVE",
"107 179 CURVE SMOOTH",
"107 700 LINE",
"75 700 LINE",
"75 179 LINE SMOOTH",
"75 63 OFFCURVE",
"175 -10 OFFCURVE",
"333 -10 CURVE SMOOTH"
);
}
);
width = 666;
},
{
anchors = (
{
name = bottom;
position = "{358, 0}";
},
{
name = ogonek;
position = "{644, 10}";
},
{
name = top;
position = "{358, 700}";
},
{
name = topright;
position = "{646, 700}";
}
);
background = {
paths = (
{
closed = 1;
nodes = (
"520 -10 OFFCURVE",
"621 63 OFFCURVE",
"621 179 CURVE SMOOTH",
"621 700 LINE",
"589 700 LINE",
"589 179 LINE SMOOTH",
"589 81 OFFCURVE",
"501 18 OFFCURVE",
"363 18 CURVE SMOOTH",
"225 18 OFFCURVE",
"137 81 OFFCURVE",
"137 179 CURVE SMOOTH",
"137 700 LINE",
"105 700 LINE",
"105 179 LINE SMOOTH",
"105 63 OFFCURVE",
"205 -10 OFFCURVE",
"363 -10 CURVE SMOOTH"
);
}
);
};
layerId = "204D14C0-8C16-4EB3-B338-290668FF7982";
paths = (
{
closed = 1;
nodes = (
"560 -15 OFFCURVE",
"656 77 OFFCURVE",
"656 224 CURVE SMOOTH",
"656 700 LINE",
"494 700 LINE",
"494 224 LINE SMOOTH",
"494 149 OFFCURVE",
"451 113 OFFCURVE",
"363 113 CURVE SMOOTH",
"268 113 OFFCURVE",
"222 149 OFFCURVE",
"222 224 CURVE SMOOTH",
"222 700 LINE",
"60 700 LINE",
"60 224 LINE SMOOTH",
"60 77 OFFCURVE",
"160 -15 OFFCURVE",
"363 -15 CURVE SMOOTH"
);
}
);
width = 716;
}
);
note = U;
rightMetricsKey = "=|";
unicode = 0055;
},
{
color = 8;
glyphname = V;
lastChange = "2018-03-30 00:37:23 +0000";
layers = (
{
anchors = (
{
name = bottom;
position = "{315, 0}";
},
{
name = top;
position = "{315, 700}";
}
);
layerId = "0B1DFD06-3317-40CA-B510-4969A0718C16";
paths = (
{
closed = 1;
nodes = (
"364 -10 OFFCURVE",
"386 24 OFFCURVE",
"409 99 CURVE SMOOTH",
"590 700 LINE",
"557 700 LINE",
"373 99 LINE SMOOTH",
"355 39 OFFCURVE",
"341 20 OFFCURVE",
"315 20 CURVE SMOOTH",
"289 20 OFFCURVE",
"275 39 OFFCURVE",
"257 99 CURVE SMOOTH",
"73 700 LINE",
"40 700 LINE",
"221 99 LINE SMOOTH",
"244 24 OFFCURVE",
"266 -10 OFFCURVE",
"315 -10 CURVE SMOOTH"
);
}
);
width = 630;
},
{
anchors = (
{
name = bottom;
position = "{386, 0}";
},
{
name = top;
position = "{386, 700}";
}
);
layerId = "204D14C0-8C16-4EB3-B338-290668FF7982";
paths = (
{
closed = 1;
nodes = (
"481 -12 OFFCURVE",
"525 28 OFFCURVE",
"560 142 CURVE SMOOTH",
"731 700 LINE",
"568 700 LINE",
"409 165 LINE SMOOTH",
"405 150 OFFCURVE",
"397 140 OFFCURVE",
"387 140 CURVE SMOOTH",
"375 140 OFFCURVE",
"369 151 OFFCURVE",
"365 166 CURVE SMOOTH",
"203 700 LINE",
"40 700 LINE",
"214 142 LINE SMOOTH",
"250 28 OFFCURVE",
"293 -12 OFFCURVE",
"387 -12 CURVE SMOOTH"
);
}
);
width = 771;
}
);
note = V;
rightMetricsKey = "=|";
unicode = 0056;
},
{
color = 8;
glyphname = W;
lastChange = "2018-03-29 09:05:44 +0000";
layers = (
{
anchors = (
{
name = bottom;
position = "{431, 0}";
},
{
name = top;
position = "{431, 700}";
}
);
background = {
paths = (
{
closed = 1;
nodes = (
"618 27 LINE",
"541 169 OFFCURVE",
"478 385 OFFCURVE",
"431 611 CURVE",
"383 384 OFFCURVE",
"320 168 OFFCURVE",
"243 26 CURVE",
"257 26 LINE",
"78 700 LINE",
"45 700 LINE",
"231 -1 LINE",
"262 -1 LINE",
"338 127 OFFCURVE",
"399 322 OFFCURVE",
"438 519 CURVE",
"424 519 LINE",
"463 322 OFFCURVE",
"524 127 OFFCURVE",
"600 -1 CURVE",
"631 -1 LINE",
"817 700 LINE",
"784 700 LINE",
"605 27 LINE"
);
}
);
};
layerId = "0B1DFD06-3317-40CA-B510-4969A0718C16";
paths = (
{
closed = 1;
nodes = (
"228 0 LINE SMOOTH",
"251 0 OFFCURVE",
"293 1 OFFCURVE",
"308 48 CURVE SMOOTH",
"449 494 LINE",
"590 48 LINE SMOOTH",
"605 1 OFFCURVE",
"647 0 OFFCURVE",
"670 0 CURVE SMOOTH",
"689 0 LINE",
"849 700 LINE",
"816 700 LINE",
"659 11 LINE",
"681 28 LINE",
"668 28 LINE SMOOTH",
"639 28 OFFCURVE",
"624 40 OFFCURVE",
"617 63 CURVE SMOOTH",
"449 588 LINE",
"281 63 LINE SMOOTH",
"274 40 OFFCURVE",
"259 28 OFFCURVE",
"230 28 CURVE SMOOTH",
"217 28 LINE",
"239 11 LINE",
"82 700 LINE",
"49 700 LINE",
"209 0 LINE"
);
}
);
width = 898;
},
{
anchors = (
{
name = bottom;
position = "{477, 0}";
},
{
name = top;
position = "{477, 700}";
}
);
background = {
paths = (
{
closed = 1;
nodes = (
"490 662 LINE",
"322 207 LINE SMOOTH",
"308 170 OFFCURVE",
"289 157 OFFCURVE",
"265 157 CURVE",
"303 111 LINE",
"170 700 LINE",
"18 700 LINE",
"178 0 LINE",
"242 0 LINE SMOOTH",
"353 0 OFFCURVE",
"390 38 OFFCURVE",
"433 160 CURVE SMOOTH",
"508 373 LINE",
"444 373 LINE",
"520 160 LINE SMOOTH",
"564 38 OFFCURVE",
"600 0 OFFCURVE",
"711 0 CURVE SMOOTH",
"775 0 LINE",
"935 700 LINE",
"783 700 LINE",
"650 111 LINE",
"688 157 LINE",
"664 157 OFFCURVE",
"645 170 OFFCURVE",
"631 207 CURVE SMOOTH",
"462 662 LINE"
);
}
);
};
layerId = "204D14C0-8C16-4EB3-B338-290668FF7982";
paths = (
{
closed = 1;
nodes = (
"237 0 LINE SMOOTH",
"348 0 OFFCURVE",
"387 36 OFFCURVE",
"428 160 CURVE SMOOTH",
"476 305 LINE",
"525 160 LINE SMOOTH",
"568 34 OFFCURVE",
"601 0 OFFCURVE",
"716 0 CURVE SMOOTH",
"775 0 LINE",
"935 700 LINE",
"783 700 LINE",
"652 120 LINE",
"697 167 LINE",
"679 167 LINE SMOOTH",
"659 167 OFFCURVE",
"645 186 OFFCURVE",
"631 227 CURVE SMOOTH",
"476 654 LINE",
"322 227 LINE SMOOTH",
"308 186 OFFCURVE",
"294 167 OFFCURVE",
"274 167 CURVE SMOOTH",
"254 167 LINE",
"301 120 LINE",
"170 700 LINE",
"18 700 LINE",
"178 0 LINE"
);
}
);
width = 953;
}
);
note = W;
rightMetricsKey = "=|";
unicode = 0057;
},
{
color = 8;
glyphname = X;
lastChange = "2018-03-28 15:22:05 +0000";
layers = (
{
anchors = (
{
name = bottom;
position = "{280, 0}";
},
{
name = top;
position = "{280, 700}";
}
);
guideLines = (
{
angle = 90;
position = "{549, 414}";
},
{
angle = 90;
position = "{18, 203}";
}
);
layerId = "0B1DFD06-3317-40CA-B510-4969A0718C16";
paths = (
{
closed = 1;
nodes = (
"511 0 LINE",
"549 0 LINE",
"55 700 LINE",
"18 700 LINE"
);
},
{
closed = 1;
nodes = (
"267 364 LINE",
"10 0 LINE",
"48 0 LINE",
"286 338 LINE"
);
},
{
closed = 1;
nodes = (
"290 338 LINE",
"545 700 LINE",
"508 700 LINE",
"271 364 LINE"
);
}
);
width = 559;
},
{
anchors = (
{
name = bottom;
position = "{332, 0}";
},
{
name = top;
position = "{332, 700}";
}
);
background = {
paths = (
{
closed = 1;
nodes = (
"563 0 LINE",
"601 0 LINE",
"107 700 LINE",
"70 700 LINE"
);
},
{
closed = 1;
nodes = (
"319 364 LINE",
"62 0 LINE",
"100 0 LINE",
"338 338 LINE"
);
},
{
closed = 1;
nodes = (
"342 338 LINE",
"597 700 LINE",
"560 700 LINE",
"323 364 LINE"
);
}
);
};
layerId = "204D14C0-8C16-4EB3-B338-290668FF7982";
paths = (
{
closed = 1;
nodes = (
"463 0 LINE",
"643 0 LINE",
"209 700 LINE",
"30 700 LINE"
);
},
{
closed = 1;
nodes = (
"279 417 LINE",
"20 0 LINE",
"200 0 LINE",
"378 288 LINE"
);
},
{
closed = 1;
nodes = (
"398 288 LINE",
"653 700 LINE",
"474 700 LINE",
"299 417 LINE"
);
}
);
width = 673;
}
);
note = X;
rightMetricsKey = "=|";
unicode = 0058;
},
{
color = 8;
glyphname = Y;
lastChange = "2018-04-02 05:15:34 +0000";
layers = (
{
anchors = (
{
name = bottom;
position = "{289, 0}";
},
{
name = top;
position = "{289, 700}";
},
{
name = topleft;
position = "{20, 700}";
}
);
background = {
anchors = (
{
name = bottom;
position = "{289, 0}";
},
{
name = top;
position = "{289, 700}";
},
{
name = topleft;
position = "{20, 700}";
}
);
paths = (
{
closed = 1;
nodes = (
"549 700 LINE",
"514 700 LINE",
"287 315 LINE",
"293 315 LINE",
"63 700 LINE",
"28 700 LINE",
"290 262 LINE"
);
},
{
closed = 1;
nodes = (
"306 0 LINE",
"306 302 LINE",
"274 301 LINE",
"274 0 LINE"
);
}
);
};
layerId = "0B1DFD06-3317-40CA-B510-4969A0718C16";
paths = (
{
closed = 1;
nodes = (
"306 0 LINE",
"306 289.058 LINE",
"549 700 LINE",
"514 700 LINE",
"289.98 320.055 LINE",
"63 700 LINE",
"28 700 LINE",
"274 288.748 LINE",
"274 0 LINE"
);
}
);
width = 577;
},
{
anchors = (
{
name = bottom;
position = "{329, 0}";
},
{
name = top;
position = "{329, 700}";
},
{
name = topleft;
position = "{60, 700}";
}
);
background = {
anchors = (
{
name = bottom;
position = "{329, 0}";
},
{
name = top;
position = "{329, 700}";
},
{
name = topleft;
position = "{60, 700}";
}
);
paths = (
{
closed = 1;
nodes = (
"643 700 LINE",
"469 700 LINE",
"332 449 LINE",
"193 700 LINE",
"20 700 LINE",
"328 172 LINE"
);
},
{
closed = 1;
nodes = (
"409 0 LINE",
"409 346 LINE",
"247 367 LINE",
"247 0 LINE"
);
}
);
};
layerId = "204D14C0-8C16-4EB3-B338-290668FF7982";
paths = (
{
closed = 1;
nodes = (
"409 0 LINE",
"409 308 LINE",
"643 700 LINE",
"469 700 LINE",
"332 449 LINE",
"193 700 LINE",
"20 700 LINE",
"247 311 LINE",
"247 0 LINE"
);
}
);
width = 663;
}
);
note = Y;
rightMetricsKey = "=|";
unicode = 0059;
},
{
color = 8;
glyphname = Z;
lastChange = "2018-03-28 15:22:05 +0000";
layers = (
{
anchors = (
{
name = bottom;
position = "{335, 0}";
},
{
name = top;
position = "{335, 700}";
}
);
background = {
paths = (
{
closed = 1;
nodes = (
"590 0 LINE",
"590 28 LINE",
"175 28 LINE SMOOTH",
"127 28 OFFCURVE",
"110 39 OFFCURVE",
"110 67 CURVE SMOOTH",
"110 70 LINE",
"572 674 LINE",
"572 700 LINE",
"95 700 LINE",
"95 672 LINE",
"532.836 672 LINE",
"80 79 LINE",
"80 69 LINE SMOOTH",
"80 33 OFFCURVE",
"95 0 OFFCURVE",
"175 0 CURVE SMOOTH"
);
}
);
};
layerId = "0B1DFD06-3317-40CA-B510-4969A0718C16";
paths = (
{
closed = 1;
nodes = (
"590 0 LINE",
"590 28 LINE",
"149 28 LINE SMOOTH",
"120 28 OFFCURVE",
"110 36 OFFCURVE",
"110 57 CURVE SMOOTH",
"110 60 LINE",
"110 60 LINE",
"572 674 LINE",
"572 700 LINE",
"95 700 LINE",
"95 672 LINE",
"533 672 LINE",
"80 69 LINE",
"80 59 LINE SMOOTH",
"80 28 OFFCURVE",
"91 0 OFFCURVE",
"149 0 CURVE SMOOTH"
);
}
);
width = 670;
},
{
anchors = (
{
name = bottom;
position = "{335, 0}";
},
{
name = top;
position = "{335, 700}";
}
);
background = {
paths = (
{
closed = 1;
nodes = (
"60 572 LINE",
"511 572 LINE",
"472 613 LINE",
"45 191 LINE",
"45 128 LINE SMOOTH",
"45 35 OFFCURVE",
"105 -1 OFFCURVE",
"210 -1 CURVE SMOOTH",
"621 -1 LINE",
"621 131 LINE",
"240 131 LINE SMOOTH",
"214 131 OFFCURVE",
"193 137 OFFCURVE",
"193 170 CURVE SMOOTH",
"193 191 LINE",
"193 170 LINE",
"605 577 LINE",
"605 700 LINE",
"60 700 LINE"
);
}
);
};
layerId = "204D14C0-8C16-4EB3-B338-290668FF7982";
paths = (
{
closed = 1;
nodes = (
"621 -1 LINE",
"621 131 LINE",
"240 131 LINE SMOOTH",
"214 131 OFFCURVE",
"193 139 OFFCURVE",
"193 180 CURVE SMOOTH",
"193 191 LINE",
"182 138 LINE",
"605 577 LINE",
"605 700 LINE",
"60 700 LINE",
"60 572 LINE",
"412 572 LINE",
"45 191 LINE",
"45 128 LINE SMOOTH",
"45 35 OFFCURVE",
"105 -1 OFFCURVE",
"210 -1 CURVE SMOOTH"
);
}
);
width = 666;
}
);
note = Z;
rightMetricsKey = "=|";
unicode = 005A;
},
{
color = 8;
glyphname = a;
lastChange = "2018-03-29 13:35:00 +0000";
layers = (
{
anchors = (
{
name = bottom;
position = "{261, 0}";
},
{
name = ogonek;
position = "{434, 10}";
},
{
name = top;
position = "{261, 470}";
}
);
layerId = "0B1DFD06-3317-40CA-B510-4969A0718C16";
paths = (
{
closed = 1;
nodes = (
"330 -10 OFFCURVE",
"387 41 OFFCURVE",
"413 98 CURVE",
"405 123 LINE",
"405 56 LINE SMOOTH",
"405 22 OFFCURVE",
"413 5 OFFCURVE",
"435 -10 CURVE",
"456 8 LINE",
"439 24 OFFCURVE",
"435 32 OFFCURVE",
"435 50 CURVE SMOOTH",
"435 331 LINE SMOOTH",
"435 422 OFFCURVE",
"367 480 OFFCURVE",
"261 480 CURVE SMOOTH",
"151 480 OFFCURVE",
"109 447 OFFCURVE",
"85 406 CURVE",
"107 389 LINE",
"135 431 OFFCURVE",
"169 454 OFFCURVE",
"261 454 CURVE SMOOTH",
"349 454 OFFCURVE",
"405 406 OFFCURVE",
"405 331 CURVE SMOOTH",
"405 276 OFFCURVE",
"374 271 OFFCURVE",
"293 261 CURVE SMOOTH",
"193 249 LINE SMOOTH",
"113 239 OFFCURVE",
"55 194 OFFCURVE",
"55 122 CURVE SMOOTH",
"55 34 OFFCURVE",
"117 -10 OFFCURVE",
"204 -10 CURVE SMOOTH"
);
},
{
closed = 1;
nodes = (
"137 18 OFFCURVE",
"86 50 OFFCURVE",
"86 122 CURVE SMOOTH",
"86 175 OFFCURVE",
"126 213 OFFCURVE",
"206 223 CURVE SMOOTH",
"314 236 OFFCURVE",
"371 238 OFFCURVE",
"405 262 CURVE",
"405 174 LINE SMOOTH",
"405 91 OFFCURVE",
"343 18 OFFCURVE",
"204 18 CURVE SMOOTH"
);
}
);
width = 521;
},
{
anchors = (
{
name = bottom;
position = "{261, 0}";
},
{
name = ogonek;
position = "{409, 10}";
},
{
name = top;
position = "{261, 470}";
}
);
layerId = "204D14C0-8C16-4EB3-B338-290668FF7982";
paths = (
{
closed = 1;
nodes = (
"274 -12 OFFCURVE",
"321 35 OFFCURVE",
"346 81 CURVE",
"321 149 LINE",
"321 132 LINE SMOOTH",
"321 72 OFFCURVE",
"339 24 OFFCURVE",
"412 -12 CURVE",
"499 64 LINE",
"465 89 OFFCURVE",
"451 107 OFFCURVE",
"451 145 CURVE SMOOTH",
"451 307 LINE SMOOTH",
"451 420 OFFCURVE",
"378 482 OFFCURVE",
"247 482 CURVE SMOOTH",
"126 482 OFFCURVE",
"81 454 OFFCURVE",
"41 403 CURVE",
"130 341 LINE",
"165 378 OFFCURVE",
"188 392 OFFCURVE",
"243 392 CURVE SMOOTH",
"293 392 OFFCURVE",
"321 366 OFFCURVE",
"321 317 CURVE SMOOTH",
"321 276 OFFCURVE",
"294 273 OFFCURVE",
"223 264 CURVE SMOOTH",
"163 256 LINE SMOOTH",
"83 245 OFFCURVE",
"25 202 OFFCURVE",
"25 130 CURVE SMOOTH",
"25 35 OFFCURVE",
"88 -12 OFFCURVE",
"176 -12 CURVE SMOOTH"
);
},
{
closed = 1;
nodes = (
"175 71 OFFCURVE",
"150 91 OFFCURVE",
"150 133 CURVE SMOOTH",
"150 167 OFFCURVE",
"170 190 OFFCURVE",
"216 197 CURVE SMOOTH",
"277 206 OFFCURVE",
"302 213 OFFCURVE",
"321 227 CURVE",
"321 169 LINE SMOOTH",
"321 117 OFFCURVE",
"286 71 OFFCURVE",
"214 71 CURVE SMOOTH"
);
}
);
width = 521;
}
);
note = a;
unicode = 0061;
},
{
color = 8;
glyphname = b;
lastChange = "2018-03-30 06:47:41 +0000";
layers = (
{
anchors = (
{
name = bottom;
position = "{266, 0}";
},
{
name = top;
position = "{266, 470}";
}
);
layerId = "0B1DFD06-3317-40CA-B510-4969A0718C16";
paths = (
{
closed = 1;
nodes = (
"415 -10 OFFCURVE",
"481 98 OFFCURVE",
"481 219 CURVE SMOOTH",
"481 251 LINE SMOOTH",
"481 372 OFFCURVE",
"415 480 OFFCURVE",
"278 480 CURVE SMOOTH",
"184 480 OFFCURVE",
"135 435 OFFCURVE",
"111 392 CURVE",
"111 643 LINE SMOOTH",
"111 677 OFFCURVE",
"103 694 OFFCURVE",
"79 709 CURVE",
"60 691 LINE",
"77 675 OFFCURVE",
"81 667 OFFCURVE",
"81 649 CURVE SMOOTH",
"81 0 LINE",
"111 0 LINE",
"111 78 LINE",
"135 35 OFFCURVE",
"184 -10 OFFCURVE",
"278 -10 CURVE SMOOTH"
);
},
{
closed = 1;
nodes = (
"203 16 OFFCURVE",
"111 52 OFFCURVE",
"111 179 CURVE SMOOTH",
"111 291 LINE SMOOTH",
"111 418 OFFCURVE",
"203 454 OFFCURVE",
"278 454 CURVE SMOOTH",
"394 454 OFFCURVE",
"448 357 OFFCURVE",
"448 251 CURVE SMOOTH",
"448 219 LINE SMOOTH",
"448 113 OFFCURVE",
"394 16 OFFCURVE",
"278 16 CURVE SMOOTH"
);
}
);
width = 544;
},
{
anchors = (
{
name = bottom;
position = "{303, 0}";
},
{
name = top;
position = "{303, 470}";
}
);
background = {
paths = (
{
closed = 1;
nodes = (
"477 -10 OFFCURVE",
"543 98 OFFCURVE",
"543 219 CURVE SMOOTH",
"543 251 LINE SMOOTH",
"543 372 OFFCURVE",
"477 480 OFFCURVE",
"340 480 CURVE SMOOTH",
"246 480 OFFCURVE",
"197 435 OFFCURVE",
"173 392 CURVE",
"173 643 LINE SMOOTH",
"173 677 OFFCURVE",
"165 694 OFFCURVE",
"141 709 CURVE",
"122 691 LINE",
"139 675 OFFCURVE",
"143 667 OFFCURVE",
"143 649 CURVE SMOOTH",
"143 0 LINE",
"173 0 LINE",
"173 78 LINE",
"197 35 OFFCURVE",
"246 -10 OFFCURVE",
"340 -10 CURVE SMOOTH"
);
},
{
closed = 1;
nodes = (
"265 16 OFFCURVE",
"173 52 OFFCURVE",
"173 179 CURVE SMOOTH",
"173 291 LINE SMOOTH",
"173 418 OFFCURVE",
"265 454 OFFCURVE",
"340 454 CURVE SMOOTH",
"456 454 OFFCURVE",
"510 357 OFFCURVE",
"510 251 CURVE SMOOTH",
"510 219 LINE SMOOTH",
"510 113 OFFCURVE",
"456 16 OFFCURVE",
"340 16 CURVE SMOOTH"
);
}
);
};
layerId = "204D14C0-8C16-4EB3-B338-290668FF7982";
paths = (
{
closed = 1;
nodes = (
"486 -12 OFFCURVE",
"553 97 OFFCURVE",
"553 219 CURVE SMOOTH",
"553 251 LINE SMOOTH",
"553 373 OFFCURVE",
"486 482 OFFCURVE",
"348 482 CURVE SMOOTH",
"273 482 OFFCURVE",
"231 454 OFFCURVE",
"203 421 CURVE",
"203 597 LINE SMOOTH",
"203 677 OFFCURVE",
"180 715 OFFCURVE",
"112 750 CURVE",
"25 674 LINE",
"59 649 OFFCURVE",
"73 631 OFFCURVE",
"73 593 CURVE SMOOTH",
"73 0 LINE",
"203 0 LINE",
"203 46 LINE",
"231 14 OFFCURVE",
"273 -12 OFFCURVE",
"348 -12 CURVE SMOOTH"
);
},
{
closed = 1;
nodes = (
"259 88 OFFCURVE",
"203 113 OFFCURVE",
"203 203 CURVE SMOOTH",
"203 267 LINE SMOOTH",
"203 357 OFFCURVE",
"259 382 OFFCURVE",
"310 382 CURVE SMOOTH",
"387 382 OFFCURVE",
"423 319 OFFCURVE",
"423 251 CURVE SMOOTH",
"423 219 LINE SMOOTH",
"423 151 OFFCURVE",
"387 88 OFFCURVE",
"310 88 CURVE SMOOTH"
);
}
);
width = 606;
}
);
leftMetricsKey = l;
note = b;
unicode = 0062;
},
{
color = 8;
glyphname = c;
lastChange = "2018-03-29 06:14:59 +0000";
layers = (
{
anchors = (
{
name = bottom;
position = "{261, 0}";
},
{
name = top;
position = "{259, 470}";
}
);
layerId = "0B1DFD06-3317-40CA-B510-4969A0718C16";
paths = (
{
closed = 1;
nodes = (
"337 -10 OFFCURVE",
"395 10 OFFCURVE",
"438 64 CURVE",
"417 84 LINE",
"387 41 OFFCURVE",
"334 16 OFFCURVE",
"261 16 CURVE SMOOTH",
"154 16 OFFCURVE",
"95 67 OFFCURVE",
"95 159 CURVE SMOOTH",
"95 311 LINE SMOOTH",
"95 395 OFFCURVE",
"158 454 OFFCURVE",
"259 454 CURVE SMOOTH",
"340 454 OFFCURVE",
"374 430 OFFCURVE",
"412 385 CURVE",
"434 404 LINE",
"400 446 OFFCURVE",
"358 480 OFFCURVE",
"259 480 CURVE SMOOTH",
"140 480 OFFCURVE",
"65 411 OFFCURVE",
"65 311 CURVE SMOOTH",
"65 159 LINE SMOOTH",
"65 50 OFFCURVE",
"135 -10 OFFCURVE",
"261 -10 CURVE SMOOTH"
);
}
);
width = 478;
},
{
anchors = (
{
name = bottom;
position = "{261, 0}";
},
{
name = top;
position = "{259, 470}";
}
);
background = {
paths = (
{
closed = 1;
nodes = (
"399 -12 OFFCURVE",
"476 54 OFFCURVE",
"476 173 CURVE SMOOTH",
"476 297 LINE SMOOTH",
"476 416 OFFCURVE",
"399 482 OFFCURVE",
"260 482 CURVE SMOOTH",
"121 482 OFFCURVE",
"44 416 OFFCURVE",
"44 297 CURVE SMOOTH",
"44 173 LINE SMOOTH",
"44 54 OFFCURVE",
"121 -12 OFFCURVE",
"260 -12 CURVE SMOOTH"
);
},
{
closed = 1;
nodes = (
"205 88 OFFCURVE",
"174 118 OFFCURVE",
"174 173 CURVE SMOOTH",
"174 297 LINE SMOOTH",
"174 352 OFFCURVE",
"205 382 OFFCURVE",
"260 382 CURVE SMOOTH",
"315 382 OFFCURVE",
"346 352 OFFCURVE",
"346 297 CURVE SMOOTH",
"346 173 LINE SMOOTH",
"346 118 OFFCURVE",
"315 88 OFFCURVE",
"260 88 CURVE SMOOTH"
);
}
);
};
layerId = "204D14C0-8C16-4EB3-B338-290668FF7982";
paths = (
{
closed = 1;
nodes = (
"356 -12 OFFCURVE",
"410 16 OFFCURVE",
"446 67 CURVE",
"357 139 LINE",
"327 104 OFFCURVE",
"307 88 OFFCURVE",
"260 88 CURVE SMOOTH",
"205 88 OFFCURVE",
"174 118 OFFCURVE",
"174 173 CURVE SMOOTH",
"174 297 LINE SMOOTH",
"174 352 OFFCURVE",
"205 382 OFFCURVE",
"260 382 CURVE SMOOTH",
"307 382 OFFCURVE",
"327 366 OFFCURVE",
"357 331 CURVE",
"446 403 LINE",
"410 454 OFFCURVE",
"351 482 OFFCURVE",
"260 482 CURVE SMOOTH",
"121 482 OFFCURVE",
"44 416 OFFCURVE",
"44 297 CURVE SMOOTH",
"44 173 LINE SMOOTH",
"44 54 OFFCURVE",
"121 -12 OFFCURVE",
"260 -12 CURVE SMOOTH"
);
}
);
width = 478;
}
);
leftMetricsKey = o;
note = c;
unicode = 0063;
},
{
color = 8;
glyphname = d;
lastChange = "2018-04-02 03:38:48 +0000";
layers = (
{
anchors = (
{
name = bottom;
position = "{278, 0}";
},
{
name = center;
position = "{278, 235}";
},
{
name = top;
position = "{278, 470}";
},
{
name = topright;
position = "{536, 470}";
}
);
layerId = "0B1DFD06-3317-40CA-B510-4969A0718C16";
paths = (
{
closed = 1;
nodes = (
"360 -10 OFFCURVE",
"409 36 OFFCURVE",
"433 80 CURVE",
"433 56 LINE SMOOTH",
"433 22 OFFCURVE",
"441 5 OFFCURVE",
"465 -10 CURVE",
"484 8 LINE",
"467 24 OFFCURVE",
"463 32 OFFCURVE",
"463 50 CURVE SMOOTH",
"463 643 LINE SMOOTH",
"463 677 OFFCURVE",
"455 694 OFFCURVE",
"433 709 CURVE",
"412 691 LINE",
"429 675 OFFCURVE",
"433 667 OFFCURVE",
"433 649 CURVE SMOOTH",
"433 392 LINE",
"409 435 OFFCURVE",
"360 480 OFFCURVE",
"266 480 CURVE SMOOTH",
"129 480 OFFCURVE",
"63 372 OFFCURVE",
"63 251 CURVE SMOOTH",
"63 219 LINE SMOOTH",
"63 98 OFFCURVE",
"129 -10 OFFCURVE",
"266 -10 CURVE SMOOTH"
);
},
{
closed = 1;
nodes = (
"148 16 OFFCURVE",
"93 113 OFFCURVE",
"93 219 CURVE SMOOTH",
"93 251 LINE SMOOTH",
"93 357 OFFCURVE",
"148 454 OFFCURVE",
"266 454 CURVE SMOOTH",
"341 454 OFFCURVE",
"433 418 OFFCURVE",
"433 291 CURVE SMOOTH",
"433 179 LINE SMOOTH",
"433 54 OFFCURVE",
"341 16 OFFCURVE",
"266 16 CURVE SMOOTH"
);
}
);
width = 556;
},
{
anchors = (
{
name = bottom;
position = "{278, 0}";
},
{
name = center;
position = "{278, 235}";
},
{
name = top;
position = "{278, 470}";
},
{
name = topright;
position = "{536, 470}";
}
);
background = {
paths = (
{
closed = 1;
nodes = (
"189 88 OFFCURVE",
"153 151 OFFCURVE",
"153 219 CURVE SMOOTH",
"153 251 LINE SMOOTH",
"153 319 OFFCURVE",
"189 382 OFFCURVE",
"266 382 CURVE SMOOTH",
"317 382 OFFCURVE",
"373 357 OFFCURVE",
"373 267 CURVE SMOOTH",
"373 203 LINE SMOOTH",
"373 113 OFFCURVE",
"317 88 OFFCURVE",
"266 88 CURVE SMOOTH"
);
},
{
closed = 1;
nodes = (
"373 72 OFFCURVE",
"391 24 OFFCURVE",
"464 -12 CURVE",
"551 64 LINE",
"517 89 OFFCURVE",
"503 107 OFFCURVE",
"503 145 CURVE SMOOTH",
"503 597 LINE SMOOTH",
"503 677 OFFCURVE",
"480 715 OFFCURVE",
"412 750 CURVE",
"325 674 LINE",
"359 649 OFFCURVE",
"373 631 OFFCURVE",
"373 593 CURVE SMOOTH",
"373 424 LINE",
"345 456 OFFCURVE",
"303 482 OFFCURVE",
"228 482 CURVE SMOOTH",
"90 482 OFFCURVE",
"23 373 OFFCURVE",
"23 251 CURVE SMOOTH",
"23 219 LINE SMOOTH",
"23 78 OFFCURVE",
"103 -12 OFFCURVE",
"228 -12 CURVE SMOOTH",
"317 -12 OFFCURVE",
"360 27 OFFCURVE",
"387 67 CURVE",
"412 117 LINE",
"373 132 LINE"
);
}
);
};
layerId = "204D14C0-8C16-4EB3-B338-290668FF7982";
paths = (
{
closed = 1;
nodes = (
"326 -12 OFFCURVE",
"377 33 OFFCURVE",
"412 117 CURVE",
"373 132 LINE",
"373 72 OFFCURVE",
"391 24 OFFCURVE",
"464 -12 CURVE",
"551 64 LINE",
"517 89 OFFCURVE",
"503 107 OFFCURVE",
"503 145 CURVE SMOOTH",
"503 597 LINE SMOOTH",
"503 677 OFFCURVE",
"480 715 OFFCURVE",
"412 750 CURVE",
"325 674 LINE",
"359 649 OFFCURVE",
"373 631 OFFCURVE",
"373 593 CURVE SMOOTH",
"373 424 LINE",
"345 456 OFFCURVE",
"303 482 OFFCURVE",
"228 482 CURVE SMOOTH",
"90 482 OFFCURVE",
"23 373 OFFCURVE",
"23 251 CURVE SMOOTH",
"23 219 LINE SMOOTH",
"23 78 OFFCURVE",
"103 -12 OFFCURVE",
"228 -12 CURVE SMOOTH"
);
},
{
closed = 1;
nodes = (
"189 88 OFFCURVE",
"153 151 OFFCURVE",
"153 219 CURVE SMOOTH",
"153 251 LINE SMOOTH",
"153 319 OFFCURVE",
"189 382 OFFCURVE",
"266 382 CURVE SMOOTH",
"317 382 OFFCURVE",
"373 357 OFFCURVE",
"373 267 CURVE SMOOTH",
"373 203 LINE SMOOTH",
"373 113 OFFCURVE",
"317 88 OFFCURVE",
"266 88 CURVE SMOOTH"
);
}
);
width = 556;
}
);
note = d;
unicode = 0064;
},
{
color = 8;
glyphname = e;
lastChange = "2018-03-30 00:41:01 +0000";
layers = (
{
anchors = (
{
name = bottom;
position = "{251, 0}";
},
{
name = ogonek;
position = "{451, 10}";
},
{
name = top;
position = "{251, 470}";
}
);
layerId = "0B1DFD06-3317-40CA-B510-4969A0718C16";
paths = (
{
closed = 1;
nodes = (
"344 -10 OFFCURVE",
"400 14 OFFCURVE",
"440 59 CURVE",
"419 78 LINE",
"385 40 OFFCURVE",
"335 16 OFFCURVE",
"265 16 CURVE SMOOTH",
"150 16 OFFCURVE",
"95 62 OFFCURVE",
"95 156 CURVE SMOOTH",
"95 314 LINE SMOOTH",
"95 396 OFFCURVE",
"153 454 OFFCURVE",
"251 454 CURVE SMOOTH",
"353 454 OFFCURVE",
"411 402 OFFCURVE",
"411 304 CURVE SMOOTH",
"411 256 OFFCURVE",
"395 243 OFFCURVE",
"346 243 CURVE SMOOTH",
"91 243 LINE",
"91 217 LINE",
"346 217 LINE SMOOTH",
"422 217 OFFCURVE",
"441 242 OFFCURVE",
"441 304 CURVE SMOOTH",
"441 422 OFFCURVE",
"371 480 OFFCURVE",
"251 480 CURVE SMOOTH",
"136 480 OFFCURVE",
"65 416 OFFCURVE",
"65 314 CURVE SMOOTH",
"65 156 LINE SMOOTH",
"65 44 OFFCURVE",
"130 -10 OFFCURVE",
"265 -10 CURVE SMOOTH"
);
}
);
width = 501;
},
{
anchors = (
{
name = bottom;
position = "{251, 0}";
},
{
name = ogonek;
position = "{451, 10}";
},
{
name = top;
position = "{251, 470}";
}
);
background = {
paths = (
{
closed = 1;
nodes = (
"344 -10 OFFCURVE",
"400 14 OFFCURVE",
"440 59 CURVE",
"419 78 LINE",
"385 40 OFFCURVE",
"335 16 OFFCURVE",
"265 16 CURVE SMOOTH",
"150 16 OFFCURVE",
"95 62 OFFCURVE",
"95 156 CURVE SMOOTH",
"95 314 LINE SMOOTH",
"95 396 OFFCURVE",
"153 454 OFFCURVE",
"251 454 CURVE SMOOTH",
"353 454 OFFCURVE",
"411 402 OFFCURVE",
"411 304 CURVE SMOOTH",
"411 256 OFFCURVE",
"395 243 OFFCURVE",
"346 243 CURVE SMOOTH",
"91 243 LINE",
"91 217 LINE",
"346 217 LINE SMOOTH",
"422 217 OFFCURVE",
"441 242 OFFCURVE",
"441 304 CURVE SMOOTH",
"441 422 OFFCURVE",
"371 480 OFFCURVE",
"251 480 CURVE SMOOTH",
"136 480 OFFCURVE",
"65 416 OFFCURVE",
"65 314 CURVE SMOOTH",
"65 156 LINE SMOOTH",
"65 44 OFFCURVE",
"130 -10 OFFCURVE",
"265 -10 CURVE SMOOTH"
);
}
);
};
layerId = "204D14C0-8C16-4EB3-B338-290668FF7982";
paths = (
{
closed = 1;
nodes = (
"355 -12 OFFCURVE",
"412 15 OFFCURVE",
"448 59 CURVE",
"369 131 LINE",
"335 101 OFFCURVE",
"313 88 OFFCURVE",
"261 88 CURVE SMOOTH",
"202 88 OFFCURVE",
"174 115 OFFCURVE",
"174 172 CURVE SMOOTH",
"174 304 LINE SMOOTH",
"174 349 OFFCURVE",
"202 380 OFFCURVE",
"251 380 CURVE SMOOTH",
"302 380 OFFCURVE",
"332 354 OFFCURVE",
"332 304 CURVE SMOOTH",
"332 277 OFFCURVE",
"321 270 OFFCURVE",
"286 270 CURVE SMOOTH",
"91 270 LINE",
"91 181 LINE",
"361 181 LINE SMOOTH",
"442 181 OFFCURVE",
"459 210 OFFCURVE",
"462 281 CURVE SMOOTH",
"468 414 OFFCURVE",
"384 480 OFFCURVE",
"251 480 CURVE SMOOTH",
"123 480 OFFCURVE",
"44 416 OFFCURVE",
"44 314 CURVE SMOOTH",
"44 173 LINE SMOOTH",
"44 42 OFFCURVE",
"108 -12 OFFCURVE",
"261 -12 CURVE SMOOTH"
);
}
);
width = 501;
}
);
leftMetricsKey = o;
note = e;
unicode = 0065;
},
{
color = 8;
glyphname = f;
lastChange = "2018-04-02 04:13:18 +0000";
layers = (
{
anchors = (
{
name = bottom;
position = "{124, 0}";
},
{
name = top;
position = "{180, 700}";
}
);
background = {
paths = (
{
closed = 1;
nodes = (
"114 5 OFFCURVE",
"122 22 OFFCURVE",
"122 56 CURVE SMOOTH",
"122 548 LINE SMOOTH",
"122 629 OFFCURVE",
"165 674 OFFCURVE",
"242 674 CURVE SMOOTH",
"257 674 LINE",
"257 700 LINE",
"242 700 LINE SMOOTH",
"146 700 OFFCURVE",
"92 646 OFFCURVE",
"92 549 CURVE SMOOTH",
"92 50 LINE SMOOTH",
"92 32 OFFCURVE",
"88 24 OFFCURVE",
"71 8 CURVE",
"91 -10 LINE"
);
},
{
closed = 1;
nodes = (
"107 444 LINE",
"257 444 LINE",
"257 470 LINE",
"108 470 LINE",
"108 442 LINE"
);
}
);
};
layerId = "0B1DFD06-3317-40CA-B510-4969A0718C16";
paths = (
{
closed = 1;
nodes = (
"122 0 LINE",
"122 548 LINE SMOOTH",
"122 629 OFFCURVE",
"165 674 OFFCURVE",
"242 674 CURVE SMOOTH",
"257 674 LINE",
"257 700 LINE",
"242 700 LINE SMOOTH",
"146 700 OFFCURVE",
"92 646 OFFCURVE",
"92 549 CURVE SMOOTH",
"92 0 LINE"
);
},
{
closed = 1;
nodes = (
"107 444 LINE",
"257 444 LINE",
"257 470 LINE",
"108 470 LINE",
"108 442 LINE"
);
}
);
width = 267;
},
{
anchors = (
{
name = bottom;
position = "{134, 0}";
},
{
name = top;
position = "{200, 740}";
}
);
layerId = "204D14C0-8C16-4EB3-B338-290668FF7982";
paths = (
{
closed = 1;
nodes = (
"176 0 LINE",
"176 534 LINE SMOOTH",
"176 602 OFFCURVE",
"207 640 OFFCURVE",
"263 640 CURVE SMOOTH",
"312 640 LINE",
"312 740 LINE",
"263 740 LINE SMOOTH",
"124 740 OFFCURVE",
"46 667 OFFCURVE",
"46 534 CURVE SMOOTH",
"46 0 LINE"
);
},
{
closed = 1;
nodes = (
"107 370 LINE",
"312 370 LINE",
"312 470 LINE",
"108 470 LINE",
"108 368 LINE"
);
}
);
width = 317;
}
);
note = f;
unicode = 0066;
},
{
color = 8;
glyphname = g;
lastChange = "2018-03-29 07:57:30 +0000";
layers = (
{
anchors = (
{
name = bottom;
position = "{278, 0}";
},
{
name = top;
position = "{278, 470}";
}
);
background = {
paths = (
{
closed = 1;
nodes = (
"314 -219 LINE SMOOTH",
"410 -219 OFFCURVE",
"463 -165 OFFCURVE",
"463 -67 CURVE SMOOTH",
"463 420 LINE SMOOTH",
"463 438 OFFCURVE",
"467 446 OFFCURVE",
"484 462 CURVE",
"465 480 LINE",
"441 465 OFFCURVE",
"433 448 OFFCURVE",
"433 414 CURVE SMOOTH",
"433 392 LINE",
"409 435 OFFCURVE",
"360 480 OFFCURVE",
"266 480 CURVE SMOOTH",
"129 480 OFFCURVE",
"63 372 OFFCURVE",
"63 251 CURVE SMOOTH",
"63 219 LINE SMOOTH",
"63 98 OFFCURVE",
"129 -10 OFFCURVE",
"266 -10 CURVE SMOOTH",
"360 -10 OFFCURVE",
"409 35 OFFCURVE",
"433 78 CURVE",
"433 -66 LINE SMOOTH",
"433 -148 OFFCURVE",
"390 -193 OFFCURVE",
"314 -193 CURVE SMOOTH",
"130 -193 LINE",
"130 -219 LINE"
);
},
{
closed = 1;
nodes = (
"148 16 OFFCURVE",
"93 113 OFFCURVE",
"93 219 CURVE SMOOTH",
"93 251 LINE SMOOTH",
"93 357 OFFCURVE",
"148 454 OFFCURVE",
"266 454 CURVE SMOOTH",
"341 454 OFFCURVE",
"433 416 OFFCURVE",
"433 291 CURVE SMOOTH",
"433 179 LINE SMOOTH",
"433 52 OFFCURVE",
"341 16 OFFCURVE",
"266 16 CURVE SMOOTH"
);
}
);
};
layerId = "0B1DFD06-3317-40CA-B510-4969A0718C16";
paths = (
{
closed = 1;
nodes = (
"314 -219 LINE SMOOTH",
"410 -219 OFFCURVE",
"463 -165 OFFCURVE",
"463 -67 CURVE SMOOTH",
"463 420 LINE SMOOTH",
"463 438 OFFCURVE",
"467 446 OFFCURVE",
"484 462 CURVE",
"465 480 LINE",
"441 465 OFFCURVE",
"433 448 OFFCURVE",
"433 414 CURVE SMOOTH",
"433 392 LINE",
"409 435 OFFCURVE",
"360 480 OFFCURVE",
"266 480 CURVE SMOOTH",
"129 480 OFFCURVE",
"63 372 OFFCURVE",
"63 251 CURVE SMOOTH",
"63 229 LINE SMOOTH",
"63 108 OFFCURVE",
"129 0 OFFCURVE",
"266 0 CURVE SMOOTH",
"360 0 OFFCURVE",
"409 45 OFFCURVE",
"433 88 CURVE",
"433 -66 LINE SMOOTH",
"433 -148 OFFCURVE",
"390 -193 OFFCURVE",
"314 -193 CURVE SMOOTH",
"200 -193 LINE",
"200 -219 LINE"
);
},
{
closed = 1;
nodes = (
"148 26 OFFCURVE",
"93 123 OFFCURVE",
"93 229 CURVE SMOOTH",
"93 251 LINE SMOOTH",
"93 357 OFFCURVE",
"148 454 OFFCURVE",
"266 454 CURVE SMOOTH",
"341 454 OFFCURVE",
"433 416 OFFCURVE",
"433 291 CURVE SMOOTH",
"433 189 LINE SMOOTH",
"433 62 OFFCURVE",
"341 26 OFFCURVE",
"266 26 CURVE SMOOTH"
);
}
);
width = 556;
},
{
anchors = (
{
name = bottom;
position = "{278, 0}";
},
{
name = top;
position = "{278, 470}";
}
);
background = {
paths = (
{
closed = 1;
nodes = (
"314 -219 LINE SMOOTH",
"410 -219 OFFCURVE",
"463 -165 OFFCURVE",
"463 -67 CURVE SMOOTH",
"463 420 LINE SMOOTH",
"463 438 OFFCURVE",
"467 446 OFFCURVE",
"484 462 CURVE",
"465 480 LINE",
"441 465 OFFCURVE",
"433 448 OFFCURVE",
"433 414 CURVE SMOOTH",
"433 392 LINE",
"409 435 OFFCURVE",
"360 480 OFFCURVE",
"266 480 CURVE SMOOTH",
"129 480 OFFCURVE",
"63 372 OFFCURVE",
"63 251 CURVE SMOOTH",
"63 219 LINE SMOOTH",
"63 98 OFFCURVE",
"129 -10 OFFCURVE",
"266 -10 CURVE SMOOTH",
"360 -10 OFFCURVE",
"409 35 OFFCURVE",
"433 78 CURVE",
"433 -66 LINE SMOOTH",
"433 -148 OFFCURVE",
"390 -193 OFFCURVE",
"314 -193 CURVE SMOOTH",
"200 -193 LINE",
"200 -219 LINE"
);
},
{
closed = 1;
nodes = (
"148 16 OFFCURVE",
"93 113 OFFCURVE",
"93 219 CURVE SMOOTH",
"93 251 LINE SMOOTH",
"93 357 OFFCURVE",
"148 454 OFFCURVE",
"266 454 CURVE SMOOTH",
"341 454 OFFCURVE",
"433 416 OFFCURVE",
"433 291 CURVE SMOOTH",
"433 179 LINE SMOOTH",
"433 52 OFFCURVE",
"341 16 OFFCURVE",
"266 16 CURVE SMOOTH"
);
}
);
};
layerId = "204D14C0-8C16-4EB3-B338-290668FF7982";
paths = (
{
closed = 1;
nodes = (
"278 -235 LINE SMOOTH",
"438 -235 OFFCURVE",
"505 -180 OFFCURVE",
"505 -49 CURVE SMOOTH",
"505 325 LINE SMOOTH",
"505 362 OFFCURVE",
"519 381 OFFCURVE",
"553 406 CURVE",
"466 482 LINE",
"413 455 OFFCURVE",
"387 426 OFFCURVE",
"378 376 CURVE",
"399 376 LINE",
"365 444 OFFCURVE",
"312 482 OFFCURVE",
"230 482 CURVE SMOOTH",
"92 482 OFFCURVE",
"25 373 OFFCURVE",
"25 251 CURVE SMOOTH",
"25 231 LINE SMOOTH",
"25 90 OFFCURVE",
"105 0 OFFCURVE",
"230 0 CURVE SMOOTH",
"311 0 OFFCURVE",
"347 25 OFFCURVE",
"375 61 CURVE",
"375 -49 LINE SMOOTH",
"375 -110 OFFCURVE",
"346 -135 OFFCURVE",
"278 -135 CURVE SMOOTH",
"146 -135 LINE",
"146 -235 LINE"
);
},
{
closed = 1;
nodes = (
"191 100 OFFCURVE",
"155 163 OFFCURVE",
"155 231 CURVE SMOOTH",
"155 251 LINE SMOOTH",
"155 319 OFFCURVE",
"191 382 OFFCURVE",
"268 382 CURVE SMOOTH",
"319 382 OFFCURVE",
"374 357 OFFCURVE",
"375 267 CURVE SMOOTH",
"375 215 LINE SMOOTH",
"375 125 OFFCURVE",
"319 100 OFFCURVE",
"268 100 CURVE SMOOTH"
);
}
);
width = 556;
}
);
note = g;
unicode = 0067;
},
{
color = 8;
glyphname = h;
lastChange = "2018-03-30 06:47:28 +0000";
layers = (
{
anchors = (
{
name = bottom;
position = "{270, 0}";
},
{
name = center;
position = "{270, 235}";
},
{
name = top;
position = "{290, 632}";
}
);
layerId = "0B1DFD06-3317-40CA-B510-4969A0718C16";
paths = (
{
closed = 1;
nodes = (
"454 0 LINE",
"454 322 LINE SMOOTH",
"454 419 OFFCURVE",
"398 480 OFFCURVE",
"314 480 CURVE SMOOTH",
"200 480 OFFCURVE",
"143 404 OFFCURVE",
"118 321 CURVE",
"121 241 LINE",
"133 334 OFFCURVE",
"186 454 OFFCURVE",
"306 454 CURVE SMOOTH",
"381 454 OFFCURVE",
"424 403 OFFCURVE",
"424 312 CURVE SMOOTH",
"424 0 LINE"
);
},
{
closed = 1;
nodes = (
"123 0 LINE",
"123 644 LINE SMOOTH",
"123 678 OFFCURVE",
"115 695 OFFCURVE",
"91 710 CURVE",
"72 692 LINE",
"89 676 OFFCURVE",
"93 668 OFFCURVE",
"93 650 CURVE SMOOTH",
"93 0 LINE"
);
}
);
width = 539;
},
{
anchors = (
{
name = bottom;
position = "{270, 0}";
},
{
name = center;
position = "{270, 235}";
},
{
name = top;
position = "{290, 736}";
}
);
background = {
paths = (
{
closed = 1;
nodes = (
"454 0 LINE",
"454 324 LINE SMOOTH",
"454 421 OFFCURVE",
"398 482 OFFCURVE",
"314 482 CURVE SMOOTH",
"200 482 OFFCURVE",
"143 406 OFFCURVE",
"118 323 CURVE",
"121 243 LINE",
"133 336 OFFCURVE",
"186 456 OFFCURVE",
"306 456 CURVE SMOOTH",
"381 456 OFFCURVE",
"424 405 OFFCURVE",
"424 314 CURVE SMOOTH",
"424 0 LINE"
);
},
{
closed = 1;
nodes = (
"123 0 LINE",
"123 644 LINE SMOOTH",
"123 678 OFFCURVE",
"115 695 OFFCURVE",
"91 710 CURVE",
"72 692 LINE",
"89 676 OFFCURVE",
"93 668 OFFCURVE",
"93 650 CURVE SMOOTH",
"93 0 LINE"
);
}
);
};
layerId = "204D14C0-8C16-4EB3-B338-290668FF7982";
paths = (
{
closed = 1;
nodes = (
"496 0 LINE",
"496 320 LINE SMOOTH",
"496 424 OFFCURVE",
"439 482 OFFCURVE",
"336 482 CURVE SMOOTH",
"243 482 OFFCURVE",
"197 429 OFFCURVE",
"177 376 CURVE",
"193 273 LINE",
"206 321 OFFCURVE",
"230 382 OFFCURVE",
"298 382 CURVE SMOOTH",
"340 382 OFFCURVE",
"366 353 OFFCURVE",
"366 308 CURVE SMOOTH",
"366 0 LINE"
);
},
{
closed = 1;
nodes = (
"203 0 LINE",
"203 597 LINE SMOOTH",
"203 677 OFFCURVE",
"180 715 OFFCURVE",
"112 750 CURVE",
"25 674 LINE",
"59 649 OFFCURVE",
"73 631 OFFCURVE",
"73 593 CURVE SMOOTH",
"73 0 LINE"
);
}
);
width = 541;
}
);
leftMetricsKey = n;
note = h;
rightMetricsKey = n;
unicode = 0068;
},
{
color = 8;
glyphname = i;
lastChange = "2018-03-29 04:32:54 +0000";
layers = (
{
anchors = (
{
name = bottom;
position = "{110, 0}";
}
);
background = {
paths = (
{
closed = 1;
nodes = (
"87 56 LINE SMOOTH",
"87 22 OFFCURVE",
"95 5 OFFCURVE",
"119 -10 CURVE",
"138 8 LINE",
"121 24 OFFCURVE",
"117 32 OFFCURVE",
"117 50 CURVE SMOOTH",
"117 470 LINE",
"87 470 LINE"
);
},
{
closed = 1;
nodes = (
"118 596 OFFCURVE",
"132 610 OFFCURVE",
"132 631 CURVE SMOOTH",
"132 652 OFFCURVE",
"118 666 OFFCURVE",
"102 666 CURVE SMOOTH",
"86 666 OFFCURVE",
"72 652 OFFCURVE",
"72 631 CURVE SMOOTH",
"72 610 OFFCURVE",
"86 596 OFFCURVE",
"102 596 CURVE SMOOTH"
);
}
);
};
layerId = "0B1DFD06-3317-40CA-B510-4969A0718C16";
paths = (
{
closed = 1;
nodes = (
"138 8 LINE",
"121 24 OFFCURVE",
"117 32 OFFCURVE",
"117 50 CURVE SMOOTH",
"117 470 LINE",
"87 470 LINE",
"87 56 LINE SMOOTH",
"87 22 OFFCURVE",
"95 5 OFFCURVE",
"119 -10 CURVE"
);
},
{
closed = 1;
nodes = (
"119 601 OFFCURVE",
"132 614 OFFCURVE",
"132 631 CURVE SMOOTH",
"132 648 OFFCURVE",
"119 661 OFFCURVE",
"102 661 CURVE SMOOTH",
"85 661 OFFCURVE",
"72 648 OFFCURVE",
"72 631 CURVE SMOOTH",
"72 614 OFFCURVE",
"85 601 OFFCURVE",
"102 601 CURVE SMOOTH"
);
}
);
width = 207;
},
{
anchors = (
{
name = bottom;
position = "{104, 0}";
}
);
layerId = "204D14C0-8C16-4EB3-B338-290668FF7982";
paths = (
{
closed = 1;
nodes = (
"213 64 LINE",
"179 89 OFFCURVE",
"165 107 OFFCURVE",
"165 145 CURVE SMOOTH",
"165 470 LINE",
"35 470 LINE",
"35 141 LINE SMOOTH",
"35 61 OFFCURVE",
"58 23 OFFCURVE",
"126 -12 CURVE"
);
},
{
closed = 1;
nodes = (
"140 533 OFFCURVE",
"175 567 OFFCURVE",
"175 608 CURVE SMOOTH",
"175 648 OFFCURVE",
"140 683 OFFCURVE",
"100 683 CURVE SMOOTH",
"59 683 OFFCURVE",
"25 648 OFFCURVE",
"25 608 CURVE SMOOTH",
"25 567 OFFCURVE",
"59 533 OFFCURVE",
"100 533 CURVE SMOOTH"
);
}
);
width = 207;
}
);
note = i;
unicode = 0069;
},
{
color = 8;
glyphname = j;
lastChange = "2018-03-29 07:56:56 +0000";
layers = (
{
background = {
paths = (
{
closed = 1;
nodes = (
"155 596 OFFCURVE",
"169 610 OFFCURVE",
"169 631 CURVE SMOOTH",
"169 652 OFFCURVE",
"155 666 OFFCURVE",
"139 666 CURVE SMOOTH",
"123 666 OFFCURVE",
"109 652 OFFCURVE",
"109 631 CURVE SMOOTH",
"109 610 OFFCURVE",
"123 596 OFFCURVE",
"139 596 CURVE SMOOTH"
);
}
);
};
layerId = "0B1DFD06-3317-40CA-B510-4969A0718C16";
paths = (
{
closed = 1;
nodes = (
"4 -219 LINE SMOOTH",
"100 -219 OFFCURVE",
"154 -165 OFFCURVE",
"154 -67 CURVE SMOOTH",
"154 470 LINE",
"124 470 LINE",
"124 -67 LINE SMOOTH",
"124 -148 OFFCURVE",
"81 -193 OFFCURVE",
"4 -193 CURVE SMOOTH",
"-40 -193 LINE",
"-40 -219 LINE"
);
},
{
closed = 1;
nodes = (
"156 601 OFFCURVE",
"169 614 OFFCURVE",
"169 631 CURVE SMOOTH",
"169 648 OFFCURVE",
"156 661 OFFCURVE",
"139 661 CURVE SMOOTH",
"122 661 OFFCURVE",
"109 648 OFFCURVE",
"109 631 CURVE SMOOTH",
"109 614 OFFCURVE",
"122 601 OFFCURVE",
"139 601 CURVE SMOOTH"
);
}
);
width = 252;
},
{
background = {
paths = (
{
closed = 1;
nodes = (
"57 576 OFFCURVE",
"93 542 OFFCURVE",
"139 542 CURVE SMOOTH",
"186 542 OFFCURVE",
"222 576 OFFCURVE",
"222 621 CURVE SMOOTH",
"222 666 OFFCURVE",
"186 700 OFFCURVE",
"139 700 CURVE SMOOTH",
"93 700 OFFCURVE",
"57 666 OFFCURVE",
"57 621 CURVE SMOOTH"
);
},
{
closed = 1;
nodes = (
"-1 -239 LINE",
"162 -237 OFFCURVE",
"212 -170 OFFCURVE",
"212 -61 CURVE SMOOTH",
"212 471 LINE",
"68 471 LINE",
"68 -62 LINE SMOOTH",
"68 -104 OFFCURVE",
"49 -127 OFFCURVE",
"-1 -131 CURVE"
);
}
);
};
layerId = "204D14C0-8C16-4EB3-B338-290668FF7982";
paths = (
{
closed = 1;
nodes = (
"-48 -235 LINE SMOOTH",
"119 -235 OFFCURVE",
"179 -181 OFFCURVE",
"179 -29 CURVE SMOOTH",
"179 470 LINE",
"49 470 LINE",
"49 -29 LINE SMOOTH",
"49 -107 OFFCURVE",
"24 -135 OFFCURVE",
"-48 -135 CURVE SMOOTH",
"-100 -135 LINE",
"-100 -235 LINE"
);
},
{
closed = 1;
nodes = (
"155 533 OFFCURVE",
"189 567 OFFCURVE",
"189 608 CURVE SMOOTH",
"189 648 OFFCURVE",
"155 683 OFFCURVE",
"114 683 CURVE SMOOTH",
"74 683 OFFCURVE",
"39 648 OFFCURVE",
"39 608 CURVE SMOOTH",
"39 567 OFFCURVE",
"74 533 OFFCURVE",
"114 533 CURVE SMOOTH"
);
}
);
width = 227;
}
);
note = j;
unicode = 006A;
},
{
color = 8;
glyphname = k;
lastChange = "2018-03-30 06:47:59 +0000";
layers = (
{
anchors = (
{
name = bottom;
position = "{238, 0}";
},
{
name = top;
position = "{238, 470}";
}
);
background = {
paths = (
{
closed = 1;
nodes = (
"469 -4 OFFCURVE",
"488 1 OFFCURVE",
"500 10 CURVE",
"495 34 LINE",
"488 32 OFFCURVE",
"477 31 OFFCURVE",
"470 31 CURVE SMOOTH",
"424 31 OFFCURVE",
"409 75 OFFCURVE",
"393 167 CURVE SMOOTH",
"388 195 LINE SMOOTH",
"373 278 OFFCURVE",
"336 312 OFFCURVE",
"266 323 CURVE",
"446 500 LINE",
"379 500 LINE",
"138 267 LINE",
"138 700 LINE",
"111 700 LINE",
"46 676 LINE",
"42 658 LINE",
"82 638 LINE",
"82 0 LINE",
"138 0 LINE",
"138 196 LINE",
"232 288 LINE",
"287 285 OFFCURVE",
"315 264 OFFCURVE",
"332 181 CURVE SMOOTH",
"338 148 LINE SMOOTH",
"356 45 OFFCURVE",
"383 -4 OFFCURVE",
"449 -4 CURVE SMOOTH"
);
},
{
closed = 1;
nodes = (
"443 470 LINE",
"402 470 LINE",
"107 187 LINE",
"101 142 LINE"
);
},
{
closed = 1;
nodes = (
"111 0 LINE",
"111 636 LINE SMOOTH",
"111 670 OFFCURVE",
"104 687 OFFCURVE",
"81 702 CURVE",
"60 684 LINE",
"77 668 OFFCURVE",
"81 660 OFFCURVE",
"81 642 CURVE SMOOTH",
"81 0 LINE"
);
},
{
closed = 1;
nodes = (
"457 0 LINE",
"385 170 LINE SMOOTH",
"362 223 OFFCURVE",
"337 279 OFFCURVE",
"227 279 CURVE",
"207 253 LINE",
"315 253 OFFCURVE",
"333 219 OFFCURVE",
"354 170 CURVE SMOOTH",
"426 0 LINE"
);
}
);
};
layerId = "0B1DFD06-3317-40CA-B510-4969A0718C16";
paths = (
{
closed = 1;
nodes = (
"433 470 LINE",
"392 470 LINE",
"107 187 LINE",
"101 142 LINE"
);
},
{
closed = 1;
nodes = (
"111 0 LINE",
"111 643 LINE SMOOTH",
"111 677 OFFCURVE",
"104 694 OFFCURVE",
"81 709 CURVE",
"60 691 LINE",
"77 675 OFFCURVE",
"81 667 OFFCURVE",
"81 649 CURVE SMOOTH",
"81 0 LINE"
);
},
{
closed = 1;
nodes = (
"427 0 LINE",
"385 170 LINE SMOOTH",
"368 240 OFFCURVE",
"337 299 OFFCURVE",
"227 299 CURVE",
"207 273 LINE",
"315 273 OFFCURVE",
"338 234 OFFCURVE",
"354 170 CURVE SMOOTH",
"396 0 LINE"
);
}
);
width = 487;
},
{
anchors = (
{
name = bottom;
position = "{290, 0}";
},
{
name = top;
position = "{290, 470}";
}
);
guideLines = (
{
angle = 90;
position = "{578, 308}";
}
);
layerId = "204D14C0-8C16-4EB3-B338-290668FF7982";
paths = (
{
closed = 1;
nodes = (
"517 470 LINE",
"359 470 LINE",
"74 177 LINE",
"185 132 LINE"
);
},
{
closed = 1;
nodes = (
"203 0 LINE",
"203 597 LINE SMOOTH",
"203 677 OFFCURVE",
"180 715 OFFCURVE",
"112 750 CURVE",
"25 674 LINE",
"59 649 OFFCURVE",
"73 631 OFFCURVE",
"73 593 CURVE SMOOTH",
"73 0 LINE"
);
},
{
closed = 1;
nodes = (
"523 0 LINE",
"479 158 LINE SMOOTH",
"447 272 OFFCURVE",
"407 315 OFFCURVE",
"294 315 CURVE",
"226 219 LINE",
"314 219 OFFCURVE",
"334 200 OFFCURVE",
"346 158 CURVE SMOOTH",
"390 0 LINE"
);
}
);
width = 539;
}
);
leftMetricsKey = l;
note = k;
unicode = 006B;
},
{
color = 8;
glyphname = l;
lastChange = "2018-03-29 13:53:15 +0000";
layers = (
{
anchors = (
{
name = bottom;
position = "{104, 0}";
},
{
name = center;
position = "{96, 235}";
},
{
name = top;
position = "{93, 700}";
},
{
name = topright;
position = "{171, 470}";
}
);
background = {
paths = (
{
closed = 1;
nodes = (
"111 0 LINE",
"111 644 LINE SMOOTH",
"111 678 OFFCURVE",
"103 695 OFFCURVE",
"79 710 CURVE",
"60 692 LINE",
"77 676 OFFCURVE",
"81 668 OFFCURVE",
"81 650 CURVE SMOOTH",
"81 0 LINE"
);
}
);
};
layerId = "0B1DFD06-3317-40CA-B510-4969A0718C16";
paths = (
{
closed = 1;
nodes = (
"111 644 LINE SMOOTH",
"111 678 OFFCURVE",
"103 695 OFFCURVE",
"79 710 CURVE",
"60 692 LINE",
"77 676 OFFCURVE",
"81 668 OFFCURVE",
"81 650 CURVE SMOOTH",
"81 56 LINE SMOOTH",
"81 22 OFFCURVE",
"89 5 OFFCURVE",
"113 -10 CURVE",
"132 8 LINE",
"115 24 OFFCURVE",
"111 32 OFFCURVE",
"111 50 CURVE SMOOTH"
);
}
);
width = 191;
},
{
anchors = (
{
name = bottom;
position = "{163, 0}";
},
{
name = center;
position = "{96, 235}";
},
{
name = top;
position = "{128, 740}";
},
{
name = topright;
position = "{171, 470}";
}
);
background = {
paths = (
{
closed = 1;
nodes = (
"111 644 LINE SMOOTH",
"111 678 OFFCURVE",
"103 695 OFFCURVE",
"79 710 CURVE",
"60 692 LINE",
"77 676 OFFCURVE",
"81 668 OFFCURVE",
"81 650 CURVE SMOOTH",
"81 56 LINE SMOOTH",
"81 22 OFFCURVE",
"89 5 OFFCURVE",
"113 -10 CURVE",
"132 8 LINE",
"115 24 OFFCURVE",
"111 32 OFFCURVE",
"111 50 CURVE SMOOTH"
);
}
);
};
layerId = "204D14C0-8C16-4EB3-B338-290668FF7982";
paths = (
{
closed = 1;
nodes = (
"251 64 LINE",
"217 89 OFFCURVE",
"203 107 OFFCURVE",
"203 145 CURVE SMOOTH",
"203 597 LINE SMOOTH",
"203 677 OFFCURVE",
"180 715 OFFCURVE",
"112 750 CURVE",
"25 674 LINE",
"59 649 OFFCURVE",
"73 631 OFFCURVE",
"73 593 CURVE SMOOTH",
"73 141 LINE SMOOTH",
"73 61 OFFCURVE",
"96 23 OFFCURVE",
"164 -12 CURVE"
);
}
);
width = 248;
}
);
note = l;
unicode = 006C;
},
{
color = 8;
glyphname = m;
lastChange = "2018-03-29 10:00:41 +0000";
layers = (
{
anchors = (
{
name = bottom;
position = "{418, 0}";
},
{
name = top;
position = "{418, 470}";
}
);
background = {
paths = (
{
closed = 1;
nodes = (
"123 0 LINE",
"123 414 LINE SMOOTH",
"123 448 OFFCURVE",
"115 465 OFFCURVE",
"91 480 CURVE",
"72 462 LINE",
"89 446 OFFCURVE",
"93 438 OFFCURVE",
"93 420 CURVE SMOOTH",
"93 0 LINE"
);
},
{
closed = 1;
nodes = (
"751 0 LINE",
"751 322 LINE SMOOTH",
"751 419 OFFCURVE",
"699 480 OFFCURVE",
"622 480 CURVE SMOOTH",
"511 480 OFFCURVE",
"456 404 OFFCURVE",
"432 321 CURVE",
"435 241 LINE",
"447 334 OFFCURVE",
"498 454 OFFCURVE",
"614 454 CURVE SMOOTH",
"682 454 OFFCURVE",
"721 403 OFFCURVE",
"721 312 CURVE SMOOTH",
"721 0 LINE"
);
},
{
closed = 1;
nodes = (
"437 0 LINE",
"437 322 LINE SMOOTH",
"437 419 OFFCURVE",
"385 480 OFFCURVE",
"308 480 CURVE SMOOTH",
"197 480 OFFCURVE",
"142 404 OFFCURVE",
"118 321 CURVE",
"121 241 LINE",
"133 334 OFFCURVE",
"184 454 OFFCURVE",
"300 454 CURVE SMOOTH",
"368 454 OFFCURVE",
"407 403 OFFCURVE",
"407 312 CURVE SMOOTH",
"407 0 LINE"
);
}
);
};
layerId = "0B1DFD06-3317-40CA-B510-4969A0718C16";
paths = (
{
closed = 1;
nodes = (
"123 0 LINE",
"123 254.56 LINE",
"138.045 345.241 OFFCURVE",
"189.567 454 OFFCURVE",
"300 454 CURVE SMOOTH",
"368 454 OFFCURVE",
"407 403 OFFCURVE",
"407 312 CURVE SMOOTH",
"407 0 LINE",
"437 0 LINE",
"437 254.56 LINE",
"452.045 345.241 OFFCURVE",
"503.567 454 OFFCURVE",
"614 454 CURVE SMOOTH",
"682 454 OFFCURVE",
"721 403 OFFCURVE",
"721 312 CURVE SMOOTH",
"721 0 LINE",
"751 0 LINE",
"751 322 LINE SMOOTH",
"751 419 OFFCURVE",
"699 480 OFFCURVE",
"622 480 CURVE SMOOTH",
"517.633 480 OFFCURVE",
"462.773 412.811 OFFCURVE",
"436.64 335.789 CURVE",
"431.923 424.746 OFFCURVE",
"381.284 480 OFFCURVE",
"308 480 CURVE SMOOTH",
"192 480 OFFCURVE",
"137 397 OFFCURVE",
"115 309 CURVE",
"123 292 LINE",
"123 414 LINE SMOOTH",
"123 448 OFFCURVE",
"115 465 OFFCURVE",
"91 480 CURVE",
"72 462 LINE",
"89 446 OFFCURVE",
"93 438 OFFCURVE",
"93 420 CURVE SMOOTH",
"93 0 LINE"
);
}
);
width = 836;
},
{
anchors = (
{
name = bottom;
position = "{399, 0}";
},
{
name = top;
position = "{418, 470}";
}
);
background = {
paths = (
{
closed = 0;
nodes = (
"478 0 LINE"
);
},
{
closed = 1;
nodes = (
"203 0 LINE",
"203 329 LINE SMOOTH",
"203 409 OFFCURVE",
"180 447 OFFCURVE",
"112 482 CURVE",
"25 406 LINE",
"59 381 OFFCURVE",
"73 363 OFFCURVE",
"73 325 CURVE SMOOTH",
"73 0 LINE"
);
},
{
closed = 1;
nodes = (
"753 0 LINE",
"753 320 LINE SMOOTH",
"753 424 OFFCURVE",
"700 482 OFFCURVE",
"603 482 CURVE SMOOTH",
"515 482 OFFCURVE",
"471 429 OFFCURVE",
"452 376 CURVE",
"468 273 LINE",
"480 321 OFFCURVE",
"502 382 OFFCURVE",
"565 382 CURVE SMOOTH",
"601 382 OFFCURVE",
"623 353 OFFCURVE",
"623 308 CURVE SMOOTH",
"623 0 LINE"
);
},
{
closed = 1;
nodes = (
"478 0 LINE",
"478 320 LINE SMOOTH",
"478 424 OFFCURVE",
"425 482 OFFCURVE",
"328 482 CURVE SMOOTH",
"240 482 OFFCURVE",
"196 429 OFFCURVE",
"177 376 CURVE",
"193 273 LINE",
"205 321 OFFCURVE",
"227 382 OFFCURVE",
"290 382 CURVE SMOOTH",
"326 382 OFFCURVE",
"348 353 OFFCURVE",
"348 308 CURVE SMOOTH",
"348 0 LINE"
);
}
);
};
layerId = "204D14C0-8C16-4EB3-B338-290668FF7982";
paths = (
{
closed = 1;
nodes = (
"203 0 LINE",
"203 306.609 LINE",
"217.008 345.411 OFFCURVE",
"241.208 382 OFFCURVE",
"290 382 CURVE SMOOTH",
"326 382 OFFCURVE",
"348 353 OFFCURVE",
"348 308 CURVE SMOOTH",
"348 0 LINE",
"478 0 LINE",
"478 307 LINE",
"492 345 OFFCURVE",
"516.208 382 OFFCURVE",
"565 382 CURVE SMOOTH",
"601 382 OFFCURVE",
"623 353 OFFCURVE",
"623 308 CURVE SMOOTH",
"623 0 LINE",
"753 0 LINE",
"753 320 LINE SMOOTH",
"753 424 OFFCURVE",
"700 482 OFFCURVE",
"603 482 CURVE SMOOTH",
"529.476 482 OFFCURVE",
"486.667 445.003 OFFCURVE",
"463.491 401.92 CURVE",
"441.614 453.962 OFFCURVE",
"395.442 482 OFFCURVE",
"328 482 CURVE SMOOTH",
"254 482 OFFCURVE",
"208 446 OFFCURVE",
"177 381 CURVE",
"202 325 LINE",
"202 346 LINE SMOOTH",
"202 395 OFFCURVE",
"186 446 OFFCURVE",
"112 482 CURVE",
"25 406 LINE",
"59 381 OFFCURVE",
"73 363 OFFCURVE",
"73 325 CURVE SMOOTH",
"73 0 LINE"
);
}
);
width = 798;
}
);
leftMetricsKey = n;
note = m;
rightMetricsKey = n;
unicode = 006D;
},
{
color = 8;
glyphname = n;
lastChange = "2018-04-01 07:17:41 +0000";
layers = (
{
anchors = (
{
name = bottom;
position = "{270, 0}";
},
{
name = top;
position = "{270, 470}";
}
);
layerId = "0B1DFD06-3317-40CA-B510-4969A0718C16";
paths = (
{
closed = 1;
nodes = (
"454 0 LINE",
"454 322 LINE SMOOTH",
"454 419 OFFCURVE",
"398 480 OFFCURVE",
"314 480 CURVE SMOOTH",
"200 480 OFFCURVE",
"143 404 OFFCURVE",
"118 321 CURVE",
"121 241 LINE",
"133 334 OFFCURVE",
"186 454 OFFCURVE",
"306 454 CURVE SMOOTH",
"381 454 OFFCURVE",
"424 403 OFFCURVE",
"424 312 CURVE SMOOTH",
"424 0 LINE"
);
},
{
closed = 1;
nodes = (
"123 0 LINE",
"123 414 LINE SMOOTH",
"123 448 OFFCURVE",
"115 465 OFFCURVE",
"91 480 CURVE",
"72 462 LINE",
"89 446 OFFCURVE",
"93 438 OFFCURVE",
"93 420 CURVE SMOOTH",
"93 0 LINE"
);
}
);
width = 539;
},
{
anchors = (
{
name = bottom;
position = "{285, 0}";
},
{
name = top;
position = "{271, 470}";
}
);
background = {
paths = (
{
closed = 1;
nodes = (
"496 0 LINE",
"496 320 LINE SMOOTH",
"496 424 OFFCURVE",
"439 482 OFFCURVE",
"336 482 CURVE SMOOTH",
"249 482 OFFCURVE",
"206 418 OFFCURVE",
"187 355 CURVE",
"193 273 LINE",
"206 321 OFFCURVE",
"230 382 OFFCURVE",
"298 382 CURVE SMOOTH",
"340 382 OFFCURVE",
"366 353 OFFCURVE",
"366 308 CURVE SMOOTH",
"366 0 LINE"
);
},
{
closed = 1;
nodes = (
"73 0 LINE",
"204 0 LINE",
"204 309 LINE SMOOTH",
"204 398 OFFCURVE",
"179 442 OFFCURVE",
"104 482 CURVE",
"21 403 LINE",
"64 377 OFFCURVE",
"73 364 OFFCURVE",
"73 335 CURVE SMOOTH"
);
}
);
};
layerId = "204D14C0-8C16-4EB3-B338-290668FF7982";
paths = (
{
closed = 1;
nodes = (
"496 0 LINE",
"496 320 LINE SMOOTH",
"496 424 OFFCURVE",
"439 482 OFFCURVE",
"336 482 CURVE SMOOTH",
"243 482 OFFCURVE",
"197 429 OFFCURVE",
"177 376 CURVE",
"193 273 LINE",
"206 321 OFFCURVE",
"230 382 OFFCURVE",
"298 382 CURVE SMOOTH",
"340 382 OFFCURVE",
"366 353 OFFCURVE",
"366 308 CURVE SMOOTH",
"366 0 LINE"
);
},
{
closed = 1;
nodes = (
"203 0 LINE",
"203 329 LINE SMOOTH",
"203 409 OFFCURVE",
"180 447 OFFCURVE",
"112 482 CURVE",
"25 406 LINE",
"59 381 OFFCURVE",
"73 363 OFFCURVE",
"73 325 CURVE SMOOTH",
"73 0 LINE"
);
}
);
width = 551;
}
);
note = n;
unicode = 006E;
},
{
color = 8;
glyphname = o;
lastChange = "2018-04-01 07:17:08 +0000";
layers = (
{
anchors = (
{
name = bottom;
position = "{254, 0}";
},
{
name = center;
position = "{254, 235}";
},
{
name = ogonek;
position = "{457, 10}";
},
{
name = top;
position = "{254, 470}";
},
{
name = topright;
position = "{424, 470}";
}
);
background = {
paths = (
{
closed = 1;
nodes = (
"391 -10 OFFCURVE",
"443 74 OFFCURVE",
"443 169 CURVE SMOOTH",
"443 301 LINE SMOOTH",
"443 396 OFFCURVE",
"391 480 OFFCURVE",
"254 480 CURVE SMOOTH",
"117 480 OFFCURVE",
"65 396 OFFCURVE",
"65 301 CURVE SMOOTH",
"65 169 LINE SMOOTH",
"65 74 OFFCURVE",
"117 -10 OFFCURVE",
"254 -10 CURVE SMOOTH"
);
},
{
closed = 1;
nodes = (
"136 16 OFFCURVE",
"95 89 OFFCURVE",
"95 169 CURVE SMOOTH",
"95 301 LINE SMOOTH",
"95 381 OFFCURVE",
"136 454 OFFCURVE",
"254 454 CURVE SMOOTH",
"372 454 OFFCURVE",
"413 381 OFFCURVE",
"413 301 CURVE SMOOTH",
"413 169 LINE SMOOTH",
"413 89 OFFCURVE",
"372 16 OFFCURVE",
"254 16 CURVE SMOOTH"
);
}
);
};
layerId = "0B1DFD06-3317-40CA-B510-4969A0718C16";
paths = (
{
closed = 1;
nodes = (
"391 -10 OFFCURVE",
"443 74 OFFCURVE",
"443 169 CURVE SMOOTH",
"443 301 LINE SMOOTH",
"443 396 OFFCURVE",
"391 480 OFFCURVE",
"254 480 CURVE SMOOTH",
"117 480 OFFCURVE",
"65 396 OFFCURVE",
"65 301 CURVE SMOOTH",
"65 169 LINE SMOOTH",
"65 74 OFFCURVE",
"117 -10 OFFCURVE",
"254 -10 CURVE SMOOTH"
);
},
{
closed = 1;
nodes = (
"136 16 OFFCURVE",
"95 89 OFFCURVE",
"95 169 CURVE SMOOTH",
"95 301 LINE SMOOTH",
"95 381 OFFCURVE",
"136 454 OFFCURVE",
"254 454 CURVE SMOOTH",
"372 454 OFFCURVE",
"413 381 OFFCURVE",
"413 301 CURVE SMOOTH",
"413 169 LINE SMOOTH",
"413 89 OFFCURVE",
"372 16 OFFCURVE",
"254 16 CURVE SMOOTH"
);
}
);
width = 508;
},
{
anchors = (
{
name = bottom;
position = "{260, 0}";
},
{
name = center;
position = "{260, 242}";
},
{
name = ogonek;
position = "{463, 10}";
},
{
name = top;
position = "{260, 470}";
},
{
name = topright;
position = "{421, 470}";
}
);
background = {
paths = (
{
closed = 1;
nodes = (
"399 -12 OFFCURVE",
"476 53 OFFCURVE",
"476 171 CURVE SMOOTH",
"476 299 LINE SMOOTH",
"476 417 OFFCURVE",
"399 482 OFFCURVE",
"260 482 CURVE SMOOTH",
"121 482 OFFCURVE",
"44 417 OFFCURVE",
"44 299 CURVE SMOOTH",
"44 171 LINE SMOOTH",
"44 53 OFFCURVE",
"121 -12 OFFCURVE",
"260 -12 CURVE SMOOTH"
);
},
{
closed = 1;
nodes = (
"205 88 OFFCURVE",
"174 117 OFFCURVE",
"174 171 CURVE SMOOTH",
"174 299 LINE SMOOTH",
"174 353 OFFCURVE",
"205 382 OFFCURVE",
"260 382 CURVE SMOOTH",
"315 382 OFFCURVE",
"346 353 OFFCURVE",
"346 299 CURVE SMOOTH",
"346 171 LINE SMOOTH",
"346 117 OFFCURVE",
"315 88 OFFCURVE",
"260 88 CURVE SMOOTH"
);
}
);
};
layerId = "204D14C0-8C16-4EB3-B338-290668FF7982";
paths = (
{
closed = 1;
nodes = (
"399 -12 OFFCURVE",
"476 54 OFFCURVE",
"476 173 CURVE SMOOTH",
"476 297 LINE SMOOTH",
"476 416 OFFCURVE",
"399 482 OFFCURVE",
"260 482 CURVE SMOOTH",
"121 482 OFFCURVE",
"44 416 OFFCURVE",
"44 297 CURVE SMOOTH",
"44 173 LINE SMOOTH",
"44 54 OFFCURVE",
"121 -12 OFFCURVE",
"260 -12 CURVE SMOOTH"
);
},
{
closed = 1;
nodes = (
"205 88 OFFCURVE",
"174 118 OFFCURVE",
"174 173 CURVE SMOOTH",
"174 297 LINE SMOOTH",
"174 352 OFFCURVE",
"205 382 OFFCURVE",
"260 382 CURVE SMOOTH",
"315 382 OFFCURVE",
"346 352 OFFCURVE",
"346 297 CURVE SMOOTH",
"346 173 LINE SMOOTH",
"346 118 OFFCURVE",
"315 88 OFFCURVE",
"260 88 CURVE SMOOTH"
);
}
);
width = 520;
}
);
note = o;
rightMetricsKey = "=|";
unicode = 006F;
},
{
color = 8;
glyphname = p;
lastChange = "2018-03-30 06:47:50 +0000";
layers = (
{
anchors = (
{
name = bottom;
position = "{280, 0}";
},
{
name = top;
position = "{280, 470}";
}
);
background = {
paths = (
{
closed = 1;
nodes = (
"144 -221 LINE",
"127 -205 OFFCURVE",
"123 -197 OFFCURVE",
"123 -179 CURVE SMOOTH",
"123 78 LINE",
"147 35 OFFCURVE",
"196 -10 OFFCURVE",
"290 -10 CURVE SMOOTH",
"427 -10 OFFCURVE",
"493 98 OFFCURVE",
"493 219 CURVE SMOOTH",
"493 251 LINE SMOOTH",
"493 372 OFFCURVE",
"427 480 OFFCURVE",
"290 480 CURVE SMOOTH",
"196 480 OFFCURVE",
"147 437 OFFCURVE",
"123 395 CURVE",
"123 414 LINE SMOOTH",
"123 448 OFFCURVE",
"115 465 OFFCURVE",
"91 480 CURVE",
"72 462 LINE",
"89 446 OFFCURVE",
"93 438 OFFCURVE",
"93 420 CURVE SMOOTH",
"93 -173 LINE SMOOTH",
"93 -207 OFFCURVE",
"101 -224 OFFCURVE",
"125 -239 CURVE"
);
},
{
closed = 1;
nodes = (
"215 16 OFFCURVE",
"123 52 OFFCURVE",
"123 179 CURVE SMOOTH",
"123 291 LINE SMOOTH",
"123 416 OFFCURVE",
"215 454 OFFCURVE",
"290 454 CURVE SMOOTH",
"408 454 OFFCURVE",
"463 357 OFFCURVE",
"463 251 CURVE SMOOTH",
"463 219 LINE SMOOTH",
"463 113 OFFCURVE",
"408 16 OFFCURVE",
"290 16 CURVE SMOOTH"
);
},
{
closed = 0;
nodes = (
"123 -227 LINE"
);
}
);
};
layerId = "0B1DFD06-3317-40CA-B510-4969A0718C16";
paths = (
{
closed = 1;
nodes = (
"123 -219 LINE",
"123 78 LINE",
"147 35 OFFCURVE",
"196 -10 OFFCURVE",
"290 -10 CURVE SMOOTH",
"427 -10 OFFCURVE",
"493 98 OFFCURVE",
"493 219 CURVE SMOOTH",
"493 251 LINE SMOOTH",
"493 372 OFFCURVE",
"427 480 OFFCURVE",
"290 480 CURVE SMOOTH",
"196 480 OFFCURVE",
"147 437 OFFCURVE",
"123 395 CURVE",
"123 414 LINE SMOOTH",
"123 448 OFFCURVE",
"115 465 OFFCURVE",
"91 480 CURVE",
"72 462 LINE",
"89 446 OFFCURVE",
"93 438 OFFCURVE",
"93 420 CURVE SMOOTH",
"93 -219 LINE"
);
},
{
closed = 1;
nodes = (
"215 16 OFFCURVE",
"123 52 OFFCURVE",
"123 179 CURVE SMOOTH",
"123 291 LINE SMOOTH",
"123 416 OFFCURVE",
"215 454 OFFCURVE",
"290 454 CURVE SMOOTH",
"408 454 OFFCURVE",
"463 357 OFFCURVE",
"463 251 CURVE SMOOTH",
"463 219 LINE SMOOTH",
"463 113 OFFCURVE",
"408 16 OFFCURVE",
"290 16 CURVE SMOOTH"
);
}
);
width = 556;
},
{
anchors = (
{
name = bottom;
position = "{326, 0}";
},
{
name = top;
position = "{326, 470}";
}
);
background = {
paths = (
{
closed = 0;
nodes = (
"73 358 LINE",
"73 -219 LINE",
"203 -219 LINE",
"203 49 LINE",
"231 16 OFFCURVE",
"273 -12 OFFCURVE",
"348 -12 CURVE SMOOTH",
"486 -12 OFFCURVE",
"553 97 OFFCURVE",
"553 219 CURVE SMOOTH",
"553 251 LINE SMOOTH",
"553 373 OFFCURVE",
"486 482 OFFCURVE",
"348 482 CURVE SMOOTH",
"260 482 OFFCURVE",
"217 440 OFFCURVE",
"189 393 CURVE",
"176 369 LINE",
"203 369 LINE",
"203 329 LINE",
"203 409 OFFCURVE",
"180 447 OFFCURVE",
"112 482 CURVE",
"25 406 LINE",
"59 381 OFFCURVE",
"73 363 OFFCURVE",
"73 325 CURVE SMOOTH",
"73 180 LINE"
);
},
{
closed = 1;
nodes = (
"259 88 OFFCURVE",
"203 113 OFFCURVE",
"203 203 CURVE SMOOTH",
"203 267 LINE SMOOTH",
"204 357 OFFCURVE",
"259 382 OFFCURVE",
"310 382 CURVE SMOOTH",
"387 382 OFFCURVE",
"423 319 OFFCURVE",
"423 251 CURVE SMOOTH",
"423 219 LINE SMOOTH",
"423 151 OFFCURVE",
"387 88 OFFCURVE",
"310 88 CURVE SMOOTH"
);
}
);
};
layerId = "204D14C0-8C16-4EB3-B338-290668FF7982";
paths = (
{
closed = 1;
nodes = (
"203 -219 LINE",
"203 49 LINE",
"231 13 OFFCURVE",
"267 -12 OFFCURVE",
"348 -12 CURVE SMOOTH",
"486 -12 OFFCURVE",
"553 97 OFFCURVE",
"553 219 CURVE SMOOTH",
"553 251 LINE SMOOTH",
"553 373 OFFCURVE",
"486 482 OFFCURVE",
"348 482 CURVE SMOOTH",
"266 482 OFFCURVE",
"213 444 OFFCURVE",
"179 376 CURVE",
"200 376 LINE",
"191 426 OFFCURVE",
"165 455 OFFCURVE",
"112 482 CURVE",
"25 406 LINE",
"59 381 OFFCURVE",
"73 362 OFFCURVE",
"73 325 CURVE SMOOTH",
"73 -219 LINE"
);
},
{
closed = 1;
nodes = (
"259 88 OFFCURVE",
"203 113 OFFCURVE",
"203 203 CURVE SMOOTH",
"203 267 LINE SMOOTH",
"204 357 OFFCURVE",
"259 382 OFFCURVE",
"310 382 CURVE SMOOTH",
"387 382 OFFCURVE",
"423 319 OFFCURVE",
"423 251 CURVE SMOOTH",
"423 219 LINE SMOOTH",
"423 151 OFFCURVE",
"387 88 OFFCURVE",
"310 88 CURVE SMOOTH"
);
}
);
width = 602;
}
);
leftMetricsKey = n;
note = p;
unicode = 0070;
},
{
color = 8;
glyphname = q;
lastChange = "2018-03-29 07:58:18 +0000";
layers = (
{
anchors = (
{
name = bottom;
position = "{278, 0}";
},
{
name = top;
position = "{278, 470}";
}
);
background = {
paths = (
{
closed = 0;
nodes = (
"556 420 LINE SMOOTH",
"556 438 OFFCURVE",
"560 446 OFFCURVE",
"577 462 CURVE",
"558 480 LINE",
"534 465 OFFCURVE",
"526 448 OFFCURVE",
"526 414 CURVE SMOOTH",
"526 395 LINE"
);
}
);
};
layerId = "0B1DFD06-3317-40CA-B510-4969A0718C16";
paths = (
{
closed = 1;
nodes = (
"463 -219 LINE",
"463 470 LINE",
"433 470 LINE",
"433 395 LINE",
"409 437 OFFCURVE",
"360 480 OFFCURVE",
"266 480 CURVE SMOOTH",
"129 480 OFFCURVE",
"63 372 OFFCURVE",
"63 251 CURVE SMOOTH",
"63 219 LINE SMOOTH",
"63 98 OFFCURVE",
"129 -10 OFFCURVE",
"266 -10 CURVE SMOOTH",
"360 -10 OFFCURVE",
"409 35 OFFCURVE",
"433 78 CURVE",
"433 -219 LINE"
);
},
{
closed = 1;
nodes = (
"148 16 OFFCURVE",
"93 113 OFFCURVE",
"93 219 CURVE SMOOTH",
"93 251 LINE SMOOTH",
"93 357 OFFCURVE",
"148 454 OFFCURVE",
"266 454 CURVE SMOOTH",
"341 454 OFFCURVE",
"433 418 OFFCURVE",
"433 291 CURVE SMOOTH",
"433 179 LINE SMOOTH",
"433 52 OFFCURVE",
"341 16 OFFCURVE",
"266 16 CURVE SMOOTH"
);
}
);
width = 556;
},
{
anchors = (
{
name = bottom;
position = "{278, 0}";
},
{
name = top;
position = "{278, 470}";
}
);
background = {
paths = (
{
closed = 1;
nodes = (
"373 203 LINE",
"373 113 OFFCURVE",
"317 88 OFFCURVE",
"266 88 CURVE SMOOTH",
"189 88 OFFCURVE",
"153 151 OFFCURVE",
"153 219 CURVE SMOOTH",
"153 251 LINE SMOOTH",
"153 319 OFFCURVE",
"189 382 OFFCURVE",
"266 382 CURVE SMOOTH",
"317 382 OFFCURVE",
"372 357 OFFCURVE",
"373 267 CURVE",
"398 385 LINE",
"377 431 OFFCURVE",
"329 482 OFFCURVE",
"228 482 CURVE SMOOTH",
"90 482 OFFCURVE",
"23 373 OFFCURVE",
"23 251 CURVE SMOOTH",
"23 219 LINE SMOOTH",
"23 97 OFFCURVE",
"90 -12 OFFCURVE",
"228 -12 CURVE SMOOTH",
"328 -12 OFFCURVE",
"377 42 OFFCURVE",
"398 88 CURVE"
);
},
{
closed = 1;
nodes = (
"373 -219 LINE",
"503 -219 LINE",
"503 470 LINE",
"373 470 LINE"
);
}
);
};
layerId = "204D14C0-8C16-4EB3-B338-290668FF7982";
paths = (
{
closed = 1;
nodes = (
"503 -219 LINE",
"503 470 LINE",
"373 470 LINE",
"373 424 LINE",
"345 456 OFFCURVE",
"303 482 OFFCURVE",
"228 482 CURVE SMOOTH",
"90 482 OFFCURVE",
"23 373 OFFCURVE",
"23 251 CURVE SMOOTH",
"23 219 LINE SMOOTH",
"23 78 OFFCURVE",
"103 -12 OFFCURVE",
"228 -12 CURVE SMOOTH",
"303 -12 OFFCURVE",
"345.266 15.813 OFFCURVE",
"373 48.521 CURVE",
"373 -219 LINE"
);
},
{
closed = 1;
nodes = (
"189 88 OFFCURVE",
"153 151 OFFCURVE",
"153 219 CURVE SMOOTH",
"153 251 LINE SMOOTH",
"153 319 OFFCURVE",
"189 382 OFFCURVE",
"266 382 CURVE SMOOTH",
"317 382 OFFCURVE",
"372 357 OFFCURVE",
"373 267 CURVE SMOOTH",
"373 203 LINE SMOOTH",
"373 113 OFFCURVE",
"317 88 OFFCURVE",
"266 88 CURVE SMOOTH"
);
}
);
width = 556;
}
);
note = q;
unicode = 0071;
},
{
color = 8;
glyphname = r;
lastChange = "2018-03-30 06:43:02 +0000";
layers = (
{
anchors = (
{
name = bottom;
position = "{109, 0}";
},
{
name = top;
position = "{185, 470}";
}
);
layerId = "0B1DFD06-3317-40CA-B510-4969A0718C16";
paths = (
{
closed = 1;
nodes = (
"135 308 OFFCURVE",
"181 447 OFFCURVE",
"288 447 CURVE SMOOTH",
"307 447 OFFCURVE",
"324 443 OFFCURVE",
"339 435 CURVE",
"349 469 LINE",
"334 476 OFFCURVE",
"317 480 OFFCURVE",
"298 480 CURVE SMOOTH",
"196 480 OFFCURVE",
"142 393 OFFCURVE",
"120 300 CURVE",
"123 207 LINE"
);
},
{
closed = 1;
nodes = (
"125 0 LINE",
"125 414 LINE SMOOTH",
"125 448 OFFCURVE",
"117 465 OFFCURVE",
"93 480 CURVE",
"72 462 LINE",
"89 446 OFFCURVE",
"93 438 OFFCURVE",
"93 420 CURVE SMOOTH",
"93 0 LINE"
);
}
);
width = 369;
},
{
anchors = (
{
name = bottom;
position = "{138, 0}";
},
{
name = top;
position = "{210, 470}";
}
);
layerId = "204D14C0-8C16-4EB3-B338-290668FF7982";
paths = (
{
closed = 1;
nodes = (
"206 303 OFFCURVE",
"230 372 OFFCURVE",
"298 372 CURVE SMOOTH",
"337 372 OFFCURVE",
"359 363 OFFCURVE",
"385 346 CURVE",
"417 454 LINE",
"391 474 OFFCURVE",
"362 482 OFFCURVE",
"329 482 CURVE SMOOTH",
"240 482 OFFCURVE",
"196 417 OFFCURVE",
"177 351 CURVE",
"193 248 LINE"
);
},
{
closed = 1;
nodes = (
"203 0 LINE",
"203 329 LINE SMOOTH",
"203 409 OFFCURVE",
"180 447 OFFCURVE",
"112 482 CURVE",
"25 406 LINE",
"59 381 OFFCURVE",
"73 363 OFFCURVE",
"73 325 CURVE SMOOTH",
"73 0 LINE"
);
}
);
width = 419;
}
);
leftMetricsKey = n;
note = r;
unicode = 0072;
},
{
color = 8;
glyphname = s;
lastChange = "2018-04-03 11:29:23 +0000";
layers = (
{
anchors = (
{
name = bottom;
position = "{235, 0}";
},
{
name = top;
position = "{222, 470}";
}
);
layerId = "0B1DFD06-3317-40CA-B510-4969A0718C16";
paths = (
{
closed = 1;
nodes = (
"327 -10 OFFCURVE",
"390 36 OFFCURVE",
"390 119 CURVE SMOOTH",
"390 221 OFFCURVE",
"297 241 OFFCURVE",
"215 255 CURVE SMOOTH",
"151 266 OFFCURVE",
"90 283 OFFCURVE",
"90 355 CURVE SMOOTH",
"90 417 OFFCURVE",
"146 454 OFFCURVE",
"215 454 CURVE SMOOTH",
"270 454 OFFCURVE",
"321 440 OFFCURVE",
"355 389 CURVE",
"377 406 LINE",
"348 455 OFFCURVE",
"293 480 OFFCURVE",
"215 480 CURVE SMOOTH",
"135 480 OFFCURVE",
"60 439 OFFCURVE",
"60 357 CURVE SMOOTH",
"60 267 OFFCURVE",
"125 240 OFFCURVE",
"199 227 CURVE SMOOTH",
"276 214 OFFCURVE",
"360 201 OFFCURVE",
"360 121 CURVE SMOOTH",
"360 54 OFFCURVE",
"308 16 OFFCURVE",
"215 16 CURVE SMOOTH",
"138 16 OFFCURVE",
"105 40 OFFCURVE",
"69 85 CURVE",
"48 66 LINE",
"80 23 OFFCURVE",
"122 -10 OFFCURVE",
"215 -10 CURVE SMOOTH"
);
}
);
width = 443;
},
{
anchors = (
{
name = bottom;
position = "{235, 0}";
},
{
name = top;
position = "{222, 470}";
}
);
background = {
paths = (
{
closed = 1;
nodes = (
"345 -12 OFFCURVE",
"410 33 OFFCURVE",
"410 129 CURVE SMOOTH",
"410 237 OFFCURVE",
"327 257 OFFCURVE",
"236 278 CURVE SMOOTH",
"201 286 OFFCURVE",
"153 298 OFFCURVE",
"153 340 CURVE SMOOTH",
"153 375 OFFCURVE",
"176 393 OFFCURVE",
"224 393 CURVE SMOOTH",
"271 393 OFFCURVE",
"293 376 OFFCURVE",
"328 342 CURVE",
"399 402 LINE",
"368 449 OFFCURVE",
"322 482 OFFCURVE",
"224 482 CURVE SMOOTH",
"114 482 OFFCURVE",
"42 428 OFFCURVE",
"42 342 CURVE SMOOTH",
"42 261 OFFCURVE",
"88 214 OFFCURVE",
"177 197 CURVE SMOOTH",
"274 178 OFFCURVE",
"299 163 OFFCURVE",
"299 129 CURVE SMOOTH",
"299 92 OFFCURVE",
"274 77 OFFCURVE",
"215 77 CURVE SMOOTH",
"157 77 OFFCURVE",
"132 94 OFFCURVE",
"96 137 CURVE",
"24 76 LINE",
"63 22 OFFCURVE",
"98 -12 OFFCURVE",
"215 -12 CURVE SMOOTH"
);
}
);
};
layerId = "204D14C0-8C16-4EB3-B338-290668FF7982";
paths = (
{
closed = 1;
nodes = (
"352 -12 OFFCURVE",
"420 33 OFFCURVE",
"420 129 CURVE SMOOTH",
"420 244 OFFCURVE",
"332 266 OFFCURVE",
"236 288 CURVE SMOOTH",
"204 294 OFFCURVE",
"160 305 OFFCURVE",
"160 337 CURVE SMOOTH",
"160 366 OFFCURVE",
"181 382 OFFCURVE",
"224 382 CURVE SMOOTH",
"269 382 OFFCURVE",
"292 366 OFFCURVE",
"324 334 CURVE",
"404 402 LINE",
"373 449 OFFCURVE",
"325 482 OFFCURVE",
"224 482 CURVE SMOOTH",
"111 482 OFFCURVE",
"37 428 OFFCURVE",
"37 342 CURVE SMOOTH",
"37 257 OFFCURVE",
"85 208 OFFCURVE",
"177 190 CURVE SMOOTH",
"272 174 OFFCURVE",
"297 161 OFFCURVE",
"297 132 CURVE SMOOTH",
"297 101 OFFCURVE",
"273 88 OFFCURVE",
"215 88 CURVE SMOOTH",
"161 88 OFFCURVE",
"138 104 OFFCURVE",
"105 145 CURVE",
"24 76 LINE",
"63 22 OFFCURVE",
"98 -12 OFFCURVE",
"215 -12 CURVE SMOOTH"
);
}
);
width = 443;
}
);
note = s;
unicode = 0073;
},
{
color = 8;
glyphname = t;
lastChange = "2018-03-30 06:41:50 +0000";
layers = (
{
anchors = (
{
name = bottom;
position = "{177, 0}";
},
{
name = center;
position = "{139, 235}";
},
{
name = top;
position = "{114, 618}";
},
{
name = topright;
position = "{257, 470}";
}
);
background = {
paths = (
{
closed = 1;
nodes = (
"257 -10 LINE",
"257 16 LINE",
"242 16 LINE SMOOTH",
"165 16 OFFCURVE",
"122 61 OFFCURVE",
"122 142 CURVE SMOOTH",
"122 594 LINE SMOOTH",
"122 628 OFFCURVE",
"114 645 OFFCURVE",
"91 660 CURVE",
"71 642 LINE",
"88 626 OFFCURVE",
"92 618 OFFCURVE",
"92 600 CURVE SMOOTH",
"92 142 LINE SMOOTH",
"92 44 OFFCURVE",
"146 -10 OFFCURVE",
"242 -10 CURVE SMOOTH"
);
},
{
closed = 1;
nodes = (
"107 444 LINE",
"257 444 LINE",
"257 470 LINE",
"108 470 LINE",
"108 442 LINE"
);
},
{
closed = 0;
nodes = (
"92 112 LINE SMOOTH",
"92 33 OFFCURVE",
"132 -10 OFFCURVE",
"202 -10 CURVE SMOOTH"
);
},
{
closed = 0;
nodes = (
"202 16 LINE SMOOTH",
"151 16 OFFCURVE",
"122 50 OFFCURVE",
"122 112 CURVE SMOOTH"
);
}
);
};
layerId = "0B1DFD06-3317-40CA-B510-4969A0718C16";
paths = (
{
closed = 1;
nodes = (
"257 -10 LINE",
"257 16 LINE",
"212 16 LINE SMOOTH",
"154 16 OFFCURVE",
"122 50 OFFCURVE",
"122 112 CURVE SMOOTH",
"122 594 LINE SMOOTH",
"122 628 OFFCURVE",
"114 645 OFFCURVE",
"91 660 CURVE",
"71 642 LINE",
"88 626 OFFCURVE",
"92 618 OFFCURVE",
"92 600 CURVE SMOOTH",
"92 112 LINE SMOOTH",
"92 33 OFFCURVE",
"135 -10 OFFCURVE",
"212 -10 CURVE SMOOTH"
);
},
{
closed = 1;
nodes = (
"107 444 LINE",
"257 444 LINE",
"257 470 LINE",
"108 470 LINE",
"108 442 LINE"
);
}
);
width = 277;
},
{
anchors = (
{
name = bottom;
position = "{239, 0}";
},
{
name = center;
position = "{179, 235}";
},
{
name = top;
position = "{129, 700}";
},
{
name = topright;
position = "{337, 470}";
}
);
layerId = "204D14C0-8C16-4EB3-B338-290668FF7982";
paths = (
{
closed = 1;
nodes = (
"342 0 LINE",
"342 100 LINE",
"263 100 LINE SMOOTH",
"221 100 OFFCURVE",
"206 120 OFFCURVE",
"206 176 CURVE SMOOTH",
"206 547 LINE SMOOTH",
"206 627 OFFCURVE",
"183 665 OFFCURVE",
"115 700 CURVE",
"28 624 LINE",
"62 599 OFFCURVE",
"76 581 OFFCURVE",
"76 543 CURVE SMOOTH",
"76 176 LINE SMOOTH",
"76 46 OFFCURVE",
"125 0 OFFCURVE",
"263 0 CURVE SMOOTH"
);
},
{
closed = 1;
nodes = (
"107 370 LINE",
"342 370 LINE",
"342 470 LINE",
"108 470 LINE",
"108 368 LINE"
);
}
);
width = 357;
}
);
note = t;
unicode = 0074;
},
{
color = 8;
glyphname = u;
lastChange = "2018-03-28 15:22:05 +0000";
layers = (
{
anchors = (
{
name = bottom;
position = "{261, 0}";
},
{
name = ogonek;
position = "{470, 10}";
},
{
name = top;
position = "{261, 470}";
},
{
name = topright;
position = "{441, 470}";
}
);
background = {
paths = (
{
closed = 1;
nodes = (
"334 -10 OFFCURVE",
"391 61 OFFCURVE",
"416 139 CURVE",
"413 219 LINE",
"401 131 OFFCURVE",
"348 16 OFFCURVE",
"228 16 CURVE SMOOTH",
"150 16 OFFCURVE",
"105 67 OFFCURVE",
"105 158 CURVE SMOOTH",
"105 470 LINE",
"75 470 LINE",
"75 148 LINE SMOOTH",
"75 51 OFFCURVE",
"133 -10 OFFCURVE",
"220 -10 CURVE SMOOTH"
);
},
{
closed = 1;
nodes = (
"464 8 LINE",
"445 24 OFFCURVE",
"441 32 OFFCURVE",
"441 50 CURVE SMOOTH",
"441 470 LINE",
"411 470 LINE",
"411 56 LINE SMOOTH",
"411 22 OFFCURVE",
"419 5 OFFCURVE",
"443 -10 CURVE"
);
}
);
};
layerId = "0B1DFD06-3317-40CA-B510-4969A0718C16";
paths = (
{
closed = 1;
nodes = (
"334 -10 OFFCURVE",
"391 61 OFFCURVE",
"416 139 CURVE",
"413 219 LINE",
"401 131 OFFCURVE",
"348 16 OFFCURVE",
"228 16 CURVE SMOOTH",
"149 16 OFFCURVE",
"105 67 OFFCURVE",
"105 158 CURVE SMOOTH",
"105 414 LINE SMOOTH",
"105 448 OFFCURVE",
"98 465 OFFCURVE",
"75 480 CURVE",
"54 462 LINE",
"71 446 OFFCURVE",
"75 438 OFFCURVE",
"75 420 CURVE SMOOTH",
"75 158 LINE SMOOTH",
"75 50 OFFCURVE",
"130 -10 OFFCURVE",
"220 -10 CURVE SMOOTH"
);
},
{
closed = 1;
nodes = (
"464 8 LINE",
"445 24 OFFCURVE",
"441 32 OFFCURVE",
"441 50 CURVE SMOOTH",
"441 470 LINE",
"411 470 LINE",
"411 56 LINE SMOOTH",
"411 22 OFFCURVE",
"419 5 OFFCURVE",
"443 -10 CURVE"
);
}
);
width = 522;
},
{
anchors = (
{
name = bottom;
position = "{271, 0}";
},
{
name = ogonek;
position = "{480, 10}";
},
{
name = top;
position = "{271, 470}";
},
{
name = topright;
position = "{486, 472}";
}
);
background = {
paths = (
{
closed = 1;
nodes = (
"474 8 LINE",
"455 24 OFFCURVE",
"451 32 OFFCURVE",
"451 50 CURVE SMOOTH",
"451 470 LINE",
"421 470 LINE",
"421 56 LINE SMOOTH",
"421 22 OFFCURVE",
"429 5 OFFCURVE",
"453 -10 CURVE"
);
},
{
closed = 1;
nodes = (
"115 414 LINE SMOOTH",
"115 448 OFFCURVE",
"108 465 OFFCURVE",
"85 480 CURVE",
"64 462 LINE",
"81 446 OFFCURVE",
"85 438 OFFCURVE",
"85 420 CURVE SMOOTH",
"85 158 LINE SMOOTH",
"85 50 OFFCURVE",
"140 -10 OFFCURVE",
"230 -10 CURVE SMOOTH",
"344 -10 OFFCURVE",
"401 61 OFFCURVE",
"426 139 CURVE",
"423 219 LINE",
"411 131 OFFCURVE",
"358 16 OFFCURVE",
"238 16 CURVE SMOOTH",
"159 16 OFFCURVE",
"115 67 OFFCURVE",
"115 158 CURVE SMOOTH"
);
}
);
};
layerId = "204D14C0-8C16-4EB3-B338-290668FF7982";
paths = (
{
closed = 1;
nodes = (
"336 -10 OFFCURVE",
"382 48 OFFCURVE",
"402 106 CURVE",
"386 209 LINE",
"373 157 OFFCURVE",
"349 90 OFFCURVE",
"281 90 CURVE SMOOTH",
"236 90 OFFCURVE",
"208 119 OFFCURVE",
"208 164 CURVE SMOOTH",
"208 329 LINE SMOOTH",
"208 409 OFFCURVE",
"185 447 OFFCURVE",
"117 482 CURVE",
"30 406 LINE",
"64 381 OFFCURVE",
"78 363 OFFCURVE",
"78 325 CURVE SMOOTH",
"78 152 LINE SMOOTH",
"78 48 OFFCURVE",
"137 -10 OFFCURVE",
"243 -10 CURVE SMOOTH"
);
},
{
closed = 1;
nodes = (
"554 66 LINE",
"520 91 OFFCURVE",
"506 109 OFFCURVE",
"506 147 CURVE SMOOTH",
"506 472 LINE",
"376 472 LINE",
"376 143 LINE SMOOTH",
"376 63 OFFCURVE",
"399 25 OFFCURVE",
"467 -10 CURVE"
);
}
);
width = 579;
}
);
note = u;
unicode = 0075;
},
{
color = 8;
glyphname = v;
lastChange = "2018-03-29 08:55:01 +0000";
layers = (
{
anchors = (
{
name = bottom;
position = "{207, 0}";
},
{
name = top;
position = "{207, 470}";
}
);
layerId = "0B1DFD06-3317-40CA-B510-4969A0718C16";
paths = (
{
closed = 1;
nodes = (
"256 -10 OFFCURVE",
"266 23 OFFCURVE",
"289 99 CURVE SMOOTH",
"401 470 LINE",
"371 470 LINE",
"259 99 LINE SMOOTH",
"242 43 OFFCURVE",
"234 16 OFFCURVE",
"207 16 CURVE SMOOTH",
"180 16 OFFCURVE",
"172 43 OFFCURVE",
"155 99 CURVE SMOOTH",
"43 470 LINE",
"13 470 LINE",
"125 99 LINE SMOOTH",
"148 23 OFFCURVE",
"158 -10 OFFCURVE",
"207 -10 CURVE SMOOTH"
);
}
);
width = 414;
},
{
anchors = (
{
name = bottom;
position = "{269, 0}";
},
{
name = top;
position = "{269, 470}";
}
);
layerId = "204D14C0-8C16-4EB3-B338-290668FF7982";
paths = (
{
closed = 1;
nodes = (
"340 -12 OFFCURVE",
"376 19 OFFCURVE",
"399 93 CURVE SMOOTH",
"515 470 LINE",
"389 470 LINE",
"281 105 LINE SMOOTH",
"278 94 OFFCURVE",
"275 88 OFFCURVE",
"269 88 CURVE SMOOTH",
"261 88 OFFCURVE",
"259 95 OFFCURVE",
"256 105 CURVE SMOOTH",
"146 470 LINE",
"20 470 LINE",
"138 93 LINE SMOOTH",
"161 19 OFFCURVE",
"199 -12 OFFCURVE",
"269 -12 CURVE SMOOTH"
);
}
);
width = 535;
}
);
note = v;
rightMetricsKey = "=|";
unicode = 0076;
},
{
color = 8;
glyphname = w;
lastChange = "2018-03-29 09:07:08 +0000";
layers = (
{
anchors = (
{
name = bottom;
position = "{299, 0}";
},
{
name = top;
position = "{299, 470}";
}
);
background = {
paths = (
{
closed = 1;
nodes = (
"169 0 LINE",
"217 82 OFFCURVE",
"266 177 OFFCURVE",
"299 300 CURVE",
"332 177 OFFCURVE",
"381 82 OFFCURVE",
"429 0 CURVE",
"455 0 LINE",
"585 470 LINE",
"555 470 LINE",
"433 30 LINE",
"446 30 LINE",
"408 83 OFFCURVE",
"346 225 OFFCURVE",
"299 396 CURVE",
"252 225 OFFCURVE",
"190 83 OFFCURVE",
"152 30 CURVE",
"165 30 LINE",
"43 470 LINE",
"13 470 LINE",
"143 0 LINE"
);
}
);
};
layerId = "0B1DFD06-3317-40CA-B510-4969A0718C16";
paths = (
{
closed = 1;
nodes = (
"137 0 LINE SMOOTH",
"157 0 OFFCURVE",
"194 3 OFFCURVE",
"208 46 CURVE SMOOTH",
"298 334 LINE",
"389 46 LINE SMOOTH",
"403 3 OFFCURVE",
"440 0 OFFCURVE",
"460 0 CURVE SMOOTH",
"476 0 LINE",
"584 470 LINE",
"554 470 LINE",
"453 26 LINE",
"431 27 OFFCURVE",
"420 39 OFFCURVE",
"413 59 CURVE SMOOTH",
"299 420 LINE",
"184 59 LINE SMOOTH",
"177 39 OFFCURVE",
"166 27 OFFCURVE",
"144 26 CURVE",
"43 470 LINE",
"13 470 LINE",
"121 0 LINE"
);
}
);
width = 597;
},
{
anchors = (
{
name = bottom;
position = "{299, 0}";
},
{
name = top;
position = "{299, 470}";
}
);
background = {
paths = (
{
closed = 1;
nodes = (
"584 470 LINE",
"476 0 LINE",
"460 0 LINE SMOOTH",
"440 0 OFFCURVE",
"403 3 OFFCURVE",
"389 46 CURVE SMOOTH",
"298 334 LINE",
"208 46 LINE SMOOTH",
"194 3 OFFCURVE",
"157 0 OFFCURVE",
"137 0 CURVE SMOOTH",
"121 0 LINE",
"13 470 LINE",
"43 470 LINE",
"144 26 LINE",
"166 27 OFFCURVE",
"177 39 OFFCURVE",
"184 59 CURVE SMOOTH",
"299 420 LINE",
"413 59 LINE SMOOTH",
"420 39 OFFCURVE",
"431 27 OFFCURVE",
"453 26 CURVE",
"554 470 LINE"
);
}
);
};
layerId = "204D14C0-8C16-4EB3-B338-290668FF7982";
paths = (
{
closed = 1;
nodes = (
"148 0 LINE SMOOTH",
"224 0 OFFCURVE",
"250 21 OFFCURVE",
"277 106 CURVE SMOOTH",
"309 198 LINE",
"341 106 LINE SMOOTH",
"367 24 OFFCURVE",
"394 0 OFFCURVE",
"470 0 CURVE SMOOTH",
"520 0 LINE",
"627 470 LINE",
"516 470 LINE",
"435.177 115.831 LINE",
"428.287 121.805 OFFCURVE",
"421.966 132.7 OFFCURVE",
"416 150 CURVE SMOOTH",
"309 439 LINE",
"204 150 LINE SMOOTH",
"197.505 131.163 OFFCURVE",
"190.587 119.921 OFFCURVE",
"183.248 114.355 CURVE",
"103 470 LINE",
"-9 470 LINE",
"98 0 LINE"
);
}
);
width = 618;
}
);
note = w;
rightMetricsKey = "=|";
unicode = 0077;
},
{
color = 8;
glyphname = x;
lastChange = "2018-03-29 09:45:31 +0000";
layers = (
{
anchors = (
{
name = bottom;
position = "{206, 0}";
},
{
name = top;
position = "{206, 470}";
}
);
guideLines = (
{
angle = 90;
position = "{392, 243}";
},
{
angle = 90;
position = "{24, 243}";
}
);
layerId = "0B1DFD06-3317-40CA-B510-4969A0718C16";
paths = (
{
closed = 1;
nodes = (
"392 0 LINE",
"62 470 LINE",
"28 470 LINE",
"358 0 LINE"
);
},
{
closed = 1;
nodes = (
"54 0 LINE",
"210 222 LINE",
"194 248 LINE",
"20 0 LINE"
);
},
{
closed = 1;
nodes = (
"388 470 LINE",
"354 470 LINE",
"198 248 LINE",
"214 222 LINE"
);
}
);
width = 412;
},
{
anchors = (
{
name = bottom;
position = "{206, 0}";
},
{
name = top;
position = "{206, 470}";
}
);
layerId = "204D14C0-8C16-4EB3-B338-290668FF7982";
paths = (
{
closed = 1;
nodes = (
"458 0 LINE",
"147 470 LINE",
"17 470 LINE",
"327 0 LINE"
);
},
{
closed = 1;
nodes = (
"141 0 LINE",
"260 193 LINE",
"184 280 LINE",
"10 0 LINE"
);
},
{
closed = 1;
nodes = (
"455 470 LINE",
"325 470 LINE",
"207 280 LINE",
"284 193 LINE"
);
}
);
width = 468;
}
);
note = x;
rightMetricsKey = "=|";
unicode = 0078;
},
{
color = 8;
glyphname = y;
lastChange = "2018-03-29 09:21:14 +0000";
layers = (
{
anchors = (
{
name = bottom;
position = "{281, -219}";
},
{
name = top;
position = "{281, 470}";
}
);
background = {
paths = (
{
closed = 1;
nodes = (
"297 -219 LINE SMOOTH",
"394 -219 OFFCURVE",
"448 -165 OFFCURVE",
"448 -68 CURVE SMOOTH",
"448 471 LINE",
"418 471 LINE",
"418 -67 LINE SMOOTH",
"418 -148 OFFCURVE",
"374 -193 OFFCURVE",
"297 -193 CURVE SMOOTH",
"183 -193 LINE",
"183 -219 LINE"
);
},
{
closed = 1;
nodes = (
"359 -10 OFFCURVE",
"411 61 OFFCURVE",
"436 139 CURVE",
"418 180 LINE",
"418 109 OFFCURVE",
"357 16 OFFCURVE",
"250 16 CURVE SMOOTH",
"162 16 OFFCURVE",
"117 67 OFFCURVE",
"117 159 CURVE SMOOTH",
"117 414 LINE SMOOTH",
"117 448 OFFCURVE",
"110 465 OFFCURVE",
"87 480 CURVE",
"66 462 LINE",
"83 446 OFFCURVE",
"87 438 OFFCURVE",
"87 420 CURVE SMOOTH",
"87 159 LINE SMOOTH",
"87 52 OFFCURVE",
"133 -10 OFFCURVE",
"250 -10 CURVE SMOOTH"
);
}
);
};
guideLines = (
{
angle = 90;
position = "{87, 68}";
}
);
layerId = "0B1DFD06-3317-40CA-B510-4969A0718C16";
paths = (
{
closed = 1;
nodes = (
"299 -219 LINE SMOOTH",
"395 -219 OFFCURVE",
"448 -165 OFFCURVE",
"448 -68 CURVE SMOOTH",
"448 471 LINE",
"418 471 LINE",
"418 -67 LINE SMOOTH",
"418 -148 OFFCURVE",
"375 -193 OFFCURVE",
"299 -193 CURVE SMOOTH",
"185 -193 LINE",
"185 -219 LINE"
);
},
{
closed = 1;
nodes = (
"359 -10 OFFCURVE",
"411 61 OFFCURVE",
"436 139 CURVE",
"418 180 LINE",
"418 109 OFFCURVE",
"357 16 OFFCURVE",
"250 16 CURVE SMOOTH",
"162 16 OFFCURVE",
"117 67 OFFCURVE",
"117 159 CURVE SMOOTH",
"117 414 LINE SMOOTH",
"117 448 OFFCURVE",
"110 465 OFFCURVE",
"87 480 CURVE",
"66 462 LINE",
"83 446 OFFCURVE",
"87 438 OFFCURVE",
"87 420 CURVE SMOOTH",
"87 159 LINE SMOOTH",
"87 52 OFFCURVE",
"133 -10 OFFCURVE",
"250 -10 CURVE SMOOTH"
);
}
);
width = 562;
},
{
anchors = (
{
name = bottom;
position = "{290, -235}";
},
{
name = top;
position = "{290, 470}";
}
);
layerId = "204D14C0-8C16-4EB3-B338-290668FF7982";
paths = (
{
closed = 1;
nodes = (
"289 -235 LINE SMOOTH",
"449 -235 OFFCURVE",
"516 -180 OFFCURVE",
"516 -49 CURVE SMOOTH",
"516 472 LINE",
"386 472 LINE",
"386 -49 LINE SMOOTH",
"386 -110 OFFCURVE",
"357 -135 OFFCURVE",
"289 -135 CURVE SMOOTH",
"157 -135 LINE",
"157 -235 LINE"
);
},
{
closed = 1;
nodes = (
"336 -10 OFFCURVE",
"382 43 OFFCURVE",
"402 96 CURVE",
"386 199 LINE",
"373 147 OFFCURVE",
"349 90 OFFCURVE",
"281 90 CURVE SMOOTH",
"236 90 OFFCURVE",
"208 119 OFFCURVE",
"208 164 CURVE SMOOTH",
"208 329 LINE SMOOTH",
"208 409 OFFCURVE",
"185 447 OFFCURVE",
"117 482 CURVE",
"30 406 LINE",
"64 381 OFFCURVE",
"78 363 OFFCURVE",
"78 325 CURVE SMOOTH",
"78 152 LINE SMOOTH",
"78 48 OFFCURVE",
"137 -10 OFFCURVE",
"243 -10 CURVE SMOOTH"
);
}
);
width = 579;
}
);
note = y;
unicode = 0079;
},
{
color = 8;
glyphname = z;
lastChange = "2018-03-29 09:45:15 +0000";
layers = (
{
anchors = (
{
name = bottom;
position = "{229, 0}";
},
{
name = top;
position = "{229, 470}";
}
);
background = {
paths = (
{
closed = 1;
nodes = (
"413 0 LINE",
"413 26 LINE",
"135 26 LINE SMOOTH",
"96 26 OFFCURVE",
"78 36 OFFCURVE",
"78 55 CURVE SMOOTH",
"78 65 LINE",
"407 446 LINE",
"407 470 LINE",
"58 470 LINE",
"58 444 LINE",
"368 444 LINE",
"48 74 LINE",
"48 57 LINE SMOOTH",
"48 26 OFFCURVE",
"66 0 OFFCURVE",
"135 0 CURVE SMOOTH"
);
}
);
};
layerId = "0B1DFD06-3317-40CA-B510-4969A0718C16";
paths = (
{
closed = 1;
nodes = (
"413 0 LINE",
"413 26 LINE",
"115 26 LINE SMOOTH",
"90 26 OFFCURVE",
"78 36 OFFCURVE",
"78 50 CURVE SMOOTH",
"78 58 LINE",
"78 58 LINE",
"407 446 LINE",
"407 470 LINE",
"58 470 LINE",
"58 444 LINE",
"368 444 LINE",
"48 67 LINE",
"48 52 LINE SMOOTH",
"48 25 OFFCURVE",
"62 0 OFFCURVE",
"115 0 CURVE SMOOTH"
);
}
);
width = 458;
},
{
anchors = (
{
name = bottom;
position = "{229, 0}";
},
{
name = top;
position = "{229, 470}";
}
);
layerId = "204D14C0-8C16-4EB3-B338-290668FF7982";
paths = (
{
closed = 1;
nodes = (
"434 0 LINE",
"434 100 LINE",
"166 100 LINE SMOOTH",
"148 100 OFFCURVE",
"134 106 OFFCURVE",
"134 134 CURVE SMOOTH",
"134 141 LINE",
"118 91 LINE",
"421 372 LINE",
"421 470 LINE",
"31 470 LINE",
"31 370 LINE",
"273 370 LINE",
"21 138 LINE",
"21 85 LINE SMOOTH",
"21 23 OFFCURVE",
"62 0 OFFCURVE",
"132 0 CURVE SMOOTH"
);
}
);
width = 458;
}
);
note = z;
unicode = 007A;
},
{
color = 8;
glyphname = AE;
lastChange = "2018-03-29 10:59:16 +0000";
layers = (
{
anchors = (
{
name = bottom;
position = "{525, 0}";
},
{
name = top;
position = "{525, 700}";
}
);
background = {
paths = (
{
closed = 1;
nodes = (
"1005 0 LINE",
"1005 28 LINE",
"751 28 LINE SMOOTH",
"623 28 OFFCURVE",
"565 83 OFFCURVE",
"565 204 CURVE SMOOTH",
"565 337 LINE",
"942 337 LINE",
"942 365 LINE",
"565 365 LINE",
"565 496 LINE SMOOTH",
"565 617 OFFCURVE",
"623 672 OFFCURVE",
"751 672 CURVE SMOOTH",
"996 672 LINE",
"996 700 LINE",
"751 700 LINE SMOOTH",
"589 700 OFFCURVE",
"533 621 OFFCURVE",
"533 496 CURVE SMOOTH",
"533 204 LINE SMOOTH",
"533 79 OFFCURVE",
"589 0 OFFCURVE",
"751 0 CURVE SMOOTH"
);
},
{
closed = 1;
nodes = (
"423 710 OFFCURVE",
"402 673 OFFCURVE",
"363 601 CURVE SMOOTH",
"40 0 LINE",
"73 0 LINE",
"399 601 LINE SMOOTH",
"432 661 OFFCURVE",
"446 680 OFFCURVE",
"487 680 CURVE SMOOTH",
"509 680 OFFCURVE",
"533 661 OFFCURVE",
"533 601 CURVE SMOOTH",
"533 190 LINE",
"565 190 LINE",
"565 601 LINE SMOOTH",
"565 677 OFFCURVE",
"525 710 OFFCURVE",
"487 710 CURVE SMOOTH"
);
},
{
closed = 1;
nodes = (
"536 261 LINE",
"536 289 LINE",
"199 289 LINE",
"199 261 LINE"
);
}
);
};
layerId = "0B1DFD06-3317-40CA-B510-4969A0718C16";
paths = (
{
closed = 1;
nodes = (
"73 0 LINE",
"399 591 LINE SMOOTH",
"432 651 OFFCURVE",
"446 670 OFFCURVE",
"487 670 CURVE SMOOTH",
"509 670 OFFCURVE",
"533 651 OFFCURVE",
"533 591 CURVE SMOOTH",
"533 190 LINE",
"565 190 LINE",
"565 591 LINE SMOOTH",
"565 667 OFFCURVE",
"525 700 OFFCURVE",
"487 700 CURVE SMOOTH",
"423 700 OFFCURVE",
"402 663 OFFCURVE",
"363 591 CURVE SMOOTH",
"40 0 LINE"
);
},
{
closed = 1;
nodes = (
"536 261 LINE",
"536 289 LINE",
"199 289 LINE",
"199 261 LINE"
);
},
{
closed = 1;
nodes = (
"1005 0 LINE",
"1005 28 LINE",
"751 28 LINE SMOOTH",
"623 28 OFFCURVE",
"565 83 OFFCURVE",
"565 204 CURVE SMOOTH",
"565 337 LINE",
"942 337 LINE",
"942 365 LINE",
"565 365 LINE",
"565 496 LINE SMOOTH",
"565 607 OFFCURVE",
"623 672 OFFCURVE",
"751 672 CURVE SMOOTH",
"996 672 LINE",
"996 700 LINE",
"751 700 LINE SMOOTH",
"589 700 OFFCURVE",
"533 611 OFFCURVE",
"533 496 CURVE SMOOTH",
"533 204 LINE SMOOTH",
"533 79 OFFCURVE",
"589 0 OFFCURVE",
"751 0 CURVE SMOOTH"
);
}
);
width = 1050;
},
{
anchors = (
{
name = bottom;
position = "{562, 0}";
},
{
name = top;
position = "{562, 700}";
}
);
background = {
paths = (
{
closed = 1;
nodes = (
"134 0 LINE",
"460 601 LINE SMOOTH",
"493 661 OFFCURVE",
"507 680 OFFCURVE",
"548 680 CURVE SMOOTH",
"570 680 OFFCURVE",
"594 661 OFFCURVE",
"594 601 CURVE SMOOTH",
"594 190 LINE",
"626 190 LINE",
"626 601 LINE SMOOTH",
"626 677 OFFCURVE",
"586 710 OFFCURVE",
"548 710 CURVE SMOOTH",
"484 710 OFFCURVE",
"463 673 OFFCURVE",
"424 601 CURVE SMOOTH",
"101 0 LINE"
);
},
{
closed = 1;
nodes = (
"597 261 LINE",
"597 289 LINE",
"260 289 LINE",
"260 261 LINE"
);
},
{
closed = 1;
nodes = (
"1066 0 LINE",
"1066 28 LINE",
"812 28 LINE SMOOTH",
"684 28 OFFCURVE",
"626 83 OFFCURVE",
"626 204 CURVE SMOOTH",
"626 337 LINE",
"1003 337 LINE",
"1003 365 LINE",
"626 365 LINE",
"626 496 LINE SMOOTH",
"626 617 OFFCURVE",
"684 672 OFFCURVE",
"812 672 CURVE SMOOTH",
"1057 672 LINE",
"1057 700 LINE",
"812 700 LINE SMOOTH",
"650 700 OFFCURVE",
"594 621 OFFCURVE",
"594 496 CURVE SMOOTH",
"594 204 LINE SMOOTH",
"594 79 OFFCURVE",
"650 0 OFFCURVE",
"812 0 CURVE SMOOTH"
);
}
);
};
layerId = "204D14C0-8C16-4EB3-B338-290668FF7982";
paths = (
{
closed = 1;
nodes = (
"213 0 LINE",
"496 544 LINE SMOOTH",
"504 559 OFFCURVE",
"510 570 OFFCURVE",
"521 570 CURVE SMOOTH",
"534 570 OFFCURVE",
"539 560 OFFCURVE",
"539 545 CURVE SMOOTH",
"539 244 LINE",
"701 244 LINE",
"701 520 LINE SMOOTH",
"701 657 OFFCURVE",
"628 700 OFFCURVE",
"534 700 CURVE SMOOTH",
"429 700 OFFCURVE",
"383 657 OFFCURVE",
"325 546 CURVE SMOOTH",
"40 0 LINE"
);
},
{
closed = 1;
nodes = (
"625 172 LINE",
"625 300 LINE",
"251 300 LINE",
"251 172 LINE"
);
},
{
closed = 1;
nodes = (
"1074 0 LINE",
"1074 128 LINE",
"788 128 LINE SMOOTH",
"728 128 OFFCURVE",
"701 157 OFFCURVE",
"701 221 CURVE SMOOTH",
"701 287 LINE",
"1028 287 LINE",
"1028 415 LINE",
"701 415 LINE",
"701 479 LINE SMOOTH",
"701 543 OFFCURVE",
"728 572 OFFCURVE",
"788 572 CURVE SMOOTH",
"1072 572 LINE",
"1072 700 LINE",
"788 700 LINE SMOOTH",
"603 700 OFFCURVE",
"539 614 OFFCURVE",
"539 479 CURVE SMOOTH",
"539 221 LINE SMOOTH",
"539 86 OFFCURVE",
"603 0 OFFCURVE",
"788 0 CURVE SMOOTH"
);
}
);
width = 1124;
}
);
leftMetricsKey = A;
note = AE;
rightMetricsKey = E;
unicode = 00C6;
},
{
color = 8;
glyphname = Eth;
lastChange = "2018-03-29 12:20:28 +0000";
layers = (
{
background = {
paths = (
{
closed = 1;
nodes = (
"102 360 LINE",
"4 360 LINE",
"4 321 LINE",
"102 321 LINE",
"102 -4 LINE",
"339 -4 OFFCURVE",
"572 -27 OFFCURVE",
"577 348 CURVE",
"574 661 OFFCURVE",
"372 700 OFFCURVE",
"102 699 CURVE"
);
},
{
closed = 1;
nodes = (
"145 321 LINE",
"351 321 LINE",
"351 360 LINE",
"145 360 LINE",
"145 663 LINE",
"426 667 OFFCURVE",
"533 568 OFFCURVE",
"533 348 CURVE SMOOTH",
"535 114 OFFCURVE",
"444 19 OFFCURVE",
"145 32 CURVE"
);
}
);
};
components = (
{
name = D;
}
);
layerId = "0B1DFD06-3317-40CA-B510-4969A0718C16";
paths = (
{
closed = 1;
nodes = (
"350 337 LINE",
"350 363 LINE",
"20 363 LINE",
"20 337 LINE"
);
}
);
width = 698;
},
{
components = (
{
name = D;
}
);
layerId = "204D14C0-8C16-4EB3-B338-290668FF7982";
paths = (
{
closed = 1;
nodes = (
"400 295 LINE",
"400 413 LINE",
"0 413 LINE",
"0 295 LINE"
);
}
);
width = 732;
}
);
note = Eth;
rightMetricsKey = D;
unicode = 00D0;
},
{
color = 8;
glyphname = Dcroat;
lastChange = "2018-03-29 12:24:21 +0000";
layers = (
{
components = (
{
name = D;
}
);
layerId = "0B1DFD06-3317-40CA-B510-4969A0718C16";
paths = (
{
closed = 1;
nodes = (
"350 337 LINE",
"350 363 LINE",
"20 363 LINE",
"20 337 LINE"
);
}
);
width = 698;
},
{
components = (
{
name = D;
}
);
layerId = "204D14C0-8C16-4EB3-B338-290668FF7982";
paths = (
{
closed = 1;
nodes = (
"400 305 LINE",
"400 413 LINE",
"0 413 LINE",
"0 305 LINE"
);
}
);
width = 732;
}
);
note = Dcroat;
rightMetricsKey = D;
unicode = 0110;
},
{
color = 8;
glyphname = Eacute;
lastChange = "2018-03-28 09:20:46 +0000";
layers = (
{
background = {
paths = (
{
closed = 1;
nodes = (
"554 0 LINE",
"571 179 LINE",
"544 179 LINE",
"538 124 OFFCURVE",
"520 40 OFFCURVE",
"456 40 CURVE SMOOTH",
"201 40 LINE",
"201 659 LINE",
"441 659 LINE SMOOTH",
"516 659 OFFCURVE",
"525 567 OFFCURVE",
"528 527 CURVE",
"555 527 LINE",
"555 700 LINE",
"16 700 LINE",
"16 673 LINE",
"44 673 LINE SMOOTH",
"83 673 OFFCURVE",
"103 662 OFFCURVE",
"103 637 CURVE SMOOTH",
"103 62 LINE SMOOTH",
"103 37 OFFCURVE",
"83 26 OFFCURVE",
"44 26 CURVE SMOOTH",
"16 26 LINE",
"16 0 LINE"
);
},
{
closed = 1;
nodes = (
"455 251 LINE",
"455 485 LINE",
"431 485 LINE",
"427 436 OFFCURVE",
"424 388 OFFCURVE",
"379 388 CURVE SMOOTH",
"162 388 LINE",
"162 348 LINE",
"379 348 LINE SMOOTH",
"424 348 OFFCURVE",
"427 300 OFFCURVE",
"431 251 CURVE"
);
},
{
closed = 1;
nodes = (
"398 865 LINE SMOOTH",
"420 877 OFFCURVE",
"432 890 OFFCURVE",
"432 907 CURVE SMOOTH",
"432 922 OFFCURVE",
"420 937 OFFCURVE",
"398 937 CURVE SMOOTH",
"377 937 OFFCURVE",
"362 921 OFFCURVE",
"354 914 CURVE SMOOTH",
"239 807 LINE",
"256 782 LINE"
);
}
);
};
components = (
{
name = E;
},
{
name = acute;
transform = "{1, 0, 0, 1, -7, 230}";
}
);
layerId = "0B1DFD06-3317-40CA-B510-4969A0718C16";
width = 585;
},
{
components = (
{
name = E;
},
{
name = acute;
transform = "{1, 0, 0, 1, 19, 230}";
}
);
layerId = "204D14C0-8C16-4EB3-B338-290668FF7982";
width = 638;
}
);
note = Eacute;
unicode = 00C9;
},
{
color = 8;
glyphname = Ebreve;
lastChange = "2018-03-28 09:20:46 +0000";
layers = (
{
background = {
paths = (
{
closed = 1;
nodes = (
"554 0 LINE",
"571 179 LINE",
"544 179 LINE",
"538 124 OFFCURVE",
"520 40 OFFCURVE",
"456 40 CURVE SMOOTH",
"201 40 LINE",
"201 659 LINE",
"441 659 LINE SMOOTH",
"516 659 OFFCURVE",
"525 567 OFFCURVE",
"528 527 CURVE",
"555 527 LINE",
"555 700 LINE",
"16 700 LINE",
"16 673 LINE",
"44 673 LINE SMOOTH",
"83 673 OFFCURVE",
"103 662 OFFCURVE",
"103 637 CURVE SMOOTH",
"103 62 LINE SMOOTH",
"103 37 OFFCURVE",
"83 26 OFFCURVE",
"44 26 CURVE SMOOTH",
"16 26 LINE",
"16 0 LINE"
);
},
{
closed = 1;
nodes = (
"455 251 LINE",
"455 485 LINE",
"431 485 LINE",
"427 436 OFFCURVE",
"424 388 OFFCURVE",
"379 388 CURVE SMOOTH",
"162 388 LINE",
"162 348 LINE",
"379 348 LINE SMOOTH",
"424 348 OFFCURVE",
"427 300 OFFCURVE",
"431 251 CURVE"
);
},
{
closed = 1;
nodes = (
"432 776 OFFCURVE",
"474 832 OFFCURVE",
"478 907 CURVE",
"445 907 LINE",
"439 848 OFFCURVE",
"397 822 OFFCURVE",
"333 822 CURVE SMOOTH",
"269 822 OFFCURVE",
"226 848 OFFCURVE",
"219 907 CURVE",
"186 907 LINE",
"190 829 OFFCURVE",
"232 776 OFFCURVE",
"333 776 CURVE SMOOTH"
);
}
);
};
components = (
{
name = E;
},
{
name = breve;
transform = "{1, 0, 0, 1, -7, 230}";
}
);
layerId = "0B1DFD06-3317-40CA-B510-4969A0718C16";
width = 585;
},
{
components = (
{
name = E;
},
{
name = breve;
transform = "{1, 0, 0, 1, 19, 230}";
}
);
layerId = "204D14C0-8C16-4EB3-B338-290668FF7982";
width = 638;
}
);
note = Ebreve;
unicode = 0114;
},
{
color = 8;
glyphname = Ecaron;
lastChange = "2018-03-28 09:20:46 +0000";
layers = (
{
background = {
paths = (
{
closed = 1;
nodes = (
"554 0 LINE",
"571 179 LINE",
"544 179 LINE",
"538 124 OFFCURVE",
"520 40 OFFCURVE",
"456 40 CURVE SMOOTH",
"201 40 LINE",
"201 659 LINE",
"441 659 LINE SMOOTH",
"516 659 OFFCURVE",
"525 567 OFFCURVE",
"528 527 CURVE",
"555 527 LINE",
"555 700 LINE",
"16 700 LINE",
"16 673 LINE",
"44 673 LINE SMOOTH",
"83 673 OFFCURVE",
"103 662 OFFCURVE",
"103 637 CURVE SMOOTH",
"103 62 LINE SMOOTH",
"103 37 OFFCURVE",
"83 26 OFFCURVE",
"44 26 CURVE SMOOTH",
"16 26 LINE",
"16 0 LINE"
);
},
{
closed = 1;
nodes = (
"455 251 LINE",
"455 485 LINE",
"431 485 LINE",
"427 436 OFFCURVE",
"424 388 OFFCURVE",
"379 388 CURVE SMOOTH",
"162 388 LINE",
"162 348 LINE",
"379 348 LINE SMOOTH",
"424 348 OFFCURVE",
"427 300 OFFCURVE",
"431 251 CURVE"
);
},
{
closed = 1;
nodes = (
"357 782 LINE",
"481 911 LINE",
"462 932 LINE",
"354 847 LINE",
"346 840 OFFCURVE",
"337 836 OFFCURVE",
"331 836 CURVE SMOOTH",
"325 836 OFFCURVE",
"317 840 OFFCURVE",
"307 847 CURVE",
"199 932 LINE",
"180 911 LINE",
"304 782 LINE"
);
}
);
};
components = (
{
name = E;
},
{
name = caron;
transform = "{1, 0, 0, 1, -7, 230}";
}
);
layerId = "0B1DFD06-3317-40CA-B510-4969A0718C16";
width = 585;
},
{
components = (
{
name = E;
},
{
name = caron;
transform = "{1, 0, 0, 1, 19, 230}";
}
);
layerId = "204D14C0-8C16-4EB3-B338-290668FF7982";
width = 638;
}
);
note = Ecaron;
unicode = 011A;
},
{
color = 8;
glyphname = Ecircumflex;
lastChange = "2018-03-28 09:20:46 +0000";
layers = (
{
background = {
paths = (
{
closed = 1;
nodes = (
"554 0 LINE",
"571 179 LINE",
"544 179 LINE",
"538 124 OFFCURVE",
"520 40 OFFCURVE",
"456 40 CURVE SMOOTH",
"201 40 LINE",
"201 659 LINE",
"441 659 LINE SMOOTH",
"516 659 OFFCURVE",
"525 567 OFFCURVE",
"528 527 CURVE",
"555 527 LINE",
"555 700 LINE",
"16 700 LINE",
"16 673 LINE",
"44 673 LINE SMOOTH",
"83 673 OFFCURVE",
"103 662 OFFCURVE",
"103 637 CURVE SMOOTH",
"103 62 LINE SMOOTH",
"103 37 OFFCURVE",
"83 26 OFFCURVE",
"44 26 CURVE SMOOTH",
"16 26 LINE",
"16 0 LINE"
);
},
{
closed = 1;
nodes = (
"455 251 LINE",
"455 485 LINE",
"431 485 LINE",
"427 436 OFFCURVE",
"424 388 OFFCURVE",
"379 388 CURVE SMOOTH",
"162 388 LINE",
"162 348 LINE",
"379 348 LINE SMOOTH",
"424 348 OFFCURVE",
"427 300 OFFCURVE",
"431 251 CURVE"
);
},
{
closed = 1;
nodes = (
"304 868 LINE SMOOTH",
"312 874 OFFCURVE",
"322 879 OFFCURVE",
"328 879 CURVE SMOOTH",
"334 879 OFFCURVE",
"342 874 OFFCURVE",
"351 868 CURVE",
"459 782 LINE",
"478 803 LINE",
"354 932 LINE",
"301 932 LINE",
"177 803 LINE",
"196 782 LINE"
);
}
);
};
components = (
{
name = E;
},
{
name = circumflex;
transform = "{1, 0, 0, 1, -7, 230}";
}
);
layerId = "0B1DFD06-3317-40CA-B510-4969A0718C16";
width = 585;
},
{
components = (
{
name = E;
},
{
name = circumflex;
transform = "{1, 0, 0, 1, 19, 230}";
}
);
layerId = "204D14C0-8C16-4EB3-B338-290668FF7982";
width = 638;
}
);
note = Ecircumflex;
unicode = 00CA;
},
{
color = 8;
glyphname = Ecircumflexacute;
lastChange = "2018-03-28 09:20:46 +0000";
layers = (
{
background = {
paths = (
{
closed = 1;
nodes = (
"554 0 LINE",
"571 179 LINE",
"544 179 LINE",
"538 124 OFFCURVE",
"520 40 OFFCURVE",
"456 40 CURVE SMOOTH",
"201 40 LINE",
"201 659 LINE",
"441 659 LINE SMOOTH",
"516 659 OFFCURVE",
"525 567 OFFCURVE",
"528 527 CURVE",
"555 527 LINE",
"555 700 LINE",
"16 700 LINE",
"16 673 LINE",
"44 673 LINE SMOOTH",
"83 673 OFFCURVE",
"103 662 OFFCURVE",
"103 637 CURVE SMOOTH",
"103 62 LINE SMOOTH",
"103 37 OFFCURVE",
"83 26 OFFCURVE",
"44 26 CURVE SMOOTH",
"16 26 LINE",
"16 0 LINE"
);
},
{
closed = 1;
nodes = (
"455 251 LINE",
"455 485 LINE",
"431 485 LINE",
"427 436 OFFCURVE",
"424 388 OFFCURVE",
"379 388 CURVE SMOOTH",
"162 388 LINE",
"162 348 LINE",
"379 348 LINE SMOOTH",
"424 348 OFFCURVE",
"427 300 OFFCURVE",
"431 251 CURVE"
);
},
{
closed = 1;
nodes = (
"290 862 LINE SMOOTH",
"300 870 OFFCURVE",
"310 878 OFFCURVE",
"318 878 CURVE SMOOTH",
"324 878 OFFCURVE",
"332 873 OFFCURVE",
"341 867 CURVE",
"447 781 LINE",
"466 803 LINE",
"344 932 LINE",
"293 932 LINE",
"171 803 LINE",
"189 781 LINE"
);
},
{
closed = 1;
nodes = (
"555 960 LINE SMOOTH",
"578 972 OFFCURVE",
"591 988 OFFCURVE",
"591 1003 CURVE SMOOTH",
"591 1017 OFFCURVE",
"580 1034 OFFCURVE",
"557 1034 CURVE SMOOTH",
"538 1034 OFFCURVE",
"521 1018 OFFCURVE",
"511 1008 CURVE SMOOTH",
"415 915 LINE",
"433 893 LINE"
);
}
);
};
components = (
{
name = E;
},
{
name = circumflexacute;
transform = "{1, 0, 0, 1, -7, 230}";
}
);
layerId = "0B1DFD06-3317-40CA-B510-4969A0718C16";
width = 585;
},
{
components = (
{
name = E;
},
{
name = circumflexacute;
transform = "{1, 0, 0, 1, 19, 230}";
}
);
layerId = "204D14C0-8C16-4EB3-B338-290668FF7982";
width = 638;
}
);
note = Ecircumflexacute;
unicode = 1EBE;
},
{
color = 8;
glyphname = Ecircumflexdotbelow;
lastChange = "2018-03-28 09:20:46 +0000";
layers = (
{
background = {
paths = (
{
closed = 1;
nodes = (
"554 0 LINE",
"571 179 LINE",
"544 179 LINE",
"538 124 OFFCURVE",
"520 40 OFFCURVE",
"456 40 CURVE SMOOTH",
"201 40 LINE",
"201 659 LINE",
"441 659 LINE SMOOTH",
"516 659 OFFCURVE",
"525 567 OFFCURVE",
"528 527 CURVE",
"555 527 LINE",
"555 700 LINE",
"16 700 LINE",
"16 673 LINE",
"44 673 LINE SMOOTH",
"83 673 OFFCURVE",
"103 662 OFFCURVE",
"103 637 CURVE SMOOTH",
"103 62 LINE SMOOTH",
"103 37 OFFCURVE",
"83 26 OFFCURVE",
"44 26 CURVE SMOOTH",
"16 26 LINE",
"16 0 LINE"
);
},
{
closed = 1;
nodes = (
"350 -159 OFFCURVE",
"368 -140 OFFCURVE",
"368 -112 CURVE SMOOTH",
"368 -84 OFFCURVE",
"350 -64 OFFCURVE",
"322 -64 CURVE SMOOTH",
"294 -64 OFFCURVE",
"275 -84 OFFCURVE",
"275 -112 CURVE SMOOTH",
"275 -140 OFFCURVE",
"294 -159 OFFCURVE",
"322 -159 CURVE SMOOTH"
);
},
{
closed = 1;
nodes = (
"455 251 LINE",
"455 485 LINE",
"431 485 LINE",
"427 436 OFFCURVE",
"424 388 OFFCURVE",
"379 388 CURVE SMOOTH",
"162 388 LINE",
"162 348 LINE",
"379 348 LINE SMOOTH",
"424 348 OFFCURVE",
"427 300 OFFCURVE",
"431 251 CURVE"
);
},
{
closed = 1;
nodes = (
"294 868 LINE SMOOTH",
"302 874 OFFCURVE",
"312 879 OFFCURVE",
"318 879 CURVE SMOOTH",
"324 879 OFFCURVE",
"332 874 OFFCURVE",
"341 868 CURVE",
"449 782 LINE",
"468 803 LINE",
"344 932 LINE",
"291 932 LINE",
"167 803 LINE",
"186 782 LINE"
);
}
);
};
components = (
{
name = E;
},
{
name = dotbelowcomb;
transform = "{1, 0, 0, 1, -7, 0}";
},
{
name = circumflex;
transform = "{1, 0, 0, 1, -7, 230}";
}
);
layerId = "0B1DFD06-3317-40CA-B510-4969A0718C16";
width = 585;
},
{
components = (
{
name = E;
},
{
name = dotbelowcomb;
transform = "{1, 0, 0, 1, 19, 0}";
},
{
name = circumflex;
transform = "{1, 0, 0, 1, 19, 230}";
}
);
layerId = "204D14C0-8C16-4EB3-B338-290668FF7982";
width = 638;
}
);
note = Ecircumflexdotbelow;
unicode = 1EC6;
},
{
color = 8;
glyphname = Ecircumflexgrave;
lastChange = "2018-03-28 09:20:46 +0000";
layers = (
{
background = {
paths = (
{
closed = 1;
nodes = (
"554 0 LINE",
"571 179 LINE",
"544 179 LINE",
"538 124 OFFCURVE",
"520 40 OFFCURVE",
"456 40 CURVE SMOOTH",
"201 40 LINE",
"201 659 LINE",
"441 659 LINE SMOOTH",
"516 659 OFFCURVE",
"525 567 OFFCURVE",
"528 527 CURVE",
"555 527 LINE",
"555 700 LINE",
"16 700 LINE",
"16 673 LINE",
"44 673 LINE SMOOTH",
"83 673 OFFCURVE",
"103 662 OFFCURVE",
"103 637 CURVE SMOOTH",
"103 62 LINE SMOOTH",
"103 37 OFFCURVE",
"83 26 OFFCURVE",
"44 26 CURVE SMOOTH",
"16 26 LINE",
"16 0 LINE"
);
},
{
closed = 1;
nodes = (
"455 251 LINE",
"455 485 LINE",
"431 485 LINE",
"427 436 OFFCURVE",
"424 388 OFFCURVE",
"379 388 CURVE SMOOTH",
"162 388 LINE",
"162 348 LINE",
"379 348 LINE SMOOTH",
"424 348 OFFCURVE",
"427 300 OFFCURVE",
"431 251 CURVE"
);
},
{
closed = 1;
nodes = (
"227 915 LINE",
"132 1008 LINE SMOOTH",
"122 1018 OFFCURVE",
"105 1034 OFFCURVE",
"85 1034 CURVE SMOOTH",
"63 1034 OFFCURVE",
"52 1017 OFFCURVE",
"52 1003 CURVE SMOOTH",
"52 988 OFFCURVE",
"65 972 OFFCURVE",
"88 960 CURVE SMOOTH",
"210 893 LINE"
);
},
{
closed = 1;
nodes = (
"290 862 LINE SMOOTH",
"300 870 OFFCURVE",
"310 878 OFFCURVE",
"318 878 CURVE SMOOTH",
"324 878 OFFCURVE",
"332 873 OFFCURVE",
"341 867 CURVE",
"447 781 LINE",
"466 803 LINE",
"344 932 LINE",
"293 932 LINE",
"171 803 LINE",
"189 781 LINE"
);
}
);
};
components = (
{
name = E;
},
{
name = circumflexgrave;
transform = "{1, 0, 0, 1, -7, 230}";
}
);
layerId = "0B1DFD06-3317-40CA-B510-4969A0718C16";
width = 585;
},
{
components = (
{
name = E;
},
{
name = circumflexgrave;
transform = "{1, 0, 0, 1, 19, 230}";
}
);
layerId = "204D14C0-8C16-4EB3-B338-290668FF7982";
width = 638;
}
);
note = Ecircumflexgrave;
unicode = 1EC0;
},
{
color = 8;
glyphname = Ecircumflexhookabove;
lastChange = "2018-03-28 09:20:46 +0000";
layers = (
{
background = {
paths = (
{
closed = 1;
nodes = (
"554 0 LINE",
"571 179 LINE",
"544 179 LINE",
"538 124 OFFCURVE",
"520 40 OFFCURVE",
"456 40 CURVE SMOOTH",
"201 40 LINE",
"201 659 LINE",
"441 659 LINE SMOOTH",
"516 659 OFFCURVE",
"525 567 OFFCURVE",
"528 527 CURVE",
"555 527 LINE",
"555 700 LINE",
"16 700 LINE",
"16 673 LINE",
"44 673 LINE SMOOTH",
"83 673 OFFCURVE",
"103 662 OFFCURVE",
"103 637 CURVE SMOOTH",
"103 62 LINE SMOOTH",
"103 37 OFFCURVE",
"83 26 OFFCURVE",
"44 26 CURVE SMOOTH",
"16 26 LINE",
"16 0 LINE"
);
},
{
closed = 1;
nodes = (
"455 251 LINE",
"455 485 LINE",
"431 485 LINE",
"427 436 OFFCURVE",
"424 388 OFFCURVE",
"379 388 CURVE SMOOTH",
"162 388 LINE",
"162 348 LINE",
"379 348 LINE SMOOTH",
"424 348 OFFCURVE",
"427 300 OFFCURVE",
"431 251 CURVE"
);
},
{
closed = 1;
nodes = (
"286 858 LINE",
"297 868 OFFCURVE",
"309 878 OFFCURVE",
"318 878 CURVE SMOOTH",
"324 878 OFFCURVE",
"332 873 OFFCURVE",
"341 867 CURVE",
"447 781 LINE",
"466 803 LINE",
"344 932 LINE",
"293 932 LINE",
"171 803 LINE",
"189 781 LINE"
);
},
{
closed = 1;
nodes = (
"493 898 LINE",
"474 905 OFFCURVE",
"464 912 OFFCURVE",
"464 926 CURVE SMOOTH",
"464 954 OFFCURVE",
"544 965 OFFCURVE",
"544 1010 CURVE SMOOTH",
"544 1047 OFFCURVE",
"502 1063 OFFCURVE",
"460 1063 CURVE SMOOTH",
"429 1063 OFFCURVE",
"384 1053 OFFCURVE",
"384 1022 CURVE SMOOTH",
"384 1010 OFFCURVE",
"395 1001 OFFCURVE",
"405 1001 CURVE SMOOTH",
"434 1001 OFFCURVE",
"421 1040 OFFCURVE",
"464 1040 CURVE SMOOTH",
"483 1040 OFFCURVE",
"494 1028 OFFCURVE",
"494 1013 CURVE SMOOTH",
"494 973 OFFCURVE",
"421 965 OFFCURVE",
"421 925 CURVE SMOOTH",
"421 901 OFFCURVE",
"437 880 OFFCURVE",
"484 880 CURVE"
);
}
);
};
components = (
{
name = E;
},
{
name = circumflexhookabove;
transform = "{1, 0, 0, 1, -7, 230}";
}
);
layerId = "0B1DFD06-3317-40CA-B510-4969A0718C16";
width = 585;
},
{
components = (
{
name = E;
},
{
name = circumflexhookabove;
transform = "{1, 0, 0, 1, 19, 230}";
}
);
layerId = "204D14C0-8C16-4EB3-B338-290668FF7982";
width = 638;
}
);
note = Ecircumflexhookabove;
unicode = 1EC2;
},
{
color = 8;
glyphname = Ecircumflextilde;
lastChange = "2018-03-28 09:20:46 +0000";
layers = (
{
background = {
paths = (
{
closed = 1;
nodes = (
"554 0 LINE",
"571 179 LINE",
"544 179 LINE",
"538 124 OFFCURVE",
"520 40 OFFCURVE",
"456 40 CURVE SMOOTH",
"201 40 LINE",
"201 659 LINE",
"441 659 LINE SMOOTH",
"516 659 OFFCURVE",
"525 567 OFFCURVE",
"528 527 CURVE",
"555 527 LINE",
"555 700 LINE",
"16 700 LINE",
"16 673 LINE",
"44 673 LINE SMOOTH",
"83 673 OFFCURVE",
"103 662 OFFCURVE",
"103 637 CURVE SMOOTH",
"103 62 LINE SMOOTH",
"103 37 OFFCURVE",
"83 26 OFFCURVE",
"44 26 CURVE SMOOTH",
"16 26 LINE",
"16 0 LINE"
);
},
{
closed = 1;
nodes = (
"455 251 LINE",
"455 485 LINE",
"431 485 LINE",
"427 436 OFFCURVE",
"424 388 OFFCURVE",
"379 388 CURVE SMOOTH",
"162 388 LINE",
"162 348 LINE",
"379 348 LINE SMOOTH",
"424 348 OFFCURVE",
"427 300 OFFCURVE",
"431 251 CURVE"
);
},
{
closed = 1;
nodes = (
"290 862 LINE SMOOTH",
"300 870 OFFCURVE",
"310 878 OFFCURVE",
"318 878 CURVE SMOOTH",
"324 878 OFFCURVE",
"332 873 OFFCURVE",
"341 867 CURVE",
"447 781 LINE",
"466 803 LINE",
"344 932 LINE",
"293 932 LINE",
"171 803 LINE",
"189 781 LINE"
);
},
{
closed = 1;
nodes = (
"193 997 OFFCURVE",
"211 1018 OFFCURVE",
"242 1018 CURVE SMOOTH",
"291 1018 OFFCURVE",
"338 964 OFFCURVE",
"387 964 CURVE SMOOTH",
"440 964 OFFCURVE",
"469 1012 OFFCURVE",
"481 1063 CURVE",
"460 1075 LINE",
"447 1035 OFFCURVE",
"431 1012 OFFCURVE",
"398 1012 CURVE SMOOTH",
"351 1012 OFFCURVE",
"302 1065 OFFCURVE",
"253 1065 CURVE SMOOTH",
"202 1065 OFFCURVE",
"170 1021 OFFCURVE",
"160 970 CURVE",
"180 958 LINE"
);
}
);
};
components = (
{
name = E;
},
{
name = circumflextilde;
transform = "{1, 0, 0, 1, -7, 230}";
}
);
layerId = "0B1DFD06-3317-40CA-B510-4969A0718C16";
width = 585;
},
{
components = (
{
name = E;
},
{
name = circumflextilde;
transform = "{1, 0, 0, 1, 19, 230}";
}
);
layerId = "204D14C0-8C16-4EB3-B338-290668FF7982";
width = 638;
}
);
note = Ecircumflextilde;
unicode = 1EC4;
},
{
color = 8;
glyphname = Edieresis;
lastChange = "2018-03-28 09:20:46 +0000";
layers = (
{
background = {
paths = (
{
closed = 1;
nodes = (
"554 0 LINE",
"571 179 LINE",
"544 179 LINE",
"538 124 OFFCURVE",
"520 40 OFFCURVE",
"456 40 CURVE SMOOTH",
"201 40 LINE",
"201 659 LINE",
"441 659 LINE SMOOTH",
"516 659 OFFCURVE",
"525 567 OFFCURVE",
"528 527 CURVE",
"555 527 LINE",
"555 700 LINE",
"16 700 LINE",
"16 673 LINE",
"44 673 LINE SMOOTH",
"83 673 OFFCURVE",
"103 662 OFFCURVE",
"103 637 CURVE SMOOTH",
"103 62 LINE SMOOTH",
"103 37 OFFCURVE",
"83 26 OFFCURVE",
"44 26 CURVE SMOOTH",
"16 26 LINE",
"16 0 LINE"
);
},
{
closed = 1;
nodes = (
"455 251 LINE",
"455 485 LINE",
"431 485 LINE",
"427 436 OFFCURVE",
"424 388 OFFCURVE",
"379 388 CURVE SMOOTH",
"162 388 LINE",
"162 348 LINE",
"379 348 LINE SMOOTH",
"424 348 OFFCURVE",
"427 300 OFFCURVE",
"431 251 CURVE"
);
},
{
closed = 1;
nodes = (
"254 781 OFFCURVE",
"272 800 OFFCURVE",
"272 827 CURVE SMOOTH",
"272 855 OFFCURVE",
"254 875 OFFCURVE",
"225 875 CURVE SMOOTH",
"197 875 OFFCURVE",
"179 855 OFFCURVE",
"179 827 CURVE SMOOTH",
"179 800 OFFCURVE",
"197 781 OFFCURVE",
"225 781 CURVE SMOOTH"
);
},
{
closed = 1;
nodes = (
"470 781 OFFCURVE",
"488 800 OFFCURVE",
"488 827 CURVE SMOOTH",
"488 855 OFFCURVE",
"470 875 OFFCURVE",
"441 875 CURVE SMOOTH",
"412 875 OFFCURVE",
"394 855 OFFCURVE",
"394 827 CURVE SMOOTH",
"394 800 OFFCURVE",
"412 781 OFFCURVE",
"441 781 CURVE SMOOTH"
);
}
);
};
components = (
{
name = E;
},
{
name = dieresis;
transform = "{1, 0, 0, 1, -7, 230}";
}
);
layerId = "0B1DFD06-3317-40CA-B510-4969A0718C16";
width = 585;
},
{
components = (
{
name = E;
},
{
name = dieresis;
transform = "{1, 0, 0, 1, 19, 230}";
}
);
layerId = "204D14C0-8C16-4EB3-B338-290668FF7982";
width = 638;
}
);
note = Edieresis;
unicode = 00CB;
},
{
color = 8;
glyphname = Edotaccent;
lastChange = "2018-03-28 09:20:46 +0000";
layers = (
{
background = {
paths = (
{
closed = 1;
nodes = (
"554 0 LINE",
"571 179 LINE",
"544 179 LINE",
"538 124 OFFCURVE",
"520 40 OFFCURVE",
"456 40 CURVE SMOOTH",
"201 40 LINE",
"201 659 LINE",
"441 659 LINE SMOOTH",
"516 659 OFFCURVE",
"525 567 OFFCURVE",
"528 527 CURVE",
"555 527 LINE",
"555 700 LINE",
"16 700 LINE",
"16 673 LINE",
"44 673 LINE SMOOTH",
"83 673 OFFCURVE",
"103 662 OFFCURVE",
"103 637 CURVE SMOOTH",
"103 62 LINE SMOOTH",
"103 37 OFFCURVE",
"83 26 OFFCURVE",
"44 26 CURVE SMOOTH",
"16 26 LINE",
"16 0 LINE"
);
},
{
closed = 1;
nodes = (
"455 251 LINE",
"455 485 LINE",
"431 485 LINE",
"427 436 OFFCURVE",
"424 388 OFFCURVE",
"379 388 CURVE SMOOTH",
"162 388 LINE",
"162 348 LINE",
"379 348 LINE SMOOTH",
"424 348 OFFCURVE",
"427 300 OFFCURVE",
"431 251 CURVE"
);
},
{
closed = 1;
nodes = (
"362 765 OFFCURVE",
"380 784 OFFCURVE",
"380 811 CURVE SMOOTH",
"380 839 OFFCURVE",
"362 858 OFFCURVE",
"334 858 CURVE SMOOTH",
"305 858 OFFCURVE",
"287 839 OFFCURVE",
"287 811 CURVE SMOOTH",
"287 784 OFFCURVE",
"305 765 OFFCURVE",
"334 765 CURVE SMOOTH"
);
}
);
};
components = (
{
name = E;
},
{
name = dotaccent;
transform = "{1, 0, 0, 1, -7, 230}";
}
);
layerId = "0B1DFD06-3317-40CA-B510-4969A0718C16";
width = 585;
},
{
components = (
{
name = E;
},
{
name = dotaccent;
transform = "{1, 0, 0, 1, 19, 230}";
}
);
layerId = "204D14C0-8C16-4EB3-B338-290668FF7982";
width = 638;
}
);
note = Edotaccent;
unicode = 0116;
},
{
color = 8;
glyphname = Edotbelow;
lastChange = "2018-03-28 09:20:46 +0000";
layers = (
{
background = {
paths = (
{
closed = 1;
nodes = (
"554 0 LINE",
"571 179 LINE",
"544 179 LINE",
"538 124 OFFCURVE",
"520 40 OFFCURVE",
"456 40 CURVE SMOOTH",
"201 40 LINE",
"201 659 LINE",
"441 659 LINE SMOOTH",
"516 659 OFFCURVE",
"525 567 OFFCURVE",
"528 527 CURVE",
"555 527 LINE",
"555 700 LINE",
"16 700 LINE",
"16 673 LINE",
"44 673 LINE SMOOTH",
"83 673 OFFCURVE",
"103 662 OFFCURVE",
"103 637 CURVE SMOOTH",
"103 62 LINE SMOOTH",
"103 37 OFFCURVE",
"83 26 OFFCURVE",
"44 26 CURVE SMOOTH",
"16 26 LINE",
"16 0 LINE"
);
},
{
closed = 1;
nodes = (
"343 -159 OFFCURVE",
"361 -140 OFFCURVE",
"361 -112 CURVE SMOOTH",
"361 -84 OFFCURVE",
"343 -64 OFFCURVE",
"315 -64 CURVE SMOOTH",
"287 -64 OFFCURVE",
"268 -84 OFFCURVE",
"268 -112 CURVE SMOOTH",
"268 -140 OFFCURVE",
"287 -159 OFFCURVE",
"315 -159 CURVE SMOOTH"
);
},
{
closed = 1;
nodes = (
"455 251 LINE",
"455 485 LINE",
"431 485 LINE",
"427 436 OFFCURVE",
"424 388 OFFCURVE",
"379 388 CURVE SMOOTH",
"162 388 LINE",
"162 348 LINE",
"379 348 LINE SMOOTH",
"424 348 OFFCURVE",
"427 300 OFFCURVE",
"431 251 CURVE"
);
}
);
};
components = (
{
name = E;
},
{
name = dotbelowcomb;
transform = "{1, 0, 0, 1, -7, 0}";
}
);
layerId = "0B1DFD06-3317-40CA-B510-4969A0718C16";
width = 585;
},
{
components = (
{
name = E;
},
{
name = dotbelowcomb;
transform = "{1, 0, 0, 1, 19, 0}";
}
);
layerId = "204D14C0-8C16-4EB3-B338-290668FF7982";
width = 638;
}
);
note = Edotbelow;
unicode = 1EB8;
},
{
color = 8;
glyphname = Egrave;
lastChange = "2018-03-28 09:20:46 +0000";
layers = (
{
background = {
paths = (
{
closed = 1;
nodes = (
"554 0 LINE",
"571 179 LINE",
"544 179 LINE",
"538 124 OFFCURVE",
"520 40 OFFCURVE",
"456 40 CURVE SMOOTH",
"201 40 LINE",
"201 659 LINE",
"441 659 LINE SMOOTH",
"516 659 OFFCURVE",
"525 567 OFFCURVE",
"528 527 CURVE",
"555 527 LINE",
"555 700 LINE",
"16 700 LINE",
"16 673 LINE",
"44 673 LINE SMOOTH",
"83 673 OFFCURVE",
"103 662 OFFCURVE",
"103 637 CURVE SMOOTH",
"103 62 LINE SMOOTH",
"103 37 OFFCURVE",
"83 26 OFFCURVE",
"44 26 CURVE SMOOTH",
"16 26 LINE",
"16 0 LINE"
);
},
{
closed = 1;
nodes = (
"455 251 LINE",
"455 485 LINE",
"431 485 LINE",
"427 436 OFFCURVE",
"424 388 OFFCURVE",
"379 388 CURVE SMOOTH",
"162 388 LINE",
"162 348 LINE",
"379 348 LINE SMOOTH",
"424 348 OFFCURVE",
"427 300 OFFCURVE",
"431 251 CURVE"
);
},
{
closed = 1;
nodes = (
"425 807 LINE",
"310 913 LINE",
"301 922 OFFCURVE",
"285 937 OFFCURVE",
"265 937 CURVE SMOOTH",
"245 937 OFFCURVE",
"233 924 OFFCURVE",
"233 908 CURVE SMOOTH",
"233 890 OFFCURVE",
"245 876 OFFCURVE",
"264 865 CURVE SMOOTH",
"407 782 LINE"
);
}
);
};
components = (
{
name = E;
},
{
name = grave;
transform = "{1, 0, 0, 1, -7, 230}";
}
);
layerId = "0B1DFD06-3317-40CA-B510-4969A0718C16";
width = 585;
},
{
components = (
{
name = E;
},
{
name = grave;
transform = "{1, 0, 0, 1, 19, 230}";
}
);
layerId = "204D14C0-8C16-4EB3-B338-290668FF7982";
width = 638;
}
);
note = Egrave;
unicode = 00C8;
},
{
color = 8;
glyphname = Ehookabove;
lastChange = "2018-03-28 09:20:46 +0000";
layers = (
{
background = {
paths = (
{
closed = 1;
nodes = (
"554 0 LINE",
"571 179 LINE",
"544 179 LINE",
"538 124 OFFCURVE",
"520 40 OFFCURVE",
"456 40 CURVE SMOOTH",
"201 40 LINE",
"201 659 LINE",
"441 659 LINE SMOOTH",
"516 659 OFFCURVE",
"525 567 OFFCURVE",
"528 527 CURVE",
"555 527 LINE",
"555 700 LINE",
"16 700 LINE",
"16 673 LINE",
"44 673 LINE SMOOTH",
"83 673 OFFCURVE",
"103 662 OFFCURVE",
"103 637 CURVE SMOOTH",
"103 62 LINE SMOOTH",
"103 37 OFFCURVE",
"83 26 OFFCURVE",
"44 26 CURVE SMOOTH",
"16 26 LINE",
"16 0 LINE"
);
},
{
closed = 1;
nodes = (
"455 251 LINE",
"455 485 LINE",
"431 485 LINE",
"427 436 OFFCURVE",
"424 388 OFFCURVE",
"379 388 CURVE SMOOTH",
"162 388 LINE",
"162 348 LINE",
"379 348 LINE SMOOTH",
"424 348 OFFCURVE",
"427 300 OFFCURVE",
"431 251 CURVE"
);
},
{
closed = 1;
nodes = (
"367 798 LINE",
"348 805 OFFCURVE",
"336 811 OFFCURVE",
"336 828 CURVE SMOOTH",
"336 861 OFFCURVE",
"425 876 OFFCURVE",
"425 927 CURVE SMOOTH",
"425 969 OFFCURVE",
"389 991 OFFCURVE",
"336 991 CURVE SMOOTH",
"289 991 OFFCURVE",
"248 974 OFFCURVE",
"248 940 CURVE SMOOTH",
"248 923 OFFCURVE",
"256 915 OFFCURVE",
"271 915 CURVE SMOOTH",
"294 915 OFFCURVE",
"296 934 OFFCURVE",
"299 942 CURVE SMOOTH",
"304 956 OFFCURVE",
"321 962 OFFCURVE",
"337 962 CURVE SMOOTH",
"358 962 OFFCURVE",
"371 947 OFFCURVE",
"371 930 CURVE SMOOTH",
"371 885 OFFCURVE",
"289 874 OFFCURVE",
"289 828 CURVE SMOOTH",
"289 801 OFFCURVE",
"307 778 OFFCURVE",
"358 778 CURVE"
);
}
);
};
components = (
{
name = E;
},
{
name = hookabovecomb;
transform = "{1, 0, 0, 1, -7, 230}";
}
);
layerId = "0B1DFD06-3317-40CA-B510-4969A0718C16";
width = 585;
},
{
components = (
{
name = E;
},
{
name = hookabovecomb;
transform = "{1, 0, 0, 1, 19, 230}";
}
);
layerId = "204D14C0-8C16-4EB3-B338-290668FF7982";
width = 638;
}
);
note = Ehookabove;
unicode = 1EBA;
},
{
color = 8;
glyphname = Emacron;
lastChange = "2018-03-28 09:20:46 +0000";
layers = (
{
background = {
paths = (
{
closed = 1;
nodes = (
"554 0 LINE",
"571 179 LINE",
"544 179 LINE",
"538 124 OFFCURVE",
"520 40 OFFCURVE",
"456 40 CURVE SMOOTH",
"201 40 LINE",
"201 659 LINE",
"441 659 LINE SMOOTH",
"516 659 OFFCURVE",
"525 567 OFFCURVE",
"528 527 CURVE",
"555 527 LINE",
"555 700 LINE",
"16 700 LINE",
"16 673 LINE",
"44 673 LINE SMOOTH",
"83 673 OFFCURVE",
"103 662 OFFCURVE",
"103 637 CURVE SMOOTH",
"103 62 LINE SMOOTH",
"103 37 OFFCURVE",
"83 26 OFFCURVE",
"44 26 CURVE SMOOTH",
"16 26 LINE",
"16 0 LINE"
);
},
{
closed = 1;
nodes = (
"455 251 LINE",
"455 485 LINE",
"431 485 LINE",
"427 436 OFFCURVE",
"424 388 OFFCURVE",
"379 388 CURVE SMOOTH",
"162 388 LINE",
"162 348 LINE",
"379 348 LINE SMOOTH",
"424 348 OFFCURVE",
"427 300 OFFCURVE",
"431 251 CURVE"
);
},
{
closed = 1;
nodes = (
"495 782 LINE",
"495 824 LINE",
"162 824 LINE",
"162 782 LINE"
);
}
);
};
components = (
{
name = E;
},
{
name = macron;
transform = "{1, 0, 0, 1, -7, 230}";
}
);
layerId = "0B1DFD06-3317-40CA-B510-4969A0718C16";
width = 585;
},
{
components = (
{
name = E;
},
{
name = macron;
transform = "{1, 0, 0, 1, 19, 230}";
}
);
layerId = "204D14C0-8C16-4EB3-B338-290668FF7982";
width = 638;
}
);
note = Emacron;
unicode = 0112;
},
{
color = 8;
glyphname = Eogonek;
lastChange = "2018-03-28 09:20:46 +0000";
layers = (
{
background = {
paths = (
{
closed = 1;
nodes = (
"554 0 LINE",
"571 179 LINE",
"544 179 LINE",
"538 124 OFFCURVE",
"520 40 OFFCURVE",
"456 40 CURVE SMOOTH",
"201 40 LINE",
"201 659 LINE",
"441 659 LINE SMOOTH",
"516 659 OFFCURVE",
"525 567 OFFCURVE",
"528 527 CURVE",
"555 527 LINE",
"555 700 LINE",
"16 700 LINE",
"16 673 LINE",
"44 673 LINE SMOOTH",
"83 673 OFFCURVE",
"103 662 OFFCURVE",
"103 637 CURVE SMOOTH",
"103 62 LINE SMOOTH",
"103 37 OFFCURVE",
"83 26 OFFCURVE",
"44 26 CURVE SMOOTH",
"16 26 LINE",
"16 0 LINE"
);
},
{
closed = 1;
nodes = (
"496 -196 OFFCURVE",
"524 -189 OFFCURVE",
"549 -172 CURVE",
"543 -152 LINE",
"527 -158 OFFCURVE",
"510 -162 OFFCURVE",
"497 -162 CURVE SMOOTH",
"464 -162 OFFCURVE",
"437 -146 OFFCURVE",
"437 -106 CURVE SMOOTH",
"437 -66 OFFCURVE",
"464 -26 OFFCURVE",
"510 4 CURVE",
"469 4 LINE",
"416 -22 OFFCURVE",
"376 -64 OFFCURVE",
"376 -114 CURVE SMOOTH",
"376 -147 OFFCURVE",
"395 -196 OFFCURVE",
"470 -196 CURVE SMOOTH"
);
},
{
closed = 1;
nodes = (
"455 251 LINE",
"455 485 LINE",
"431 485 LINE",
"427 436 OFFCURVE",
"424 388 OFFCURVE",
"379 388 CURVE SMOOTH",
"162 388 LINE",
"162 348 LINE",
"379 348 LINE SMOOTH",
"424 348 OFFCURVE",
"427 300 OFFCURVE",
"431 251 CURVE"
);
}
);
};
components = (
{
name = E;
},
{
name = ogonek;
transform = "{1, 0, 0, 1, -7, 0}";
}
);
layerId = "0B1DFD06-3317-40CA-B510-4969A0718C16";
width = 585;
},
{
components = (
{
name = E;
},
{
name = ogonek;
transform = "{1, 0, 0, 1, 19, 0}";
}
);
layerId = "204D14C0-8C16-4EB3-B338-290668FF7982";
width = 638;
}
);
note = Eogonek;
unicode = 0118;
},
{
color = 8;
glyphname = Etilde;
lastChange = "2018-03-28 09:20:46 +0000";
layers = (
{
background = {
paths = (
{
closed = 1;
nodes = (
"554 0 LINE",
"571 179 LINE",
"544 179 LINE",
"538 124 OFFCURVE",
"520 40 OFFCURVE",
"456 40 CURVE SMOOTH",
"201 40 LINE",
"201 659 LINE",
"441 659 LINE SMOOTH",
"516 659 OFFCURVE",
"525 567 OFFCURVE",
"528 527 CURVE",
"555 527 LINE",
"555 700 LINE",
"16 700 LINE",
"16 673 LINE",
"44 673 LINE SMOOTH",
"83 673 OFFCURVE",
"103 662 OFFCURVE",
"103 637 CURVE SMOOTH",
"103 62 LINE SMOOTH",
"103 37 OFFCURVE",
"83 26 OFFCURVE",
"44 26 CURVE SMOOTH",
"16 26 LINE",
"16 0 LINE"
);
},
{
closed = 1;
nodes = (
"455 251 LINE",
"455 485 LINE",
"431 485 LINE",
"427 436 OFFCURVE",
"424 388 OFFCURVE",
"379 388 CURVE SMOOTH",
"162 388 LINE",
"162 348 LINE",
"379 348 LINE SMOOTH",
"424 348 OFFCURVE",
"427 300 OFFCURVE",
"431 251 CURVE"
);
},
{
closed = 1;
nodes = (
"190 817 OFFCURVE",
"208 838 OFFCURVE",
"241 838 CURVE SMOOTH",
"292 838 OFFCURVE",
"341 784 OFFCURVE",
"392 784 CURVE SMOOTH",
"450 784 OFFCURVE",
"480 832 OFFCURVE",
"492 884 CURVE",
"471 895 LINE",
"455 855 OFFCURVE",
"439 833 OFFCURVE",
"405 833 CURVE SMOOTH",
"356 833 OFFCURVE",
"304 886 OFFCURVE",
"253 886 CURVE SMOOTH",
"199 886 OFFCURVE",
"166 842 OFFCURVE",
"154 790 CURVE",
"176 779 LINE"
);
}
);
};
components = (
{
name = E;
},
{
name = tilde;
transform = "{1, 0, 0, 1, -7, 230}";
}
);
layerId = "0B1DFD06-3317-40CA-B510-4969A0718C16";
width = 585;
},
{
components = (
{
name = E;
},
{
name = tilde;
transform = "{1, 0, 0, 1, 19, 230}";
}
);
layerId = "204D14C0-8C16-4EB3-B338-290668FF7982";
width = 638;
}
);
note = Etilde;
unicode = 1EBC;
},
{
color = 8;
glyphname = Hbar;
lastChange = "2018-03-29 11:10:09 +0000";
layers = (
{
components = (
{
name = H;
transform = "{1, 0, 0, 1, -1, 0}";
}
);
layerId = "0B1DFD06-3317-40CA-B510-4969A0718C16";
paths = (
{
closed = 1;
nodes = (
"690 537 LINE",
"690 563 LINE",
"24 563 LINE",
"24 537 LINE"
);
}
);
width = 714;
},
{
components = (
{
name = H;
transform = "{1, 0, 0, 1, -1, 0}";
}
);
layerId = "204D14C0-8C16-4EB3-B338-290668FF7982";
paths = (
{
closed = 1;
nodes = (
"756 499 LINE",
"756 595 LINE",
"0 595 LINE",
"0 499 LINE"
);
}
);
width = 756;
}
);
note = Hbar;
unicode = 0126;
},
{
color = 8;
glyphname = IJ;
lastChange = "2018-03-29 11:11:57 +0000";
layers = (
{
background = {
paths = (
{
closed = 1;
nodes = (
"472 -114 OFFCURVE",
"561 -45 OFFCURVE",
"561 89 CURVE SMOOTH",
"561 637 LINE SMOOTH",
"561 662 OFFCURVE",
"581 673 OFFCURVE",
"619 673 CURVE SMOOTH",
"649 673 LINE",
"649 700 LINE",
"376 700 LINE",
"376 673 LINE",
"405 673 LINE SMOOTH",
"444 673 OFFCURVE",
"463 662 OFFCURVE",
"463 637 CURVE SMOOTH",
"463 90 LINE SMOOTH",
"463 -8 OFFCURVE",
"424 -75 OFFCURVE",
"339 -93 CURVE",
"343 -114 LINE"
);
},
{
closed = 1;
nodes = (
"298 0 LINE",
"298 26 LINE",
"270 26 LINE SMOOTH",
"231 26 OFFCURVE",
"211 37 OFFCURVE",
"211 62 CURVE SMOOTH",
"211 637 LINE SMOOTH",
"211 662 OFFCURVE",
"231 673 OFFCURVE",
"270 673 CURVE SMOOTH",
"298 673 LINE",
"298 700 LINE",
"26 700 LINE",
"26 673 LINE",
"55 673 LINE SMOOTH",
"93 673 OFFCURVE",
"113 662 OFFCURVE",
"113 637 CURVE SMOOTH",
"113 62 LINE SMOOTH",
"113 37 OFFCURVE",
"93 26 OFFCURVE",
"55 26 CURVE SMOOTH",
"26 26 LINE",
"26 0 LINE"
);
}
);
};
layerId = "0B1DFD06-3317-40CA-B510-4969A0718C16";
paths = (
{
closed = 1;
nodes = (
"132 0 LINE",
"132 700 LINE",
"100 700 LINE",
"100 0 LINE"
);
},
{
closed = 1;
nodes = (
"494 -10 OFFCURVE",
"592 39 OFFCURVE",
"592 179 CURVE SMOOTH",
"592 700 LINE",
"560 700 LINE",
"560 181 LINE SMOOTH",
"560 79 OFFCURVE",
"502 18 OFFCURVE",
"392 18 CURVE SMOOTH",
"315 18 OFFCURVE",
"264 44 OFFCURVE",
"227 90 CURVE",
"205 68 LINE",
"257 11 OFFCURVE",
"312 -10 OFFCURVE",
"392 -10 CURVE SMOOTH"
);
}
);
width = 675;
},
{
layerId = "204D14C0-8C16-4EB3-B338-290668FF7982";
paths = (
{
closed = 1;
nodes = (
"197 0 LINE",
"197 700 LINE",
"35 700 LINE",
"35 0 LINE"
);
},
{
closed = 1;
nodes = (
"682 -12 OFFCURVE",
"784 82 OFFCURVE",
"784 262 CURVE SMOOTH",
"784 700 LINE",
"622 700 LINE",
"622 264 LINE SMOOTH",
"622 168 OFFCURVE",
"579 118 OFFCURVE",
"497 118 CURVE SMOOTH",
"443 118 OFFCURVE",
"392 137 OFFCURVE",
"335 179 CURVE",
"267 68 LINE",
"346 7 OFFCURVE",
"425 -12 OFFCURVE",
"501 -12 CURVE SMOOTH"
);
}
);
width = 819;
}
);
leftMetricsKey = I;
note = IJ;
rightKerningGroup = J;
rightMetricsKey = J;
unicode = 0132;
},
{
color = 8;
glyphname = Lcaron;
lastChange = "2018-03-29 11:25:22 +0000";
layers = (
{
background = {
paths = (
{
closed = 1;
nodes = (
"75 204 LINE SMOOTH",
"75 79 OFFCURVE",
"131 0 OFFCURVE",
"293 0 CURVE SMOOTH",
"518 0 LINE",
"518 28 LINE",
"293 28 LINE SMOOTH",
"165 28 OFFCURVE",
"107 83 OFFCURVE",
"107 204 CURVE SMOOTH",
"107 700 LINE",
"75 700 LINE"
);
},
{
closed = 1;
nodes = (
"428 658 LINE",
"432 620 OFFCURVE",
"410 586 OFFCURVE",
"386 567 CURVE",
"399 553 LINE",
"430 576 OFFCURVE",
"456 618 OFFCURVE",
"456 668 CURVE SMOOTH",
"456 690 OFFCURVE",
"445 710 OFFCURVE",
"421 710 CURVE SMOOTH",
"400 710 OFFCURVE",
"385 690 OFFCURVE",
"385 671 CURVE SMOOTH",
"385 653 OFFCURVE",
"395 642 OFFCURVE",
"410 642 CURVE SMOOTH",
"418 642 OFFCURVE",
"426 643 OFFCURVE",
"435 654 CURVE"
);
}
);
};
components = (
{
name = L;
},
{
name = apostrophemod;
transform = "{1, 0, 0, 1, 330, 0}";
}
);
layerId = "0B1DFD06-3317-40CA-B510-4969A0718C16";
width = 558;
},
{
components = (
{
name = L;
},
{
name = apostrophemod;
transform = "{1, 0, 0, 1, 314, 0}";
}
);
layerId = "204D14C0-8C16-4EB3-B338-290668FF7982";
width = 582;
}
);
leftMetricsKey = L;
note = Lcaron;
rightKerningGroup = L;
rightMetricsKey = L;
unicode = 013D;
},
{
color = 8;
glyphname = Lslash;
lastChange = "2018-03-30 05:35:02 +0000";
layers = (
{
background = {
paths = (
{
closed = 1;
nodes = (
"492 0 LINE",
"492 49 LINE",
"150 49 LINE",
"150 338 LINE",
"300 439 LINE",
"300 492 LINE",
"251 460 OFFCURVE",
"199 421 OFFCURVE",
"150 390 CURVE",
"150 696 LINE",
"93 696 LINE",
"93 355 LINE",
"-2 288 LINE",
"-2 236 LINE",
"28 257 OFFCURVE",
"61 282 OFFCURVE",
"93 303 CURVE",
"93 0 LINE"
);
}
);
};
components = (
{
name = L;
transform = "{1, 0, 0, 1, 5, 0}";
}
);
layerId = "0B1DFD06-3317-40CA-B510-4969A0718C16";
paths = (
{
closed = 1;
nodes = (
"353 444 LINE",
"0 286 LINE",
"0 256 LINE",
"353 414 LINE"
);
}
);
width = 563;
},
{
components = (
{
name = L;
transform = "{1, 0, 0, 1, 15, 0}";
}
);
layerId = "204D14C0-8C16-4EB3-B338-290668FF7982";
paths = (
{
closed = 1;
nodes = (
"441 517 LINE",
"0 316 LINE",
"0 206 LINE",
"441 407 LINE"
);
}
);
width = 573;
}
);
note = Lslash;
unicode = 0141;
},
{
color = 8;
glyphname = Nacute;
lastChange = "2018-03-29 12:29:28 +0000";
layers = (
{
background = {
paths = (
{
closed = 1;
nodes = (
"247 0 LINE",
"247 26 LINE",
"217 26 LINE SMOOTH",
"179 26 OFFCURVE",
"159 37 OFFCURVE",
"159 62 CURVE SMOOTH",
"159 642 LINE",
"587 0 LINE",
"645 0 LINE",
"645 637 LINE SMOOTH",
"645 662 OFFCURVE",
"665 673 OFFCURVE",
"703 673 CURVE SMOOTH",
"733 673 LINE",
"733 700 LINE",
"508 700 LINE",
"508 673 LINE",
"537 673 LINE SMOOTH",
"576 673 OFFCURVE",
"595 662 OFFCURVE",
"595 637 CURVE SMOOTH",
"595 126 LINE",
"217 700 LINE",
"22 700 LINE",
"22 673 LINE",
"51 673 LINE SMOOTH",
"90 673 OFFCURVE",
"109 662 OFFCURVE",
"109 637 CURVE SMOOTH",
"109 62 LINE SMOOTH",
"109 37 OFFCURVE",
"90 26 OFFCURVE",
"51 26 CURVE SMOOTH",
"22 26 LINE",
"22 0 LINE"
);
},
{
closed = 1;
nodes = (
"458 865 LINE SMOOTH",
"480 877 OFFCURVE",
"492 890 OFFCURVE",
"492 907 CURVE SMOOTH",
"492 922 OFFCURVE",
"480 937 OFFCURVE",
"458 937 CURVE SMOOTH",
"437 937 OFFCURVE",
"422 921 OFFCURVE",
"414 914 CURVE SMOOTH",
"299 807 LINE",
"316 782 LINE"
);
}
);
};
components = (
{
name = N;
},
{
name = acute;
transform = "{1, 0, 0, 1, 51, 230}";
}
);
layerId = "0B1DFD06-3317-40CA-B510-4969A0718C16";
width = 702;
},
{
components = (
{
name = N;
},
{
name = acute;
transform = "{1, 0, 0, 1, 78, 230}";
}
);
layerId = "204D14C0-8C16-4EB3-B338-290668FF7982";
width = 754;
}
);
note = Nacute;
unicode = 0143;
},
{
color = 8;
glyphname = Ncaron;
lastChange = "2018-03-29 12:29:28 +0000";
layers = (
{
background = {
paths = (
{
closed = 1;
nodes = (
"247 0 LINE",
"247 26 LINE",
"217 26 LINE SMOOTH",
"179 26 OFFCURVE",
"159 37 OFFCURVE",
"159 62 CURVE SMOOTH",
"159 642 LINE",
"587 0 LINE",
"645 0 LINE",
"645 637 LINE SMOOTH",
"645 662 OFFCURVE",
"665 673 OFFCURVE",
"703 673 CURVE SMOOTH",
"733 673 LINE",
"733 700 LINE",
"508 700 LINE",
"508 673 LINE",
"537 673 LINE SMOOTH",
"576 673 OFFCURVE",
"595 662 OFFCURVE",
"595 637 CURVE SMOOTH",
"595 126 LINE",
"217 700 LINE",
"22 700 LINE",
"22 673 LINE",
"51 673 LINE SMOOTH",
"90 673 OFFCURVE",
"109 662 OFFCURVE",
"109 637 CURVE SMOOTH",
"109 62 LINE SMOOTH",
"109 37 OFFCURVE",
"90 26 OFFCURVE",
"51 26 CURVE SMOOTH",
"22 26 LINE",
"22 0 LINE"
);
},
{
closed = 1;
nodes = (
"403 782 LINE",
"527 911 LINE",
"508 932 LINE",
"400 847 LINE",
"392 840 OFFCURVE",
"383 836 OFFCURVE",
"377 836 CURVE SMOOTH",
"371 836 OFFCURVE",
"363 840 OFFCURVE",
"353 847 CURVE",
"245 932 LINE",
"226 911 LINE",
"350 782 LINE"
);
}
);
};
components = (
{
name = N;
},
{
name = caron;
transform = "{1, 0, 0, 1, 51, 230}";
}
);
layerId = "0B1DFD06-3317-40CA-B510-4969A0718C16";
width = 702;
},
{
components = (
{
name = N;
},
{
name = caron;
transform = "{1, 0, 0, 1, 78, 230}";
}
);
layerId = "204D14C0-8C16-4EB3-B338-290668FF7982";
width = 754;
}
);
note = Ncaron;
unicode = 0147;
},
{
color = 8;
glyphname = Ncommaaccent;
lastChange = "2018-03-29 12:33:08 +0000";
layers = (
{
background = {
paths = (
{
closed = 1;
nodes = (
"247 0 LINE",
"247 26 LINE",
"217 26 LINE SMOOTH",
"179 26 OFFCURVE",
"159 37 OFFCURVE",
"159 62 CURVE SMOOTH",
"159 642 LINE",
"587 0 LINE",
"645 0 LINE",
"645 637 LINE SMOOTH",
"645 662 OFFCURVE",
"665 673 OFFCURVE",
"703 673 CURVE SMOOTH",
"733 673 LINE",
"733 700 LINE",
"508 700 LINE",
"508 673 LINE",
"537 673 LINE SMOOTH",
"576 673 OFFCURVE",
"595 662 OFFCURVE",
"595 637 CURVE SMOOTH",
"595 126 LINE",
"217 700 LINE",
"22 700 LINE",
"22 673 LINE",
"51 673 LINE SMOOTH",
"90 673 OFFCURVE",
"109 662 OFFCURVE",
"109 637 CURVE SMOOTH",
"109 62 LINE SMOOTH",
"109 37 OFFCURVE",
"90 26 OFFCURVE",
"51 26 CURVE SMOOTH",
"22 26 LINE",
"22 0 LINE"
);
},
{
closed = 1;
nodes = (
"369 -258 OFFCURVE",
"413 -198 OFFCURVE",
"413 -135 CURVE SMOOTH",
"413 -87 OFFCURVE",
"389 -67 OFFCURVE",
"360 -67 CURVE SMOOTH",
"331 -67 OFFCURVE",
"314 -87 OFFCURVE",
"314 -111 CURVE SMOOTH",
"314 -145 OFFCURVE",
"349 -152 OFFCURVE",
"349 -187 CURVE SMOOTH",
"349 -223 OFFCURVE",
"323 -256 OFFCURVE",
"296 -282 CURVE",
"313 -299 LINE"
);
}
);
};
components = (
{
name = N;
},
{
name = commaaccentcomb;
transform = "{1, 0, 0, 1, 51, 0}";
}
);
layerId = "0B1DFD06-3317-40CA-B510-4969A0718C16";
width = 702;
},
{
components = (
{
name = N;
},
{
name = commaaccentcomb;
transform = "{1, 0, 0, 1, 71, 0}";
}
);
layerId = "204D14C0-8C16-4EB3-B338-290668FF7982";
width = 754;
}
);
note = Ncommaaccent;
unicode = 0145;
},
{
color = 8;
glyphname = Ndotaccent;
lastChange = "2018-03-29 12:29:28 +0000";
layers = (
{
background = {
paths = (
{
closed = 1;
nodes = (
"247 0 LINE",
"247 26 LINE",
"217 26 LINE SMOOTH",
"179 26 OFFCURVE",
"159 37 OFFCURVE",
"159 62 CURVE SMOOTH",
"159 642 LINE",
"587 0 LINE",
"645 0 LINE",
"645 637 LINE SMOOTH",
"645 662 OFFCURVE",
"665 673 OFFCURVE",
"703 673 CURVE SMOOTH",
"733 673 LINE",
"733 700 LINE",
"508 700 LINE",
"508 673 LINE",
"537 673 LINE SMOOTH",
"576 673 OFFCURVE",
"595 662 OFFCURVE",
"595 637 CURVE SMOOTH",
"595 126 LINE",
"217 700 LINE",
"22 700 LINE",
"22 673 LINE",
"51 673 LINE SMOOTH",
"90 673 OFFCURVE",
"109 662 OFFCURVE",
"109 637 CURVE SMOOTH",
"109 62 LINE SMOOTH",
"109 37 OFFCURVE",
"90 26 OFFCURVE",
"51 26 CURVE SMOOTH",
"22 26 LINE",
"22 0 LINE"
);
},
{
closed = 1;
nodes = (
"405 765 OFFCURVE",
"423 784 OFFCURVE",
"423 811 CURVE SMOOTH",
"423 839 OFFCURVE",
"405 858 OFFCURVE",
"377 858 CURVE SMOOTH",
"348 858 OFFCURVE",
"330 839 OFFCURVE",
"330 811 CURVE SMOOTH",
"330 784 OFFCURVE",
"348 765 OFFCURVE",
"377 765 CURVE SMOOTH"
);
}
);
};
components = (
{
name = N;
},
{
name = dotaccent;
transform = "{1, 0, 0, 1, 51, 230}";
}
);
layerId = "0B1DFD06-3317-40CA-B510-4969A0718C16";
width = 702;
},
{
components = (
{
name = N;
},
{
name = dotaccent;
transform = "{1, 0, 0, 1, 78, 230}";
}
);
layerId = "204D14C0-8C16-4EB3-B338-290668FF7982";
width = 754;
}
);
note = Ndotaccent;
unicode = 1E44;
},
{
color = 8;
glyphname = Ndotbelow;
lastChange = "2018-03-29 12:33:08 +0000";
layers = (
{
background = {
paths = (
{
closed = 1;
nodes = (
"247 0 LINE",
"247 26 LINE",
"217 26 LINE SMOOTH",
"179 26 OFFCURVE",
"159 37 OFFCURVE",
"159 62 CURVE SMOOTH",
"159 642 LINE",
"587 0 LINE",
"645 0 LINE",
"645 637 LINE SMOOTH",
"645 662 OFFCURVE",
"665 673 OFFCURVE",
"703 673 CURVE SMOOTH",
"733 673 LINE",
"733 700 LINE",
"508 700 LINE",
"508 673 LINE",
"537 673 LINE SMOOTH",
"576 673 OFFCURVE",
"595 662 OFFCURVE",
"595 637 CURVE SMOOTH",
"595 126 LINE",
"217 700 LINE",
"22 700 LINE",
"22 673 LINE",
"51 673 LINE SMOOTH",
"90 673 OFFCURVE",
"109 662 OFFCURVE",
"109 637 CURVE SMOOTH",
"109 62 LINE SMOOTH",
"109 37 OFFCURVE",
"90 26 OFFCURVE",
"51 26 CURVE SMOOTH",
"22 26 LINE",
"22 0 LINE"
);
},
{
closed = 1;
nodes = (
"415 -159 OFFCURVE",
"433 -140 OFFCURVE",
"433 -112 CURVE SMOOTH",
"433 -84 OFFCURVE",
"415 -64 OFFCURVE",
"387 -64 CURVE SMOOTH",
"359 -64 OFFCURVE",
"340 -84 OFFCURVE",
"340 -112 CURVE SMOOTH",
"340 -140 OFFCURVE",
"359 -159 OFFCURVE",
"387 -159 CURVE SMOOTH"
);
}
);
};
components = (
{
name = N;
},
{
name = dotbelowcomb;
transform = "{1, 0, 0, 1, 51, 0}";
}
);
layerId = "0B1DFD06-3317-40CA-B510-4969A0718C16";
width = 702;
},
{
components = (
{
name = N;
},
{
name = dotbelowcomb;
transform = "{1, 0, 0, 1, 71, 0}";
}
);
layerId = "204D14C0-8C16-4EB3-B338-290668FF7982";
width = 754;
}
);
note = uni1E46;
unicode = 1E46;
},
{
color = 8;
glyphname = Eng;
lastChange = "2018-03-29 12:43:57 +0000";
layers = (
{
background = {
paths = (
{
closed = 1;
nodes = (
"580 279 LINE",
"580 -77 LINE SMOOTH",
"580 -152 OFFCURVE",
"548 -193 OFFCURVE",
"490 -193 CURVE SMOOTH",
"446 -193 LINE",
"446 -219 LINE",
"490 -219 LINE SMOOTH",
"568 -219 OFFCURVE",
"612 -169 OFFCURVE",
"612 -77 CURVE SMOOTH",
"612 289 LINE"
);
}
);
};
components = (
{
name = N;
transform = "{1, 0, 0, 1, -4, 0}";
}
);
layerId = "0B1DFD06-3317-40CA-B510-4969A0718C16";
paths = (
{
closed = 1;
nodes = (
"490 -219 LINE SMOOTH",
"568 -219 OFFCURVE",
"612 -169 OFFCURVE",
"612 -77 CURVE SMOOTH",
"612 284 LINE",
"580 284 LINE",
"580 -77 LINE SMOOTH",
"580 -151 OFFCURVE",
"548 -191 OFFCURVE",
"490 -191 CURVE SMOOTH",
"446 -191 LINE",
"446 -219 LINE"
);
}
);
width = 702;
},
{
background = {
paths = (
{
closed = 1;
nodes = (
"437 -235 LINE SMOOTH",
"611 -235 OFFCURVE",
"676 -181 OFFCURVE",
"676 -29 CURVE SMOOTH",
"676 470 LINE",
"524 470 LINE",
"524 -19 LINE SMOOTH",
"524 -84 OFFCURVE",
"502 -107 OFFCURVE",
"437 -107 CURVE SMOOTH",
"385 -107 LINE",
"385 -235 LINE"
);
}
);
};
components = (
{
name = N;
}
);
layerId = "204D14C0-8C16-4EB3-B338-290668FF7982";
paths = (
{
closed = 1;
nodes = (
"437 -235 LINE SMOOTH",
"611 -235 OFFCURVE",
"676 -181 OFFCURVE",
"676 -29 CURVE SMOOTH",
"676 470 LINE",
"524 470 LINE",
"524 -19 LINE SMOOTH",
"524 -84 OFFCURVE",
"502 -107 OFFCURVE",
"437 -107 CURVE SMOOTH",
"385 -107 LINE",
"385 -235 LINE"
);
}
);
width = 702;
}
);
note = Eng;
unicode = 014A;
},
{
color = 8;
glyphname = Nlinebelow;
lastChange = "2018-03-29 12:33:08 +0000";
layers = (
{
background = {
paths = (
{
closed = 1;
nodes = (
"247 0 LINE",
"247 26 LINE",
"217 26 LINE SMOOTH",
"179 26 OFFCURVE",
"159 37 OFFCURVE",
"159 62 CURVE SMOOTH",
"159 642 LINE",
"587 0 LINE",
"645 0 LINE",
"645 637 LINE SMOOTH",
"645 662 OFFCURVE",
"665 673 OFFCURVE",
"703 673 CURVE SMOOTH",
"733 673 LINE",
"733 700 LINE",
"508 700 LINE",
"508 673 LINE",
"537 673 LINE SMOOTH",
"576 673 OFFCURVE",
"595 662 OFFCURVE",
"595 637 CURVE SMOOTH",
"595 126 LINE",
"217 700 LINE",
"22 700 LINE",
"22 673 LINE",
"51 673 LINE SMOOTH",
"90 673 OFFCURVE",
"109 662 OFFCURVE",
"109 637 CURVE SMOOTH",
"109 62 LINE SMOOTH",
"109 37 OFFCURVE",
"90 26 OFFCURVE",
"51 26 CURVE SMOOTH",
"22 26 LINE",
"22 0 LINE"
);
},
{
closed = 1;
nodes = (
"542 -110 LINE",
"542 -72 LINE",
"210 -72 LINE",
"210 -110 LINE"
);
}
);
};
components = (
{
name = N;
},
{
name = macronbelowcomb;
transform = "{1, 0, 0, 1, 51, 0}";
}
);
layerId = "0B1DFD06-3317-40CA-B510-4969A0718C16";
width = 702;
},
{
components = (
{
name = N;
},
{
name = macronbelowcomb;
transform = "{1, 0, 0, 1, 71, 0}";
}
);
layerId = "204D14C0-8C16-4EB3-B338-290668FF7982";
width = 754;
}
);
note = Nlinebelow;
unicode = 1E48;
},
{
color = 8;
glyphname = Ntilde;
lastChange = "2018-03-29 12:29:35 +0000";
layers = (
{
background = {
paths = (
{
closed = 1;
nodes = (
"247 0 LINE",
"247 26 LINE",
"217 26 LINE SMOOTH",
"179 26 OFFCURVE",
"159 37 OFFCURVE",
"159 62 CURVE SMOOTH",
"159 642 LINE",
"587 0 LINE",
"645 0 LINE",
"645 637 LINE SMOOTH",
"645 662 OFFCURVE",
"665 673 OFFCURVE",
"703 673 CURVE SMOOTH",
"733 673 LINE",
"733 700 LINE",
"508 700 LINE",
"508 673 LINE",
"537 673 LINE SMOOTH",
"576 673 OFFCURVE",
"595 662 OFFCURVE",
"595 637 CURVE SMOOTH",
"595 126 LINE",
"217 700 LINE",
"22 700 LINE",
"22 673 LINE",
"51 673 LINE SMOOTH",
"90 673 OFFCURVE",
"109 662 OFFCURVE",
"109 637 CURVE SMOOTH",
"109 62 LINE SMOOTH",
"109 37 OFFCURVE",
"90 26 OFFCURVE",
"51 26 CURVE SMOOTH",
"22 26 LINE",
"22 0 LINE"
);
},
{
closed = 1;
nodes = (
"254 818 OFFCURVE",
"272 839 OFFCURVE",
"305 839 CURVE SMOOTH",
"356 839 OFFCURVE",
"405 785 OFFCURVE",
"456 785 CURVE SMOOTH",
"514 785 OFFCURVE",
"544 833 OFFCURVE",
"556 885 CURVE",
"535 896 LINE",
"519 856 OFFCURVE",
"503 834 OFFCURVE",
"469 834 CURVE SMOOTH",
"420 834 OFFCURVE",
"368 887 OFFCURVE",
"317 887 CURVE SMOOTH",
"263 887 OFFCURVE",
"230 843 OFFCURVE",
"218 791 CURVE",
"240 780 LINE"
);
}
);
};
components = (
{
name = N;
},
{
name = tilde;
transform = "{1, 0, 0, 1, 51, 230}";
}
);
layerId = "0B1DFD06-3317-40CA-B510-4969A0718C16";
width = 702;
},
{
components = (
{
name = N;
},
{
name = tilde;
transform = "{1, 0, 0, 1, 78, 230}";
}
);
layerId = "204D14C0-8C16-4EB3-B338-290668FF7982";
width = 754;
}
);
note = Ntilde;
unicode = 00D1;
},
{
color = 8;
glyphname = Oacute;
lastChange = "2018-03-28 09:20:46 +0000";
layers = (
{
background = {
paths = (
{
closed = 1;
nodes = (
"601 -10 OFFCURVE",
"719 124 OFFCURVE",
"719 350 CURVE SMOOTH",
"719 574 OFFCURVE",
"601 710 OFFCURVE",
"378 710 CURVE SMOOTH",
"154 710 OFFCURVE",
"36 574 OFFCURVE",
"36 350 CURVE SMOOTH",
"36 124 OFFCURVE",
"154 -10 OFFCURVE",
"378 -10 CURVE SMOOTH"
);
},
{
closed = 1;
nodes = (
"215 32 OFFCURVE",
"135 158 OFFCURVE",
"135 350 CURVE SMOOTH",
"135 541 OFFCURVE",
"215 668 OFFCURVE",
"377 668 CURVE SMOOTH",
"541 668 OFFCURVE",
"620 541 OFFCURVE",
"620 350 CURVE SMOOTH",
"620 158 OFFCURVE",
"541 32 OFFCURVE",
"377 32 CURVE SMOOTH"
);
},
{
closed = 1;
nodes = (
"440 865 LINE SMOOTH",
"462 877 OFFCURVE",
"474 890 OFFCURVE",
"474 907 CURVE SMOOTH",
"474 922 OFFCURVE",
"462 937 OFFCURVE",
"440 937 CURVE SMOOTH",
"419 937 OFFCURVE",
"404 921 OFFCURVE",
"396 914 CURVE SMOOTH",
"281 807 LINE",
"298 782 LINE"
);
}
);
};
components = (
{
name = O;
},
{
name = acute;
transform = "{1, 0, 0, 1, 38, 230}";
}
);
layerId = "0B1DFD06-3317-40CA-B510-4969A0718C16";
width = 676;
},
{
components = (
{
name = O;
},
{
name = acute;
transform = "{1, 0, 0, 1, 63, 230}";
}
);
layerId = "204D14C0-8C16-4EB3-B338-290668FF7982";
width = 726;
}
);
leftKerningGroup = O;
note = Oacute;
rightKerningGroup = O;
unicode = 00D3;
},
{
color = 8;
glyphname = Obreve;
lastChange = "2018-03-28 09:20:46 +0000";
layers = (
{
background = {
paths = (
{
closed = 1;
nodes = (
"601 -10 OFFCURVE",
"719 124 OFFCURVE",
"719 350 CURVE SMOOTH",
"719 574 OFFCURVE",
"601 710 OFFCURVE",
"378 710 CURVE SMOOTH",
"154 710 OFFCURVE",
"36 574 OFFCURVE",
"36 350 CURVE SMOOTH",
"36 124 OFFCURVE",
"154 -10 OFFCURVE",
"378 -10 CURVE SMOOTH"
);
},
{
closed = 1;
nodes = (
"215 32 OFFCURVE",
"135 158 OFFCURVE",
"135 350 CURVE SMOOTH",
"135 541 OFFCURVE",
"215 668 OFFCURVE",
"377 668 CURVE SMOOTH",
"541 668 OFFCURVE",
"620 541 OFFCURVE",
"620 350 CURVE SMOOTH",
"620 158 OFFCURVE",
"541 32 OFFCURVE",
"377 32 CURVE SMOOTH"
);
},
{
closed = 1;
nodes = (
"477 774 OFFCURVE",
"519 830 OFFCURVE",
"523 905 CURVE",
"490 905 LINE",
"484 846 OFFCURVE",
"442 820 OFFCURVE",
"378 820 CURVE SMOOTH",
"314 820 OFFCURVE",
"271 846 OFFCURVE",
"264 905 CURVE",
"231 905 LINE",
"235 827 OFFCURVE",
"277 774 OFFCURVE",
"378 774 CURVE SMOOTH"
);
}
);
};
components = (
{
name = O;
},
{
name = breve;
transform = "{1, 0, 0, 1, 38, 230}";
}
);
layerId = "0B1DFD06-3317-40CA-B510-4969A0718C16";
width = 676;
},
{
components = (
{
name = O;
},
{
name = breve;
transform = "{1, 0, 0, 1, 63, 230}";
}
);
layerId = "204D14C0-8C16-4EB3-B338-290668FF7982";
width = 726;
}
);
leftKerningGroup = O;
note = Obreve;
rightKerningGroup = O;
unicode = 014E;
},
{
color = 8;
glyphname = Ocaron;
lastChange = "2018-03-28 09:20:46 +0000";
layers = (
{
background = {
paths = (
{
closed = 1;
nodes = (
"601 -10 OFFCURVE",
"719 124 OFFCURVE",
"719 350 CURVE SMOOTH",
"719 574 OFFCURVE",
"601 710 OFFCURVE",
"378 710 CURVE SMOOTH",
"154 710 OFFCURVE",
"36 574 OFFCURVE",
"36 350 CURVE SMOOTH",
"36 124 OFFCURVE",
"154 -10 OFFCURVE",
"378 -10 CURVE SMOOTH"
);
},
{
closed = 1;
nodes = (
"215 32 OFFCURVE",
"135 158 OFFCURVE",
"135 350 CURVE SMOOTH",
"135 541 OFFCURVE",
"215 668 OFFCURVE",
"377 668 CURVE SMOOTH",
"541 668 OFFCURVE",
"620 541 OFFCURVE",
"620 350 CURVE SMOOTH",
"620 158 OFFCURVE",
"541 32 OFFCURVE",
"377 32 CURVE SMOOTH"
);
},
{
closed = 1;
nodes = (
"404 782 LINE",
"528 911 LINE",
"509 932 LINE",
"401 847 LINE",
"393 840 OFFCURVE",
"384 836 OFFCURVE",
"378 836 CURVE SMOOTH",
"372 836 OFFCURVE",
"364 840 OFFCURVE",
"354 847 CURVE",
"246 932 LINE",
"227 911 LINE",
"351 782 LINE"
);
}
);
};
components = (
{
name = O;
},
{
name = caron;
transform = "{1, 0, 0, 1, 38, 230}";
}
);
layerId = "0B1DFD06-3317-40CA-B510-4969A0718C16";
width = 676;
},
{
components = (
{
name = O;
},
{
name = caron;
transform = "{1, 0, 0, 1, 63, 230}";
}
);
layerId = "204D14C0-8C16-4EB3-B338-290668FF7982";
width = 726;
}
);
leftKerningGroup = O;
note = Ocaron;
rightKerningGroup = O;
unicode = 01D1;
},
{
color = 8;
glyphname = Ocircumflex;
lastChange = "2018-03-28 09:20:46 +0000";
layers = (
{
background = {
paths = (
{
closed = 1;
nodes = (
"601 -10 OFFCURVE",
"719 124 OFFCURVE",
"719 350 CURVE SMOOTH",
"719 574 OFFCURVE",
"601 710 OFFCURVE",
"378 710 CURVE SMOOTH",
"154 710 OFFCURVE",
"36 574 OFFCURVE",
"36 350 CURVE SMOOTH",
"36 124 OFFCURVE",
"154 -10 OFFCURVE",
"378 -10 CURVE SMOOTH"
);
},
{
closed = 1;
nodes = (
"215 32 OFFCURVE",
"135 158 OFFCURVE",
"135 350 CURVE SMOOTH",
"135 541 OFFCURVE",
"215 668 OFFCURVE",
"377 668 CURVE SMOOTH",
"541 668 OFFCURVE",
"620 541 OFFCURVE",
"620 350 CURVE SMOOTH",
"620 158 OFFCURVE",
"541 32 OFFCURVE",
"377 32 CURVE SMOOTH"
);
},
{
closed = 1;
nodes = (
"354 868 LINE SMOOTH",
"362 874 OFFCURVE",
"372 879 OFFCURVE",
"378 879 CURVE SMOOTH",
"384 879 OFFCURVE",
"392 874 OFFCURVE",
"401 868 CURVE",
"509 782 LINE",
"528 803 LINE",
"404 932 LINE",
"351 932 LINE",
"227 803 LINE",
"246 782 LINE"
);
}
);
};
components = (
{
name = O;
},
{
name = circumflex;
transform = "{1, 0, 0, 1, 38, 230}";
}
);
layerId = "0B1DFD06-3317-40CA-B510-4969A0718C16";
width = 676;
},
{
components = (
{
name = O;
},
{
name = circumflex;
transform = "{1, 0, 0, 1, 63, 230}";
}
);
layerId = "204D14C0-8C16-4EB3-B338-290668FF7982";
width = 726;
}
);
leftKerningGroup = O;
note = Ocircumflex;
rightKerningGroup = O;
unicode = 00D4;
},
{
color = 8;
glyphname = Ocircumflexacute;
lastChange = "2018-03-28 09:20:46 +0000";
layers = (
{
background = {
paths = (
{
closed = 1;
nodes = (
"601 -10 OFFCURVE",
"719 124 OFFCURVE",
"719 350 CURVE SMOOTH",
"719 574 OFFCURVE",
"601 710 OFFCURVE",
"378 710 CURVE SMOOTH",
"154 710 OFFCURVE",
"36 574 OFFCURVE",
"36 350 CURVE SMOOTH",
"36 124 OFFCURVE",
"154 -10 OFFCURVE",
"378 -10 CURVE SMOOTH"
);
},
{
closed = 1;
nodes = (
"215 32 OFFCURVE",
"135 158 OFFCURVE",
"135 350 CURVE SMOOTH",
"135 541 OFFCURVE",
"215 668 OFFCURVE",
"377 668 CURVE SMOOTH",
"541 668 OFFCURVE",
"620 541 OFFCURVE",
"620 350 CURVE SMOOTH",
"620 158 OFFCURVE",
"541 32 OFFCURVE",
"377 32 CURVE SMOOTH"
);
},
{
closed = 1;
nodes = (
"348 861 LINE SMOOTH",
"358 869 OFFCURVE",
"368 877 OFFCURVE",
"376 877 CURVE SMOOTH",
"382 877 OFFCURVE",
"390 872 OFFCURVE",
"399 866 CURVE",
"505 780 LINE",
"524 802 LINE",
"402 931 LINE",
"351 931 LINE",
"229 802 LINE",
"247 780 LINE"
);
},
{
closed = 1;
nodes = (
"613 959 LINE SMOOTH",
"636 971 OFFCURVE",
"649 987 OFFCURVE",
"649 1002 CURVE SMOOTH",
"649 1016 OFFCURVE",
"638 1033 OFFCURVE",
"615 1033 CURVE SMOOTH",
"596 1033 OFFCURVE",
"579 1017 OFFCURVE",
"569 1007 CURVE SMOOTH",
"473 914 LINE",
"491 892 LINE"
);
}
);
};
components = (
{
name = O;
},
{
name = circumflexacute;
transform = "{1, 0, 0, 1, 38, 230}";
}
);
layerId = "0B1DFD06-3317-40CA-B510-4969A0718C16";
width = 676;
},
{
components = (
{
name = O;
},
{
name = circumflexacute;
transform = "{1, 0, 0, 1, 63, 230}";
}
);
layerId = "204D14C0-8C16-4EB3-B338-290668FF7982";
width = 726;
}
);
leftKerningGroup = O;
note = Ocircumflexacute;
rightKerningGroup = O;
unicode = 1ED0;
},
{
color = 8;
glyphname = Ocircumflexdotbelow;
lastChange = "2018-03-28 09:20:46 +0000";
layers = (
{
background = {
paths = (
{
closed = 1;
nodes = (
"36 124 OFFCURVE",
"154 -10 OFFCURVE",
"378 -10 CURVE SMOOTH",
"601 -10 OFFCURVE",
"719 124 OFFCURVE",
"719 350 CURVE SMOOTH",
"719 574 OFFCURVE",
"601 710 OFFCURVE",
"378 710 CURVE SMOOTH",
"154 710 OFFCURVE",
"36 574 OFFCURVE",
"36 350 CURVE SMOOTH"
);
},
{
closed = 1;
nodes = (
"135 541 OFFCURVE",
"215 668 OFFCURVE",
"377 668 CURVE SMOOTH",
"541 668 OFFCURVE",
"620 541 OFFCURVE",
"620 350 CURVE SMOOTH",
"620 158 OFFCURVE",
"541 32 OFFCURVE",
"377 32 CURVE SMOOTH",
"215 32 OFFCURVE",
"135 158 OFFCURVE",
"135 350 CURVE SMOOTH"
);
},
{
closed = 1;
nodes = (
"245 782 LINE",
"353 868 LINE SMOOTH",
"361 874 OFFCURVE",
"371 879 OFFCURVE",
"377 879 CURVE SMOOTH",
"383 879 OFFCURVE",
"391 874 OFFCURVE",
"400 868 CURVE",
"508 782 LINE",
"527 803 LINE",
"403 932 LINE",
"350 932 LINE",
"226 803 LINE"
);
},
{
closed = 1;
nodes = (
"330 -140 OFFCURVE",
"349 -159 OFFCURVE",
"377 -159 CURVE SMOOTH",
"405 -159 OFFCURVE",
"423 -140 OFFCURVE",
"423 -112 CURVE SMOOTH",
"423 -84 OFFCURVE",
"405 -64 OFFCURVE",
"377 -64 CURVE SMOOTH",
"349 -64 OFFCURVE",
"330 -84 OFFCURVE",
"330 -112 CURVE SMOOTH"
);
}
);
};
components = (
{
name = O;
},
{
name = dotbelowcomb;
transform = "{1, 0, 0, 1, 38, 0}";
},
{
name = circumflex;
transform = "{1, 0, 0, 1, 38, 230}";
}
);
layerId = "0B1DFD06-3317-40CA-B510-4969A0718C16";
width = 676;
},
{
components = (
{
name = O;
},
{
name = dotbelowcomb;
transform = "{1, 0, 0, 1, 63, 0}";
},
{
name = circumflex;
transform = "{1, 0, 0, 1, 63, 230}";
}
);
layerId = "204D14C0-8C16-4EB3-B338-290668FF7982";
width = 726;
}
);
leftKerningGroup = O;
note = Ocircumflexdotbelow;
rightKerningGroup = O;
unicode = 1ED8;
},
{
color = 8;
glyphname = Ocircumflexgrave;
lastChange = "2018-03-28 09:20:46 +0000";
layers = (
{
background = {
paths = (
{
closed = 1;
nodes = (
"601 -10 OFFCURVE",
"719 124 OFFCURVE",
"719 350 CURVE SMOOTH",
"719 574 OFFCURVE",
"601 710 OFFCURVE",
"378 710 CURVE SMOOTH",
"154 710 OFFCURVE",
"36 574 OFFCURVE",
"36 350 CURVE SMOOTH",
"36 124 OFFCURVE",
"154 -10 OFFCURVE",
"378 -10 CURVE SMOOTH"
);
},
{
closed = 1;
nodes = (
"215 32 OFFCURVE",
"135 158 OFFCURVE",
"135 350 CURVE SMOOTH",
"135 541 OFFCURVE",
"215 668 OFFCURVE",
"377 668 CURVE SMOOTH",
"541 668 OFFCURVE",
"620 541 OFFCURVE",
"620 350 CURVE SMOOTH",
"620 158 OFFCURVE",
"541 32 OFFCURVE",
"377 32 CURVE SMOOTH"
);
},
{
closed = 1;
nodes = (
"285 914 LINE",
"190 1007 LINE SMOOTH",
"180 1017 OFFCURVE",
"163 1033 OFFCURVE",
"143 1033 CURVE SMOOTH",
"121 1033 OFFCURVE",
"110 1016 OFFCURVE",
"110 1002 CURVE SMOOTH",
"110 987 OFFCURVE",
"123 971 OFFCURVE",
"146 959 CURVE SMOOTH",
"268 892 LINE"
);
},
{
closed = 1;
nodes = (
"348 861 LINE SMOOTH",
"358 869 OFFCURVE",
"368 877 OFFCURVE",
"376 877 CURVE SMOOTH",
"382 877 OFFCURVE",
"390 872 OFFCURVE",
"399 866 CURVE",
"505 780 LINE",
"524 802 LINE",
"402 931 LINE",
"351 931 LINE",
"229 802 LINE",
"247 780 LINE"
);
}
);
};
components = (
{
name = O;
},
{
name = circumflexgrave;
transform = "{1, 0, 0, 1, 38, 230}";
}
);
layerId = "0B1DFD06-3317-40CA-B510-4969A0718C16";
width = 676;
},
{
components = (
{
name = O;
},
{
name = circumflexgrave;
transform = "{1, 0, 0, 1, 63, 230}";
}
);
layerId = "204D14C0-8C16-4EB3-B338-290668FF7982";
width = 726;
}
);
leftKerningGroup = O;
note = Ocircumflexgrave;
rightKerningGroup = O;
unicode = 1ED2;
},
{
color = 8;
glyphname = Ocircumflexhookabove;
lastChange = "2018-03-28 09:20:46 +0000";
layers = (
{
background = {
paths = (
{
closed = 1;
nodes = (
"601 -10 OFFCURVE",
"719 124 OFFCURVE",
"719 350 CURVE SMOOTH",
"719 574 OFFCURVE",
"601 710 OFFCURVE",
"378 710 CURVE SMOOTH",
"154 710 OFFCURVE",
"36 574 OFFCURVE",
"36 350 CURVE SMOOTH",
"36 124 OFFCURVE",
"154 -10 OFFCURVE",
"378 -10 CURVE SMOOTH"
);
},
{
closed = 1;
nodes = (
"215 32 OFFCURVE",
"135 158 OFFCURVE",
"135 350 CURVE SMOOTH",
"135 541 OFFCURVE",
"215 668 OFFCURVE",
"377 668 CURVE SMOOTH",
"541 668 OFFCURVE",
"620 541 OFFCURVE",
"620 350 CURVE SMOOTH",
"620 158 OFFCURVE",
"541 32 OFFCURVE",
"377 32 CURVE SMOOTH"
);
},
{
closed = 1;
nodes = (
"344 858 LINE",
"355 868 OFFCURVE",
"367 878 OFFCURVE",
"376 878 CURVE SMOOTH",
"382 878 OFFCURVE",
"390 873 OFFCURVE",
"399 867 CURVE",
"505 781 LINE",
"524 803 LINE",
"402 932 LINE",
"351 932 LINE",
"229 803 LINE",
"247 781 LINE"
);
},
{
closed = 1;
nodes = (
"551 898 LINE",
"532 905 OFFCURVE",
"522 912 OFFCURVE",
"522 926 CURVE SMOOTH",
"522 954 OFFCURVE",
"602 965 OFFCURVE",
"602 1010 CURVE SMOOTH",
"602 1047 OFFCURVE",
"560 1063 OFFCURVE",
"518 1063 CURVE SMOOTH",
"487 1063 OFFCURVE",
"442 1053 OFFCURVE",
"442 1022 CURVE SMOOTH",
"442 1010 OFFCURVE",
"453 1001 OFFCURVE",
"463 1001 CURVE SMOOTH",
"492 1001 OFFCURVE",
"479 1040 OFFCURVE",
"522 1040 CURVE SMOOTH",
"541 1040 OFFCURVE",
"552 1028 OFFCURVE",
"552 1013 CURVE SMOOTH",
"552 973 OFFCURVE",
"479 965 OFFCURVE",
"479 925 CURVE SMOOTH",
"479 901 OFFCURVE",
"495 880 OFFCURVE",
"542 880 CURVE"
);
}
);
};
components = (
{
name = O;
},
{
name = circumflexhookabove;
transform = "{1, 0, 0, 1, 38, 230}";
}
);
layerId = "0B1DFD06-3317-40CA-B510-4969A0718C16";
width = 676;
},
{
components = (
{
name = O;
},
{
name = circumflexhookabove;
transform = "{1, 0, 0, 1, 63, 230}";
}
);
layerId = "204D14C0-8C16-4EB3-B338-290668FF7982";
width = 726;
}
);
leftKerningGroup = O;
note = Ocircumflexhookabove;
rightKerningGroup = O;
unicode = 1ED4;
},
{
color = 8;
glyphname = Ocircumflextilde;
lastChange = "2018-03-28 09:20:46 +0000";
layers = (
{
background = {
paths = (
{
closed = 1;
nodes = (
"601 -10 OFFCURVE",
"719 124 OFFCURVE",
"719 350 CURVE SMOOTH",
"719 574 OFFCURVE",
"601 710 OFFCURVE",
"378 710 CURVE SMOOTH",
"154 710 OFFCURVE",
"36 574 OFFCURVE",
"36 350 CURVE SMOOTH",
"36 124 OFFCURVE",
"154 -10 OFFCURVE",
"378 -10 CURVE SMOOTH"
);
},
{
closed = 1;
nodes = (
"215 32 OFFCURVE",
"135 158 OFFCURVE",
"135 350 CURVE SMOOTH",
"135 541 OFFCURVE",
"215 668 OFFCURVE",
"377 668 CURVE SMOOTH",
"541 668 OFFCURVE",
"620 541 OFFCURVE",
"620 350 CURVE SMOOTH",
"620 158 OFFCURVE",
"541 32 OFFCURVE",
"377 32 CURVE SMOOTH"
);
},
{
closed = 1;
nodes = (
"348 862 LINE SMOOTH",
"358 870 OFFCURVE",
"368 878 OFFCURVE",
"376 878 CURVE SMOOTH",
"382 878 OFFCURVE",
"390 873 OFFCURVE",
"399 867 CURVE",
"505 781 LINE",
"524 803 LINE",
"402 932 LINE",
"351 932 LINE",
"229 803 LINE",
"247 781 LINE"
);
},
{
closed = 1;
nodes = (
"251 997 OFFCURVE",
"269 1018 OFFCURVE",
"300 1018 CURVE SMOOTH",
"349 1018 OFFCURVE",
"396 964 OFFCURVE",
"445 964 CURVE SMOOTH",
"498 964 OFFCURVE",
"527 1012 OFFCURVE",
"539 1063 CURVE",
"518 1075 LINE",
"505 1035 OFFCURVE",
"489 1012 OFFCURVE",
"456 1012 CURVE SMOOTH",
"409 1012 OFFCURVE",
"360 1065 OFFCURVE",
"311 1065 CURVE SMOOTH",
"260 1065 OFFCURVE",
"228 1021 OFFCURVE",
"218 970 CURVE",
"238 958 LINE"
);
}
);
};
components = (
{
name = O;
},
{
name = circumflextilde;
transform = "{1, 0, 0, 1, 38, 230}";
}
);
layerId = "0B1DFD06-3317-40CA-B510-4969A0718C16";
width = 676;
},
{
components = (
{
name = O;
},
{
name = circumflextilde;
transform = "{1, 0, 0, 1, 63, 230}";
}
);
layerId = "204D14C0-8C16-4EB3-B338-290668FF7982";
width = 726;
}
);
leftKerningGroup = O;
note = Ocircumflextilde;
rightKerningGroup = O;
unicode = 1ED6;
},
{
color = 8;
glyphname = Odieresis;
lastChange = "2018-03-28 09:20:46 +0000";
layers = (
{
background = {
paths = (
{
closed = 1;
nodes = (
"601 -10 OFFCURVE",
"719 124 OFFCURVE",
"719 350 CURVE SMOOTH",
"719 574 OFFCURVE",
"601 710 OFFCURVE",
"378 710 CURVE SMOOTH",
"154 710 OFFCURVE",
"36 574 OFFCURVE",
"36 350 CURVE SMOOTH",
"36 124 OFFCURVE",
"154 -10 OFFCURVE",
"378 -10 CURVE SMOOTH"
);
},
{
closed = 1;
nodes = (
"215 32 OFFCURVE",
"135 158 OFFCURVE",
"135 350 CURVE SMOOTH",
"135 541 OFFCURVE",
"215 668 OFFCURVE",
"377 668 CURVE SMOOTH",
"541 668 OFFCURVE",
"620 541 OFFCURVE",
"620 350 CURVE SMOOTH",
"620 158 OFFCURVE",
"541 32 OFFCURVE",
"377 32 CURVE SMOOTH"
);
},
{
closed = 1;
nodes = (
"298 781 OFFCURVE",
"316 800 OFFCURVE",
"316 827 CURVE SMOOTH",
"316 855 OFFCURVE",
"298 875 OFFCURVE",
"269 875 CURVE SMOOTH",
"241 875 OFFCURVE",
"223 855 OFFCURVE",
"223 827 CURVE SMOOTH",
"223 800 OFFCURVE",
"241 781 OFFCURVE",
"269 781 CURVE SMOOTH"
);
},
{
closed = 1;
nodes = (
"514 781 OFFCURVE",
"532 800 OFFCURVE",
"532 827 CURVE SMOOTH",
"532 855 OFFCURVE",
"514 875 OFFCURVE",
"485 875 CURVE SMOOTH",
"456 875 OFFCURVE",
"438 855 OFFCURVE",
"438 827 CURVE SMOOTH",
"438 800 OFFCURVE",
"456 781 OFFCURVE",
"485 781 CURVE SMOOTH"
);
}
);
};
components = (
{
name = O;
},
{
name = dieresis;
transform = "{1, 0, 0, 1, 38, 230}";
}
);
layerId = "0B1DFD06-3317-40CA-B510-4969A0718C16";
width = 676;
},
{
components = (
{
name = O;
},
{
name = dieresis;
transform = "{1, 0, 0, 1, 63, 230}";
}
);
layerId = "204D14C0-8C16-4EB3-B338-290668FF7982";
width = 726;
}
);
leftKerningGroup = O;
note = Odieresis;
rightKerningGroup = O;
unicode = 00D6;
},
{
color = 8;
glyphname = Odotbelow;
lastChange = "2018-03-28 09:20:46 +0000";
layers = (
{
background = {
paths = (
{
closed = 1;
nodes = (
"36 124 OFFCURVE",
"154 -10 OFFCURVE",
"378 -10 CURVE SMOOTH",
"601 -10 OFFCURVE",
"719 124 OFFCURVE",
"719 350 CURVE SMOOTH",
"719 574 OFFCURVE",
"601 710 OFFCURVE",
"378 710 CURVE SMOOTH",
"154 710 OFFCURVE",
"36 574 OFFCURVE",
"36 350 CURVE SMOOTH"
);
},
{
closed = 1;
nodes = (
"135 541 OFFCURVE",
"215 668 OFFCURVE",
"377 668 CURVE SMOOTH",
"541 668 OFFCURVE",
"620 541 OFFCURVE",
"620 350 CURVE SMOOTH",
"620 158 OFFCURVE",
"541 32 OFFCURVE",
"377 32 CURVE SMOOTH",
"215 32 OFFCURVE",
"135 158 OFFCURVE",
"135 350 CURVE SMOOTH"
);
},
{
closed = 1;
nodes = (
"330 -140 OFFCURVE",
"349 -159 OFFCURVE",
"377 -159 CURVE SMOOTH",
"405 -159 OFFCURVE",
"423 -140 OFFCURVE",
"423 -112 CURVE SMOOTH",
"423 -84 OFFCURVE",
"405 -64 OFFCURVE",
"377 -64 CURVE SMOOTH",
"349 -64 OFFCURVE",
"330 -84 OFFCURVE",
"330 -112 CURVE SMOOTH"
);
}
);
};
components = (
{
name = O;
},
{
name = dotbelowcomb;
transform = "{1, 0, 0, 1, 38, 0}";
}
);
layerId = "0B1DFD06-3317-40CA-B510-4969A0718C16";
width = 676;
},
{
components = (
{
name = O;
},
{
name = dotbelowcomb;
transform = "{1, 0, 0, 1, 63, 0}";
}
);
layerId = "204D14C0-8C16-4EB3-B338-290668FF7982";
width = 726;
}
);
leftKerningGroup = O;
note = Odotbelow;
rightKerningGroup = O;
unicode = 1ECC;
},
{
color = 8;
glyphname = Ograve;
lastChange = "2018-03-28 09:20:46 +0000";
layers = (
{
background = {
paths = (
{
closed = 1;
nodes = (
"601 -10 OFFCURVE",
"719 124 OFFCURVE",
"719 350 CURVE SMOOTH",
"719 574 OFFCURVE",
"601 710 OFFCURVE",
"378 710 CURVE SMOOTH",
"154 710 OFFCURVE",
"36 574 OFFCURVE",
"36 350 CURVE SMOOTH",
"36 124 OFFCURVE",
"154 -10 OFFCURVE",
"378 -10 CURVE SMOOTH"
);
},
{
closed = 1;
nodes = (
"215 32 OFFCURVE",
"135 158 OFFCURVE",
"135 350 CURVE SMOOTH",
"135 541 OFFCURVE",
"215 668 OFFCURVE",
"377 668 CURVE SMOOTH",
"541 668 OFFCURVE",
"620 541 OFFCURVE",
"620 350 CURVE SMOOTH",
"620 158 OFFCURVE",
"541 32 OFFCURVE",
"377 32 CURVE SMOOTH"
);
},
{
closed = 1;
nodes = (
"459 807 LINE",
"344 913 LINE",
"335 922 OFFCURVE",
"319 937 OFFCURVE",
"299 937 CURVE SMOOTH",
"279 937 OFFCURVE",
"267 924 OFFCURVE",
"267 908 CURVE SMOOTH",
"267 890 OFFCURVE",
"279 876 OFFCURVE",
"298 865 CURVE SMOOTH",
"441 782 LINE"
);
}
);
};
components = (
{
name = O;
},
{
name = grave;
transform = "{1, 0, 0, 1, 38, 230}";
}
);
layerId = "0B1DFD06-3317-40CA-B510-4969A0718C16";
width = 676;
},
{
components = (
{
name = O;
},
{
name = grave;
transform = "{1, 0, 0, 1, 63, 230}";
}
);
layerId = "204D14C0-8C16-4EB3-B338-290668FF7982";
width = 726;
}
);
leftKerningGroup = O;
note = Ograve;
rightKerningGroup = O;
unicode = 00D2;
},
{
color = 8;
glyphname = Ohookabove;
lastChange = "2018-03-28 09:20:46 +0000";
layers = (
{
background = {
paths = (
{
closed = 1;
nodes = (
"601 -10 OFFCURVE",
"719 124 OFFCURVE",
"719 350 CURVE SMOOTH",
"719 574 OFFCURVE",
"601 710 OFFCURVE",
"378 710 CURVE SMOOTH",
"154 710 OFFCURVE",
"36 574 OFFCURVE",
"36 350 CURVE SMOOTH",
"36 124 OFFCURVE",
"154 -10 OFFCURVE",
"378 -10 CURVE SMOOTH"
);
},
{
closed = 1;
nodes = (
"215 32 OFFCURVE",
"135 158 OFFCURVE",
"135 350 CURVE SMOOTH",
"135 541 OFFCURVE",
"215 668 OFFCURVE",
"377 668 CURVE SMOOTH",
"541 668 OFFCURVE",
"620 541 OFFCURVE",
"620 350 CURVE SMOOTH",
"620 158 OFFCURVE",
"541 32 OFFCURVE",
"377 32 CURVE SMOOTH"
);
},
{
closed = 1;
nodes = (
"407 798 LINE",
"388 805 OFFCURVE",
"376 811 OFFCURVE",
"376 828 CURVE SMOOTH",
"376 861 OFFCURVE",
"465 876 OFFCURVE",
"465 927 CURVE SMOOTH",
"465 969 OFFCURVE",
"429 991 OFFCURVE",
"376 991 CURVE SMOOTH",
"329 991 OFFCURVE",
"288 974 OFFCURVE",
"288 940 CURVE SMOOTH",
"288 923 OFFCURVE",
"296 915 OFFCURVE",
"311 915 CURVE SMOOTH",
"334 915 OFFCURVE",
"336 934 OFFCURVE",
"339 942 CURVE SMOOTH",
"344 956 OFFCURVE",
"361 962 OFFCURVE",
"377 962 CURVE SMOOTH",
"398 962 OFFCURVE",
"411 947 OFFCURVE",
"411 930 CURVE SMOOTH",
"411 885 OFFCURVE",
"329 874 OFFCURVE",
"329 828 CURVE SMOOTH",
"329 801 OFFCURVE",
"347 778 OFFCURVE",
"398 778 CURVE"
);
}
);
};
components = (
{
name = O;
},
{
name = hookabovecomb;
transform = "{1, 0, 0, 1, 38, 230}";
}
);
layerId = "0B1DFD06-3317-40CA-B510-4969A0718C16";
width = 676;
},
{
components = (
{
name = O;
},
{
name = hookabovecomb;
transform = "{1, 0, 0, 1, 63, 230}";
}
);
layerId = "204D14C0-8C16-4EB3-B338-290668FF7982";
width = 726;
}
);
leftKerningGroup = O;
note = Ohookabove;
rightKerningGroup = O;
unicode = 1ECE;
},
{
color = 8;
glyphname = Ohorn;
lastChange = "2018-03-28 12:38:41 +0000";
layers = (
{
background = {
paths = (
{
closed = 1;
nodes = (
"634 608 OFFCURVE",
"644 671 OFFCURVE",
"644 740 CURVE",
"612 740 LINE",
"612 653 OFFCURVE",
"587 617 OFFCURVE",
"535 611 CURVE",
"551 587 LINE"
);
}
);
};
components = (
{
name = O;
},
{
name = horncomb;
transform = "{1, 0, 0, 1, 107, 230}";
}
);
layerId = "0B1DFD06-3317-40CA-B510-4969A0718C16";
width = 676;
},
{
components = (
{
name = O;
},
{
name = horncomb;
transform = "{1, 0, 0, 1, 134, 230}";
}
);
layerId = "204D14C0-8C16-4EB3-B338-290668FF7982";
width = 726;
}
);
note = Ohorn;
unicode = 01A0;
},
{
color = 8;
glyphname = Ohornacute;
lastChange = "2018-03-28 12:40:04 +0000";
layers = (
{
background = {
paths = (
{
closed = 1;
nodes = (
"602 -10 OFFCURVE",
"720 124 OFFCURVE",
"720 350 CURVE SMOOTH",
"720 574 OFFCURVE",
"602 710 OFFCURVE",
"379 710 CURVE SMOOTH",
"155 710 OFFCURVE",
"37 574 OFFCURVE",
"37 350 CURVE SMOOTH",
"37 124 OFFCURVE",
"155 -10 OFFCURVE",
"379 -10 CURVE SMOOTH"
);
},
{
closed = 1;
nodes = (
"216 32 OFFCURVE",
"136 158 OFFCURVE",
"136 350 CURVE SMOOTH",
"136 541 OFFCURVE",
"216 668 OFFCURVE",
"378 668 CURVE SMOOTH",
"542 668 OFFCURVE",
"621 541 OFFCURVE",
"621 350 CURVE SMOOTH",
"621 158 OFFCURVE",
"542 32 OFFCURVE",
"378 32 CURVE SMOOTH"
);
},
{
closed = 1;
nodes = (
"424 864 LINE SMOOTH",
"446 876 OFFCURVE",
"458 889 OFFCURVE",
"458 906 CURVE SMOOTH",
"458 921 OFFCURVE",
"446 936 OFFCURVE",
"424 936 CURVE SMOOTH",
"403 936 OFFCURVE",
"388 920 OFFCURVE",
"380 913 CURVE SMOOTH",
"265 806 LINE",
"282 781 LINE"
);
},
{
closed = 1;
nodes = (
"691 567 OFFCURVE",
"756 632 OFFCURVE",
"756 705 CURVE SMOOTH",
"756 752 OFFCURVE",
"729 772 OFFCURVE",
"701 772 CURVE SMOOTH",
"672 772 OFFCURVE",
"656 752 OFFCURVE",
"656 729 CURVE SMOOTH",
"656 695 OFFCURVE",
"689 688 OFFCURVE",
"689 653 CURVE SMOOTH",
"689 617 OFFCURVE",
"658 588 OFFCURVE",
"623 568 CURVE",
"623 543 LINE"
);
}
);
};
components = (
{
name = Ohorn;
},
{
name = acute;
transform = "{1, 0, 0, 1, 38, 230}";
}
);
layerId = "0B1DFD06-3317-40CA-B510-4969A0718C16";
width = 676;
},
{
components = (
{
name = Ohorn;
},
{
name = acute;
transform = "{1, 0, 0, 1, 63, 230}";
}
);
layerId = "204D14C0-8C16-4EB3-B338-290668FF7982";
width = 726;
}
);
leftKerningGroup = O;
leftMetricsKey = Ohorn;
note = Ohornacute;
rightKerningGroup = O;
rightMetricsKey = Ohorn;
unicode = 1EDA;
},
{
color = 8;
glyphname = Ohorndotbelow;
lastChange = "2018-03-28 12:40:04 +0000";
layers = (
{
background = {
paths = (
{
closed = 1;
nodes = (
"602 -10 OFFCURVE",
"720 124 OFFCURVE",
"720 350 CURVE SMOOTH",
"720 574 OFFCURVE",
"602 710 OFFCURVE",
"379 710 CURVE SMOOTH",
"155 710 OFFCURVE",
"37 574 OFFCURVE",
"37 350 CURVE SMOOTH",
"37 124 OFFCURVE",
"155 -10 OFFCURVE",
"379 -10 CURVE SMOOTH"
);
},
{
closed = 1;
nodes = (
"216 32 OFFCURVE",
"136 158 OFFCURVE",
"136 350 CURVE SMOOTH",
"136 541 OFFCURVE",
"216 668 OFFCURVE",
"378 668 CURVE SMOOTH",
"542 668 OFFCURVE",
"621 541 OFFCURVE",
"621 350 CURVE SMOOTH",
"621 158 OFFCURVE",
"542 32 OFFCURVE",
"378 32 CURVE SMOOTH"
);
},
{
closed = 1;
nodes = (
"691 567 OFFCURVE",
"756 632 OFFCURVE",
"756 705 CURVE SMOOTH",
"756 752 OFFCURVE",
"729 772 OFFCURVE",
"701 772 CURVE SMOOTH",
"672 772 OFFCURVE",
"656 752 OFFCURVE",
"656 729 CURVE SMOOTH",
"656 695 OFFCURVE",
"689 688 OFFCURVE",
"689 653 CURVE SMOOTH",
"689 617 OFFCURVE",
"658 588 OFFCURVE",
"623 568 CURVE",
"623 543 LINE"
);
},
{
closed = 1;
nodes = (
"395 -159 OFFCURVE",
"413 -140 OFFCURVE",
"413 -112 CURVE SMOOTH",
"413 -84 OFFCURVE",
"395 -64 OFFCURVE",
"367 -64 CURVE SMOOTH",
"339 -64 OFFCURVE",
"320 -84 OFFCURVE",
"320 -112 CURVE SMOOTH",
"320 -140 OFFCURVE",
"339 -159 OFFCURVE",
"367 -159 CURVE SMOOTH"
);
}
);
};
components = (
{
name = Ohorn;
},
{
name = dotbelowcomb;
transform = "{1, 0, 0, 1, 38, 0}";
}
);
layerId = "0B1DFD06-3317-40CA-B510-4969A0718C16";
width = 676;
},
{
components = (
{
name = Ohorn;
},
{
name = dotbelowcomb;
transform = "{1, 0, 0, 1, 63, 0}";
}
);
layerId = "204D14C0-8C16-4EB3-B338-290668FF7982";
width = 726;
}
);
leftKerningGroup = O;
leftMetricsKey = Ohorn;
note = Ohorndotbelow;
rightKerningGroup = O;
rightMetricsKey = Ohorn;
unicode = 1EE2;
},
{
color = 8;
glyphname = Ohorngrave;
lastChange = "2018-03-28 12:40:04 +0000";
layers = (
{
background = {
paths = (
{
closed = 1;
nodes = (
"602 -10 OFFCURVE",
"720 124 OFFCURVE",
"720 350 CURVE SMOOTH",
"720 574 OFFCURVE",
"602 710 OFFCURVE",
"379 710 CURVE SMOOTH",
"155 710 OFFCURVE",
"37 574 OFFCURVE",
"37 350 CURVE SMOOTH",
"37 124 OFFCURVE",
"155 -10 OFFCURVE",
"379 -10 CURVE SMOOTH"
);
},
{
closed = 1;
nodes = (
"216 32 OFFCURVE",
"136 158 OFFCURVE",
"136 350 CURVE SMOOTH",
"136 541 OFFCURVE",
"216 668 OFFCURVE",
"378 668 CURVE SMOOTH",
"542 668 OFFCURVE",
"621 541 OFFCURVE",
"621 350 CURVE SMOOTH",
"621 158 OFFCURVE",
"542 32 OFFCURVE",
"378 32 CURVE SMOOTH"
);
},
{
closed = 1;
nodes = (
"464 816 LINE",
"349 922 LINE",
"340 931 OFFCURVE",
"324 946 OFFCURVE",
"304 946 CURVE SMOOTH",
"284 946 OFFCURVE",
"272 933 OFFCURVE",
"272 917 CURVE SMOOTH",
"272 899 OFFCURVE",
"284 885 OFFCURVE",
"303 874 CURVE SMOOTH",
"446 791 LINE"
);
},
{
closed = 1;
nodes = (
"691 567 OFFCURVE",
"756 632 OFFCURVE",
"756 705 CURVE SMOOTH",
"756 752 OFFCURVE",
"729 772 OFFCURVE",
"701 772 CURVE SMOOTH",
"672 772 OFFCURVE",
"656 752 OFFCURVE",
"656 729 CURVE SMOOTH",
"656 695 OFFCURVE",
"689 688 OFFCURVE",
"689 653 CURVE SMOOTH",
"689 617 OFFCURVE",
"658 588 OFFCURVE",
"623 568 CURVE",
"623 543 LINE"
);
}
);
};
components = (
{
name = Ohorn;
},
{
name = grave;
transform = "{1, 0, 0, 1, 38, 230}";
}
);
layerId = "0B1DFD06-3317-40CA-B510-4969A0718C16";
width = 676;
},
{
components = (
{
name = Ohorn;
},
{
name = grave;
transform = "{1, 0, 0, 1, 63, 230}";
}
);
layerId = "204D14C0-8C16-4EB3-B338-290668FF7982";
width = 726;
}
);
leftKerningGroup = O;
leftMetricsKey = Ohorn;
note = Ohorngrave;
rightKerningGroup = O;
rightMetricsKey = Ohorn;
unicode = 1EDC;
},
{
color = 8;
glyphname = Ohornhookabove;
lastChange = "2018-03-28 12:40:04 +0000";
layers = (
{
background = {
paths = (
{
closed = 1;
nodes = (
"602 -10 OFFCURVE",
"720 124 OFFCURVE",
"720 350 CURVE SMOOTH",
"720 574 OFFCURVE",
"602 710 OFFCURVE",
"379 710 CURVE SMOOTH",
"155 710 OFFCURVE",
"37 574 OFFCURVE",
"37 350 CURVE SMOOTH",
"37 124 OFFCURVE",
"155 -10 OFFCURVE",
"379 -10 CURVE SMOOTH"
);
},
{
closed = 1;
nodes = (
"216 32 OFFCURVE",
"136 158 OFFCURVE",
"136 350 CURVE SMOOTH",
"136 541 OFFCURVE",
"216 668 OFFCURVE",
"378 668 CURVE SMOOTH",
"542 668 OFFCURVE",
"621 541 OFFCURVE",
"621 350 CURVE SMOOTH",
"621 158 OFFCURVE",
"542 32 OFFCURVE",
"378 32 CURVE SMOOTH"
);
},
{
closed = 1;
nodes = (
"412 809 LINE",
"393 816 OFFCURVE",
"381 822 OFFCURVE",
"381 839 CURVE SMOOTH",
"381 872 OFFCURVE",
"470 887 OFFCURVE",
"470 938 CURVE SMOOTH",
"470 980 OFFCURVE",
"434 1002 OFFCURVE",
"381 1002 CURVE SMOOTH",
"334 1002 OFFCURVE",
"293 985 OFFCURVE",
"293 951 CURVE SMOOTH",
"293 934 OFFCURVE",
"301 926 OFFCURVE",
"316 926 CURVE SMOOTH",
"339 926 OFFCURVE",
"341 945 OFFCURVE",
"344 953 CURVE SMOOTH",
"349 967 OFFCURVE",
"366 973 OFFCURVE",
"382 973 CURVE SMOOTH",
"403 973 OFFCURVE",
"416 958 OFFCURVE",
"416 941 CURVE SMOOTH",
"416 896 OFFCURVE",
"334 885 OFFCURVE",
"334 839 CURVE SMOOTH",
"334 812 OFFCURVE",
"352 789 OFFCURVE",
"403 789 CURVE"
);
},
{
closed = 1;
nodes = (
"691 567 OFFCURVE",
"756 632 OFFCURVE",
"756 705 CURVE SMOOTH",
"756 752 OFFCURVE",
"729 772 OFFCURVE",
"701 772 CURVE SMOOTH",
"672 772 OFFCURVE",
"656 752 OFFCURVE",
"656 729 CURVE SMOOTH",
"656 695 OFFCURVE",
"689 688 OFFCURVE",
"689 653 CURVE SMOOTH",
"689 617 OFFCURVE",
"658 588 OFFCURVE",
"623 568 CURVE",
"623 543 LINE"
);
}
);
};
components = (
{
name = Ohorn;
},
{
name = hookabovecomb;
transform = "{1, 0, 0, 1, 38, 230}";
}
);
layerId = "0B1DFD06-3317-40CA-B510-4969A0718C16";
width = 676;
},
{
components = (
{
name = Ohorn;
},
{
name = hookabovecomb;
transform = "{1, 0, 0, 1, 63, 230}";
}
);
layerId = "204D14C0-8C16-4EB3-B338-290668FF7982";
width = 726;
}
);
leftKerningGroup = O;
leftMetricsKey = Ohorn;
note = Ohornhookabove;
rightKerningGroup = O;
rightMetricsKey = Ohorn;
unicode = 1EDE;
},
{
color = 8;
glyphname = Ohorntilde;
lastChange = "2018-03-28 12:40:04 +0000";
layers = (
{
background = {
paths = (
{
closed = 1;
nodes = (
"602 -10 OFFCURVE",
"720 124 OFFCURVE",
"720 350 CURVE SMOOTH",
"720 574 OFFCURVE",
"602 710 OFFCURVE",
"379 710 CURVE SMOOTH",
"155 710 OFFCURVE",
"37 574 OFFCURVE",
"37 350 CURVE SMOOTH",
"37 124 OFFCURVE",
"155 -10 OFFCURVE",
"379 -10 CURVE SMOOTH"
);
},
{
closed = 1;
nodes = (
"216 32 OFFCURVE",
"136 158 OFFCURVE",
"136 350 CURVE SMOOTH",
"136 541 OFFCURVE",
"216 668 OFFCURVE",
"378 668 CURVE SMOOTH",
"542 668 OFFCURVE",
"621 541 OFFCURVE",
"621 350 CURVE SMOOTH",
"621 158 OFFCURVE",
"542 32 OFFCURVE",
"378 32 CURVE SMOOTH"
);
},
{
closed = 1;
nodes = (
"234 828 OFFCURVE",
"252 849 OFFCURVE",
"285 849 CURVE SMOOTH",
"336 849 OFFCURVE",
"385 795 OFFCURVE",
"436 795 CURVE SMOOTH",
"494 795 OFFCURVE",
"524 843 OFFCURVE",
"536 895 CURVE",
"515 906 LINE",
"499 866 OFFCURVE",
"483 844 OFFCURVE",
"449 844 CURVE SMOOTH",
"400 844 OFFCURVE",
"348 897 OFFCURVE",
"297 897 CURVE SMOOTH",
"243 897 OFFCURVE",
"210 853 OFFCURVE",
"198 801 CURVE",
"220 790 LINE"
);
},
{
closed = 1;
nodes = (
"691 567 OFFCURVE",
"756 632 OFFCURVE",
"756 705 CURVE SMOOTH",
"756 752 OFFCURVE",
"729 772 OFFCURVE",
"701 772 CURVE SMOOTH",
"672 772 OFFCURVE",
"656 752 OFFCURVE",
"656 729 CURVE SMOOTH",
"656 695 OFFCURVE",
"689 688 OFFCURVE",
"689 653 CURVE SMOOTH",
"689 617 OFFCURVE",
"658 588 OFFCURVE",
"623 568 CURVE",
"623 543 LINE"
);
}
);
};
components = (
{
name = Ohorn;
},
{
name = tilde;
transform = "{1, 0, 0, 1, 38, 230}";
}
);
layerId = "0B1DFD06-3317-40CA-B510-4969A0718C16";
width = 676;
},
{
components = (
{
name = Ohorn;
},
{
name = tilde;
transform = "{1, 0, 0, 1, 63, 230}";
}
);
layerId = "204D14C0-8C16-4EB3-B338-290668FF7982";
width = 726;
}
);
leftKerningGroup = O;
leftMetricsKey = Ohorn;
note = Ohorntilde;
rightKerningGroup = O;
rightMetricsKey = Ohorn;
unicode = 1EE0;
},
